ComicNeue-Regular.ufo
<glyph name="exclam" format="1">
  <advance width="196"/>
  <unicode hex="0021"/>
  <outline>
    <contour>
      <point x="67" y="181" type="curve" smooth="yes"/>
      <point x="67" y="663" type="line" smooth="yes"/>
      <point x="67" y="679"/>
      <point x="80" y="693"/>
      <point x="96" y="693" type="curve" smooth="yes"/>
      <point x="112" y="693"/>
      <point x="125" y="679"/>
      <point x="125" y="663" type="curve" smooth="yes"/>
      <point x="125" y="181" type="line" smooth="yes"/>
      <point x="125" y="165"/>
      <point x="112" y="152"/>
      <point x="96" y="152" type="curve" smooth="yes"/>
      <point x="80" y="152"/>
      <point x="67" y="165"/>
    </contour>
    <contour>
      <point x="127" y="47" type="curve" smooth="yes"/>
      <point x="127" y="20"/>
      <point x="107" y="0"/>
      <point x="87" y="0" type="curve" smooth="yes"/>
      <point x="68" y="0"/>
      <point x="55" y="16"/>
      <point x="55" y="37" type="curve" smooth="yes"/>
      <point x="55" y="61"/>
      <point x="74" y="83"/>
      <point x="95" y="83" type="curve" smooth="yes"/>
      <point x="114" y="83"/>
      <point x="127" y="66"/>
    </contour>
  </outline>
</glyph>
<glyph name="numbersign" format="1">
  <advance width="746"/>
  <unicode hex="0023"/>
  <outline>
    <contour>
      <point x="555" y="485" type="line"/>
      <point x="602" y="646" type="line" smooth="yes"/>
      <point x="604" y="653"/>
      <point x="605" y="658"/>
      <point x="605" y="661" type="curve" smooth="yes"/>
      <point x="605" y="675"/>
      <point x="594" y="689"/>
      <point x="577" y="689" type="curve" smooth="yes"/>
      <point x="565" y="689"/>
      <point x="553" y="681"/>
      <point x="550" y="669" type="curve" smooth="yes"/>
      <point x="497" y="485" type="line"/>
      <point x="344" y="485" type="line"/>
      <point x="391" y="645" type="line" smooth="yes"/>
      <point x="393" y="651"/>
      <point x="394" y="656"/>
      <point x="394" y="662" type="curve" smooth="yes"/>
      <point x="394" y="676"/>
      <point x="383" y="689"/>
      <point x="366" y="689" type="curve" smooth="yes"/>
      <point x="354" y="689"/>
      <point x="342" y="681"/>
      <point x="339" y="669" type="curve" smooth="yes"/>
      <point x="286" y="485" type="line"/>
      <point x="134" y="485" type="line" smooth="yes"/>
      <point x="118" y="485"/>
      <point x="106" y="472"/>
      <point x="106" y="457" type="curve" smooth="yes"/>
      <point x="106" y="441"/>
      <point x="118" y="429"/>
      <point x="134" y="429" type="curve" smooth="yes"/>
      <point x="269" y="429" type="line"/>
      <point x="222" y="266" type="line"/>
      <point x="89" y="266" type="line" smooth="yes"/>
      <point x="73" y="266"/>
      <point x="61" y="253"/>
      <point x="61" y="238" type="curve" smooth="yes"/>
      <point x="61" y="222"/>
      <point x="73" y="210"/>
      <point x="89" y="210" type="curve" smooth="yes"/>
      <point x="206" y="210" type="line"/>
      <point x="158" y="45" type="line" smooth="yes"/>
      <point x="155" y="36"/>
      <point x="154" y="31"/>
      <point x="154" y="26" type="curve" smooth="yes"/>
      <point x="154" y="13"/>
      <point x="165" y="0"/>
      <point x="182" y="0" type="curve" smooth="yes"/>
      <point x="193" y="0"/>
      <point x="205" y="8"/>
      <point x="209" y="20" type="curve" smooth="yes"/>
      <point x="264" y="210" type="line"/>
      <point x="417" y="210" type="line"/>
      <point x="369" y="46" type="line" smooth="yes"/>
      <point x="366" y="37"/>
      <point x="365" y="31"/>
      <point x="365" y="28" type="curve" smooth="yes"/>
      <point x="365" y="13"/>
      <point x="376" y="0"/>
      <point x="393" y="0" type="curve" smooth="yes"/>
      <point x="404" y="0"/>
      <point x="416" y="8"/>
      <point x="420" y="20" type="curve" smooth="yes"/>
      <point x="475" y="210" type="line"/>
      <point x="611" y="210" type="line" smooth="yes"/>
      <point x="626" y="210"/>
      <point x="639" y="222"/>
      <point x="639" y="238" type="curve" smooth="yes"/>
      <point x="639" y="253"/>
      <point x="626" y="266"/>
      <point x="611" y="266" type="curve" smooth="yes"/>
      <point x="491" y="266" type="line"/>
      <point x="539" y="429" type="line"/>
      <point x="656" y="429" type="line" smooth="yes"/>
      <point x="671" y="429"/>
      <point x="684" y="441"/>
      <point x="684" y="457" type="curve" smooth="yes"/>
      <point x="684" y="472"/>
      <point x="671" y="485"/>
      <point x="656" y="485" type="curve" smooth="yes"/>
    </contour>
    <contour>
      <point x="433" y="266" type="line"/>
      <point x="280" y="266" type="line"/>
      <point x="328" y="429" type="line"/>
      <point x="480" y="429" type="line"/>
    </contour>
  </outline>
</glyph>
<glyph name="dollar" format="1">
  <advance width="604"/>
  <unicode hex="0024"/>
  <outline>
    <contour>
      <point x="283" y="-46" type="line" smooth="yes"/>
      <point x="283" y="-61"/>
      <point x="295" y="-74"/>
      <point x="310" y="-74" type="curve" smooth="yes"/>
      <point x="325" y="-74"/>
      <point x="338" y="-61"/>
      <point x="338" y="-46" type="curve" smooth="yes"/>
      <point x="338" y="1" type="line"/>
      <point x="458" y="16"/>
      <point x="541" y="84"/>
      <point x="541" y="191" type="curve" smooth="yes"/>
      <point x="541" y="279"/>
      <point x="475" y="342"/>
      <point x="338" y="382" type="curve"/>
      <point x="338" y="631" type="line"/>
      <point x="356" y="629"/>
      <point x="474" y="623"/>
      <point x="484" y="541" type="curve" smooth="yes"/>
      <point x="486" y="527"/>
      <point x="497" y="517"/>
      <point x="513" y="517" type="curve" smooth="yes"/>
      <point x="527" y="517"/>
      <point x="539" y="528"/>
      <point x="539" y="542" type="curve" smooth="yes"/>
      <point x="539" y="646"/>
      <point x="426" y="680"/>
      <point x="338" y="680" type="curve"/>
      <point x="338" y="723" type="line" smooth="yes"/>
      <point x="338" y="738"/>
      <point x="325" y="751"/>
      <point x="310" y="751" type="curve" smooth="yes"/>
      <point x="295" y="751"/>
      <point x="283" y="738"/>
      <point x="283" y="723" type="curve" smooth="yes"/>
      <point x="283" y="678" type="line"/>
      <point x="194" y="671"/>
      <point x="100" y="624"/>
      <point x="100" y="510" type="curve" smooth="yes"/>
      <point x="100" y="418"/>
      <point x="193" y="366"/>
      <point x="283" y="337" type="curve"/>
      <point x="283" y="54" type="line"/>
      <point x="217" y="61"/>
      <point x="148" y="95"/>
      <point x="125" y="162" type="curve" smooth="yes"/>
      <point x="120" y="175"/>
      <point x="109" y="185"/>
      <point x="95" y="185" type="curve" smooth="yes"/>
      <point x="76" y="185"/>
      <point x="64" y="168"/>
      <point x="64" y="158" type="curve" smooth="yes"/>
      <point x="64" y="149"/>
      <point x="66" y="145"/>
      <point x="67" y="142" type="curve" smooth="yes"/>
      <point x="97" y="62"/>
      <point x="181" y="8"/>
      <point x="283" y="0" type="curve"/>
    </contour>
    <contour>
      <point x="163" y="507" type="curve" smooth="yes"/>
      <point x="163" y="556"/>
      <point x="184" y="612"/>
      <point x="283" y="627" type="curve"/>
      <point x="283" y="399" type="line"/>
      <point x="203" y="427"/>
      <point x="163" y="463"/>
    </contour>
    <contour>
      <point x="338" y="55" type="curve"/>
      <point x="338" y="321" type="line"/>
      <point x="469" y="279"/>
      <point x="479" y="225"/>
      <point x="479" y="197" type="curve" smooth="yes"/>
      <point x="479" y="109"/>
      <point x="416" y="67"/>
    </contour>
  </outline>
</glyph>
<glyph name="ampersand" format="1">
  <advance width="660"/>
  <unicode hex="0026"/>
  <outline>
    <contour>
      <point x="492" y="159" type="line"/>
      <point x="507" y="187"/>
      <point x="520" y="220"/>
      <point x="531" y="258" type="curve" smooth="yes"/>
      <point x="535" y="272"/>
      <point x="535" y="276"/>
      <point x="535" y="278" type="curve" smooth="yes"/>
      <point x="535" y="293"/>
      <point x="524" y="304"/>
      <point x="509" y="304" type="curve" smooth="yes"/>
      <point x="492" y="304"/>
      <point x="487" y="296"/>
      <point x="479" y="272" type="curve" smooth="yes"/>
      <point x="471" y="246"/>
      <point x="464" y="223"/>
      <point x="454" y="204" type="curve"/>
      <point x="310" y="376" type="line"/>
      <point x="400" y="424"/>
      <point x="442" y="470"/>
      <point x="442" y="551" type="curve" smooth="yes"/>
      <point x="442" y="622"/>
      <point x="371" y="690"/>
      <point x="295" y="690" type="curve" smooth="yes"/>
      <point x="219" y="690"/>
      <point x="148" y="623"/>
      <point x="148" y="548" type="curve" smooth="yes"/>
      <point x="148" y="485"/>
      <point x="194" y="424"/>
      <point x="224" y="390" type="curve"/>
      <point x="142" y="346"/>
      <point x="61" y="297"/>
      <point x="61" y="181" type="curve" smooth="yes"/>
      <point x="61" y="67"/>
      <point x="167" y="-4"/>
      <point x="264" y="-4" type="curve" smooth="yes"/>
      <point x="289" y="-4"/>
      <point x="385" y="3"/>
      <point x="462" y="110" type="curve"/>
      <point x="546" y="10" type="line" smooth="yes"/>
      <point x="551" y="4"/>
      <point x="559" y="0"/>
      <point x="567" y="0" type="curve" smooth="yes"/>
      <point x="582" y="0"/>
      <point x="594" y="12"/>
      <point x="594" y="27" type="curve" smooth="yes"/>
      <point x="594" y="33"/>
      <point x="591" y="40"/>
      <point x="588" y="44" type="curve" smooth="yes"/>
    </contour>
    <contour>
      <point x="202" y="548" type="curve" smooth="yes"/>
      <point x="202" y="598"/>
      <point x="252" y="636"/>
      <point x="295" y="636" type="curve" smooth="yes"/>
      <point x="343" y="636"/>
      <point x="389" y="592"/>
      <point x="389" y="549" type="curve" smooth="yes"/>
      <point x="389" y="514"/>
      <point x="388" y="474"/>
      <point x="273" y="417" type="curve"/>
      <point x="245" y="445"/>
      <point x="202" y="500"/>
    </contour>
    <contour>
      <point x="264" y="50" type="curve" smooth="yes"/>
      <point x="204" y="50"/>
      <point x="115" y="91"/>
      <point x="115" y="181" type="curve" smooth="yes"/>
      <point x="115" y="270"/>
      <point x="180" y="306"/>
      <point x="262" y="350" type="curve"/>
      <point x="426" y="153" type="line"/>
      <point x="363" y="56"/>
      <point x="285" y="50"/>
    </contour>
  </outline>
</glyph>
<glyph name="quotesingle" format="1">
  <advance width="194"/>
  <unicode hex="0027"/>
  <outline>
    <contour>
      <point x="97" y="500" type="curve" smooth="yes"/>
      <point x="112" y="500"/>
      <point x="125" y="512"/>
      <point x="125" y="528" type="curve" smooth="yes"/>
      <point x="125" y="662" type="line" smooth="yes"/>
      <point x="125" y="677"/>
      <point x="112" y="690"/>
      <point x="97" y="690" type="curve" smooth="yes"/>
      <point x="81" y="690"/>
      <point x="69" y="677"/>
      <point x="69" y="662" type="curve" smooth="yes"/>
      <point x="69" y="528" type="line" smooth="yes"/>
      <point x="69" y="512"/>
      <point x="81" y="500"/>
    </contour>
  </outline>
</glyph>
<glyph name="parenright" format="1">
  <advance width="369"/>
  <unicode hex="0029"/>
  <outline>
    <contour>
      <point x="74" y="746" type="curve" smooth="yes"/>
      <point x="78" y="743"/>
      <point x="247" y="592"/>
      <point x="247" y="351" type="curve" smooth="yes"/>
      <point x="247" y="107"/>
      <point x="90" y="-57"/>
      <point x="87" y="-60" type="curve" smooth="yes"/>
      <point x="81" y="-66"/>
      <point x="78" y="-73"/>
      <point x="78" y="-81" type="curve" smooth="yes"/>
      <point x="78" y="-96"/>
      <point x="92" y="-108"/>
      <point x="105" y="-108" type="curve" smooth="yes"/>
      <point x="117" y="-108"/>
      <point x="125" y="-102"/>
      <point x="130" y="-96" type="curve" smooth="yes"/>
      <point x="147" y="-74"/>
      <point x="303" y="91"/>
      <point x="303" y="351" type="curve" smooth="yes"/>
      <point x="303" y="522"/>
      <point x="227" y="678"/>
      <point x="115" y="783" type="curve" smooth="yes"/>
      <point x="105" y="792"/>
      <point x="98" y="795"/>
      <point x="92" y="795" type="curve" smooth="yes"/>
      <point x="77" y="795"/>
      <point x="64" y="782"/>
      <point x="64" y="767" type="curve" smooth="yes"/>
      <point x="64" y="759"/>
      <point x="68" y="752"/>
    </contour>
  </outline>
</glyph>
<glyph name="asterisk" format="1">
  <advance width="397"/>
  <unicode hex="002A"/>
  <outline>
    <contour>
      <point x="197" y="527" type="curve"/>
      <point x="197" y="527"/>
      <point x="214" y="498"/>
      <point x="225" y="486" type="curve" smooth="yes"/>
      <point x="260" y="448" type="line" smooth="yes"/>
      <point x="265" y="442"/>
      <point x="272" y="439"/>
      <point x="279" y="439" type="curve" smooth="yes"/>
      <point x="292" y="439"/>
      <point x="305" y="450"/>
      <point x="305" y="466" type="curve" smooth="yes"/>
      <point x="305" y="473"/>
      <point x="303" y="480"/>
      <point x="298" y="486" type="curve" smooth="yes"/>
      <point x="266" y="521" type="line" smooth="yes"/>
      <point x="253" y="536"/>
      <point x="230" y="551"/>
      <point x="230" y="551" type="curve"/>
      <point x="230" y="551"/>
      <point x="262" y="557"/>
      <point x="277" y="565" type="curve" smooth="yes"/>
      <point x="310" y="582" type="line" smooth="yes"/>
      <point x="319" y="587"/>
      <point x="324" y="596"/>
      <point x="324" y="606" type="curve" smooth="yes"/>
      <point x="324" y="618"/>
      <point x="313" y="632"/>
      <point x="298" y="632" type="curve" smooth="yes"/>
      <point x="292" y="632"/>
      <point x="288" y="631"/>
      <point x="284" y="629" type="curve" smooth="yes"/>
      <point x="256" y="615" type="line" smooth="yes"/>
      <point x="241" y="607"/>
      <point x="219" y="589"/>
      <point x="219" y="589" type="curve"/>
      <point x="219" y="589"/>
      <point x="224" y="618"/>
      <point x="224" y="636" type="curve" smooth="yes"/>
      <point x="224" y="663" type="line" smooth="yes"/>
      <point x="224" y="678"/>
      <point x="212" y="690"/>
      <point x="197" y="690" type="curve" smooth="yes"/>
      <point x="182" y="690"/>
      <point x="170" y="678"/>
      <point x="170" y="663" type="curve" smooth="yes"/>
      <point x="170" y="636" type="line" smooth="yes"/>
      <point x="170" y="618"/>
      <point x="175" y="589"/>
      <point x="175" y="589" type="curve"/>
      <point x="175" y="589"/>
      <point x="153" y="607"/>
      <point x="138" y="615" type="curve" smooth="yes"/>
      <point x="110" y="629" type="line" smooth="yes"/>
      <point x="106" y="631"/>
      <point x="102" y="632"/>
      <point x="96" y="632" type="curve" smooth="yes"/>
      <point x="81" y="632"/>
      <point x="70" y="618"/>
      <point x="70" y="606" type="curve" smooth="yes"/>
      <point x="70" y="596"/>
      <point x="75" y="587"/>
      <point x="84" y="582" type="curve" smooth="yes"/>
      <point x="117" y="565" type="line" smooth="yes"/>
      <point x="132" y="557"/>
      <point x="164" y="551"/>
      <point x="164" y="551" type="curve"/>
      <point x="164" y="551"/>
      <point x="141" y="536"/>
      <point x="128" y="521" type="curve" smooth="yes"/>
      <point x="96" y="486" type="line" smooth="yes"/>
      <point x="91" y="480"/>
      <point x="89" y="473"/>
      <point x="89" y="466" type="curve" smooth="yes"/>
      <point x="89" y="450"/>
      <point x="102" y="439"/>
      <point x="115" y="439" type="curve" smooth="yes"/>
      <point x="122" y="439"/>
      <point x="129" y="442"/>
      <point x="134" y="448" type="curve" smooth="yes"/>
      <point x="169" y="486" type="line" smooth="yes"/>
      <point x="180" y="498"/>
      <point x="197" y="527"/>
    </contour>
  </outline>
</glyph>
<glyph name="comma" format="1">
  <advance width="261"/>
  <unicode hex="002C"/>
  <outline>
    <contour>
      <point x="144" y="77" type="curve" smooth="yes"/>
      <point x="123" y="77"/>
      <point x="104" y="56"/>
      <point x="104" y="32" type="curve" smooth="yes"/>
      <point x="104" y="20"/>
      <point x="109" y="9"/>
      <point x="116" y="2" type="curve"/>
      <point x="92" y="-62" type="line" smooth="yes"/>
      <point x="91" y="-65"/>
      <point x="90" y="-68"/>
      <point x="90" y="-71" type="curve" smooth="yes"/>
      <point x="90" y="-83"/>
      <point x="100" y="-93"/>
      <point x="113" y="-93" type="curve" smooth="yes"/>
      <point x="132" y="-93"/>
      <point x="133" y="-77"/>
      <point x="157" y="-19" type="curve" smooth="yes"/>
      <point x="172" y="17"/>
      <point x="176" y="26"/>
      <point x="176" y="45" type="curve" smooth="yes"/>
      <point x="176" y="60"/>
      <point x="162" y="77"/>
    </contour>
  </outline>
</glyph>
<glyph name="hyphen" format="1">
  <advance width="441"/>
  <unicode hex="002D"/>
  <outline>
    <contour>
      <point x="345" y="223" type="curve" smooth="yes"/>
      <point x="98" y="223" type="line" smooth="yes"/>
      <point x="84" y="223"/>
      <point x="71" y="236"/>
      <point x="71" y="250" type="curve" smooth="yes"/>
      <point x="71" y="265"/>
      <point x="84" y="277"/>
      <point x="98" y="277" type="curve" smooth="yes"/>
      <point x="345" y="277" type="line" smooth="yes"/>
      <point x="360" y="277"/>
      <point x="372" y="265"/>
      <point x="372" y="250" type="curve" smooth="yes"/>
      <point x="372" y="236"/>
      <point x="360" y="223"/>
    </contour>
  </outline>
</glyph>
<glyph name="period" format="1">
  <advance width="214"/>
  <unicode hex="002E"/>
  <outline>
    <contour>
      <point x="102" y="0" type="curve" smooth="yes"/>
      <point x="83" y="0"/>
      <point x="70" y="17"/>
      <point x="70" y="38" type="curve" smooth="yes"/>
      <point x="70" y="61"/>
      <point x="89" y="83"/>
      <point x="110" y="83" type="curve" smooth="yes"/>
      <point x="128" y="83"/>
      <point x="142" y="67"/>
      <point x="142" y="47" type="curve" smooth="yes"/>
      <point x="142" y="21"/>
      <point x="123" y="0"/>
    </contour>
  </outline>
</glyph>
<glyph name="slash" format="1">
  <advance width="545"/>
  <unicode hex="002F"/>
  <outline>
    <contour>
      <point x="97" y="-1" type="curve" smooth="yes"/>
      <point x="80" y="-1"/>
      <point x="69" y="12"/>
      <point x="69" y="27" type="curve" smooth="yes"/>
      <point x="69" y="32"/>
      <point x="70" y="37"/>
      <point x="72" y="41" type="curve" smooth="yes"/>
      <point x="425" y="678" type="line" smooth="yes"/>
      <point x="430" y="688"/>
      <point x="440" y="692"/>
      <point x="450" y="692" type="curve" smooth="yes"/>
      <point x="466" y="692"/>
      <point x="478" y="679"/>
      <point x="478" y="666" type="curve" smooth="yes"/>
      <point x="478" y="657"/>
      <point x="473" y="648"/>
      <point x="469" y="641" type="curve" smooth="yes"/>
      <point x="121" y="13" type="line" smooth="yes"/>
      <point x="116" y="4"/>
      <point x="107" y="-1"/>
    </contour>
  </outline>
</glyph>
<glyph name="one" format="1">
  <advance width="404"/>
  <unicode hex="0031"/>
  <outline>
    <contour>
      <point x="237" y="56" type="line"/>
      <point x="246" y="652" type="line" smooth="yes"/>
      <point x="246" y="666"/>
      <point x="235" y="680"/>
      <point x="217" y="680" type="curve" smooth="yes"/>
      <point x="210" y="680"/>
      <point x="202" y="677"/>
      <point x="197" y="671" type="curve" smooth="yes"/>
      <point x="69" y="532" type="line" smooth="yes"/>
      <point x="64" y="527"/>
      <point x="61" y="520"/>
      <point x="61" y="513" type="curve" smooth="yes"/>
      <point x="61" y="498"/>
      <point x="73" y="485"/>
      <point x="89" y="485" type="curve" smooth="yes"/>
      <point x="96" y="485"/>
      <point x="104" y="488"/>
      <point x="110" y="494" type="curve" smooth="yes"/>
      <point x="189" y="579" type="line"/>
      <point x="181" y="56" type="line"/>
      <point x="92" y="56" type="line" smooth="yes"/>
      <point x="76" y="56"/>
      <point x="64" y="43"/>
      <point x="64" y="28" type="curve" smooth="yes"/>
      <point x="64" y="12"/>
      <point x="76" y="0"/>
      <point x="92" y="0" type="curve" smooth="yes"/>
      <point x="310" y="0" type="line" smooth="yes"/>
      <point x="325" y="0"/>
      <point x="338" y="12"/>
      <point x="338" y="28" type="curve" smooth="yes"/>
      <point x="338" y="43"/>
      <point x="327" y="56"/>
      <point x="308" y="56" type="curve" smooth="yes"/>
    </contour>
  </outline>
</glyph>
<glyph name="two" format="1">
  <advance width="528"/>
  <unicode hex="0032"/>
  <outline>
    <contour>
      <point x="439" y="0" type="line" smooth="yes"/>
      <point x="454" y="0"/>
      <point x="467" y="12"/>
      <point x="467" y="27" type="curve" smooth="yes"/>
      <point x="467" y="43"/>
      <point x="454" y="55"/>
      <point x="439" y="55" type="curve" smooth="yes"/>
      <point x="125" y="55" type="line"/>
      <point x="131" y="180"/>
      <point x="211" y="237"/>
      <point x="291" y="289" type="curve" smooth="yes"/>
      <point x="375" y="343"/>
      <point x="458" y="392"/>
      <point x="458" y="508" type="curve" smooth="yes"/>
      <point x="458" y="601"/>
      <point x="380" y="677"/>
      <point x="270" y="677" type="curve" smooth="yes"/>
      <point x="187" y="677"/>
      <point x="126" y="632"/>
      <point x="91" y="598" type="curve" smooth="yes"/>
      <point x="69" y="577"/>
      <point x="63" y="568"/>
      <point x="63" y="558" type="curve" smooth="yes"/>
      <point x="63" y="544"/>
      <point x="74" y="529"/>
      <point x="91" y="529" type="curve" smooth="yes"/>
      <point x="105" y="529"/>
      <point x="113" y="540"/>
      <point x="120" y="548" type="curve" smooth="yes"/>
      <point x="127" y="556"/>
      <point x="186" y="621"/>
      <point x="270" y="621" type="curve" smooth="yes"/>
      <point x="344" y="621"/>
      <point x="402" y="573"/>
      <point x="402" y="508" type="curve" smooth="yes"/>
      <point x="402" y="422"/>
      <point x="332" y="382"/>
      <point x="256" y="333" type="curve" smooth="yes"/>
      <point x="166" y="275"/>
      <point x="68" y="204"/>
      <point x="68" y="27" type="curve" smooth="yes"/>
      <point x="68" y="0" type="line"/>
    </contour>
  </outline>
</glyph>
<glyph name="four" format="1">
  <advance width="508"/>
  <unicode hex="0034"/>
  <outline>
    <contour>
      <point x="362" y="-1" type="curve" smooth="yes"/>
      <point x="377" y="-1"/>
      <point x="390" y="12"/>
      <point x="390" y="27" type="curve" smooth="yes"/>
      <point x="390" y="165" type="line"/>
      <point x="424" y="164" type="line" smooth="yes"/>
      <point x="439" y="163"/>
      <point x="452" y="176"/>
      <point x="452" y="192" type="curve" smooth="yes"/>
      <point x="452" y="207"/>
      <point x="441" y="219"/>
      <point x="425" y="220" type="curve" smooth="yes"/>
      <point x="390" y="221" type="line"/>
      <point x="390" y="656" type="line" smooth="yes"/>
      <point x="390" y="672"/>
      <point x="376" y="684"/>
      <point x="360" y="684" type="curve" smooth="yes"/>
      <point x="351" y="684"/>
      <point x="343" y="679"/>
      <point x="338" y="671" type="curve" smooth="yes"/>
      <point x="60" y="213" type="line" smooth="yes"/>
      <point x="57" y="208"/>
      <point x="55" y="204"/>
      <point x="55" y="198" type="curve" smooth="yes"/>
      <point x="55" y="183"/>
      <point x="69" y="170"/>
      <point x="83" y="170" type="curve" smooth="yes"/>
      <point x="334" y="166" type="line"/>
      <point x="334" y="27" type="line" smooth="yes"/>
      <point x="334" y="12"/>
      <point x="346" y="-1"/>
    </contour>
    <contour>
      <point x="334" y="556" type="line"/>
      <point x="334" y="222" type="line"/>
      <point x="133" y="225" type="line"/>
    </contour>
  </outline>
</glyph>
<glyph name="five" format="1">
  <advance width="559"/>
  <unicode hex="0035"/>
  <outline>
    <contour>
      <point x="120" y="133" type="curve" smooth="yes"/>
      <point x="156" y="82"/>
      <point x="200" y="53"/>
      <point x="267" y="53" type="curve" smooth="yes"/>
      <point x="358" y="53"/>
      <point x="439" y="145"/>
      <point x="439" y="253" type="curve" smooth="yes"/>
      <point x="439" y="339"/>
      <point x="392" y="427"/>
      <point x="287" y="427" type="curve" smooth="yes"/>
      <point x="199" y="427"/>
      <point x="148" y="367"/>
      <point x="143" y="362" type="curve" smooth="yes"/>
      <point x="136" y="355"/>
      <point x="130" y="352"/>
      <point x="122" y="352" type="curve" smooth="yes"/>
      <point x="102" y="352"/>
      <point x="91" y="368"/>
      <point x="93" y="385" type="curve" smooth="yes"/>
      <point x="120" y="648" type="line" smooth="yes"/>
      <point x="121" y="662"/>
      <point x="134" y="673"/>
      <point x="148" y="673" type="curve" smooth="yes"/>
      <point x="439" y="673" type="line" smooth="yes"/>
      <point x="454" y="673"/>
      <point x="467" y="660"/>
      <point x="467" y="645" type="curve" smooth="yes"/>
      <point x="467" y="629"/>
      <point x="454" y="617"/>
      <point x="439" y="617" type="curve" smooth="yes"/>
      <point x="173" y="617" type="line"/>
      <point x="156" y="445" type="line"/>
      <point x="188" y="464"/>
      <point x="232" y="483"/>
      <point x="287" y="483" type="curve" smooth="yes"/>
      <point x="406" y="483"/>
      <point x="495" y="391"/>
      <point x="495" y="253" type="curve" smooth="yes"/>
      <point x="495" y="112"/>
      <point x="386" y="-3"/>
      <point x="267" y="-3" type="curve" smooth="yes"/>
      <point x="154" y="-3"/>
      <point x="85" y="75"/>
      <point x="70" y="106" type="curve" smooth="yes"/>
      <point x="68" y="110"/>
      <point x="67" y="115"/>
      <point x="67" y="120" type="curve" smooth="yes"/>
      <point x="67" y="135"/>
      <point x="80" y="148"/>
      <point x="95" y="148" type="curve" smooth="yes"/>
      <point x="109" y="148"/>
      <point x="113" y="142"/>
    </contour>
  </outline>
</glyph>
<glyph name="six" format="1">
  <advance width="546"/>
  <unicode hex="0036"/>
  <outline>
    <contour>
      <point x="118" y="320" type="curve"/>
      <point x="137" y="339"/>
      <point x="196" y="391"/>
      <point x="289" y="391" type="curve" smooth="yes"/>
      <point x="322" y="391"/>
      <point x="428" y="380"/>
      <point x="428" y="242" type="curve" smooth="yes"/>
      <point x="428" y="84"/>
      <point x="321" y="50"/>
      <point x="279" y="50" type="curve" smooth="yes"/>
      <point x="203" y="50"/>
      <point x="113" y="84"/>
      <point x="113" y="247" type="curve" smooth="yes"/>
      <point x="113" y="272"/>
      <point x="114" y="296"/>
    </contour>
    <contour>
      <point x="328" y="676" type="curve" smooth="yes"/>
      <point x="282" y="653"/>
      <point x="61" y="539"/>
      <point x="61" y="247" type="curve" smooth="yes"/>
      <point x="61" y="57"/>
      <point x="173" y="-3"/>
      <point x="279" y="-3" type="curve" smooth="yes"/>
      <point x="333" y="-3"/>
      <point x="480" y="40"/>
      <point x="480" y="242" type="curve" smooth="yes"/>
      <point x="480" y="375"/>
      <point x="394" y="444"/>
      <point x="289" y="444" type="curve" smooth="yes"/>
      <point x="226" y="444"/>
      <point x="176" y="424"/>
      <point x="139" y="402" type="curve"/>
      <point x="174" y="501"/>
      <point x="258" y="583"/>
      <point x="357" y="631" type="curve" smooth="yes"/>
      <point x="366" y="635"/>
      <point x="372" y="644"/>
      <point x="372" y="655" type="curve" smooth="yes"/>
      <point x="372" y="670"/>
      <point x="361" y="681"/>
      <point x="346" y="681" type="curve" smooth="yes"/>
      <point x="339" y="681"/>
      <point x="334" y="679"/>
    </contour>
  </outline>
</glyph>
<glyph name="colon" format="1">
  <advance width="235"/>
  <unicode hex="003A"/>
  <outline>
    <contour>
      <point x="99" y="0" type="curve" smooth="yes"/>
      <point x="80" y="0"/>
      <point x="67" y="17"/>
      <point x="67" y="38" type="curve" smooth="yes"/>
      <point x="67" y="61"/>
      <point x="86" y="83"/>
      <point x="107" y="83" type="curve" smooth="yes"/>
      <point x="125" y="83"/>
      <point x="139" y="67"/>
      <point x="139" y="47" type="curve" smooth="yes"/>
      <point x="139" y="21"/>
      <point x="120" y="0"/>
    </contour>
    <contour>
      <point x="128" y="358" type="curve" smooth="yes"/>
      <point x="109" y="358"/>
      <point x="96" y="375"/>
      <point x="96" y="396" type="curve" smooth="yes"/>
      <point x="96" y="419"/>
      <point x="115" y="441"/>
      <point x="136" y="441" type="curve" smooth="yes"/>
      <point x="154" y="441"/>
      <point x="168" y="425"/>
      <point x="168" y="405" type="curve" smooth="yes"/>
      <point x="168" y="379"/>
      <point x="149" y="358"/>
    </contour>
  </outline>
</glyph>
<glyph name="semicolon" format="1">
  <advance width="271"/>
  <unicode hex="003B"/>
  <outline>
    <contour>
      <point x="168" y="358" type="curve" smooth="yes"/>
      <point x="189" y="358"/>
      <point x="208" y="379"/>
      <point x="208" y="405" type="curve" smooth="yes"/>
      <point x="208" y="425"/>
      <point x="194" y="441"/>
      <point x="176" y="441" type="curve" smooth="yes"/>
      <point x="155" y="441"/>
      <point x="136" y="419"/>
      <point x="136" y="396" type="curve" smooth="yes"/>
      <point x="136" y="375"/>
      <point x="149" y="358"/>
    </contour>
    <contour>
      <point x="140" y="77" type="curve" smooth="yes"/>
      <point x="119" y="77"/>
      <point x="100" y="56"/>
      <point x="100" y="32" type="curve" smooth="yes"/>
      <point x="100" y="20"/>
      <point x="105" y="9"/>
      <point x="112" y="2" type="curve"/>
      <point x="88" y="-62" type="line" smooth="yes"/>
      <point x="87" y="-65"/>
      <point x="86" y="-68"/>
      <point x="86" y="-71" type="curve" smooth="yes"/>
      <point x="86" y="-83"/>
      <point x="96" y="-93"/>
      <point x="109" y="-93" type="curve" smooth="yes"/>
      <point x="128" y="-93"/>
      <point x="129" y="-77"/>
      <point x="153" y="-19" type="curve" smooth="yes"/>
      <point x="168" y="17"/>
      <point x="172" y="26"/>
      <point x="172" y="45" type="curve" smooth="yes"/>
      <point x="172" y="60"/>
      <point x="158" y="77"/>
    </contour>
  </outline>
</glyph>
<glyph name="equal" format="1">
  <advance width="493"/>
  <unicode hex="003D"/>
  <outline>
    <contour>
      <point x="390" y="299" type="curve" smooth="yes"/>
      <point x="104" y="299" type="line" smooth="yes"/>
      <point x="89" y="299"/>
      <point x="77" y="311"/>
      <point x="77" y="326" type="curve" smooth="yes"/>
      <point x="77" y="341"/>
      <point x="89" y="354"/>
      <point x="104" y="354" type="curve" smooth="yes"/>
      <point x="390" y="354" type="line" smooth="yes"/>
      <point x="405" y="354"/>
      <point x="418" y="341"/>
      <point x="418" y="326" type="curve" smooth="yes"/>
      <point x="418" y="311"/>
      <point x="405" y="299"/>
    </contour>
    <contour>
      <point x="390" y="145" type="curve" smooth="yes"/>
      <point x="104" y="145" type="line" smooth="yes"/>
      <point x="89" y="145"/>
      <point x="77" y="157"/>
      <point x="77" y="172" type="curve" smooth="yes"/>
      <point x="77" y="187"/>
      <point x="89" y="200"/>
      <point x="104" y="200" type="curve" smooth="yes"/>
      <point x="390" y="200" type="line" smooth="yes"/>
      <point x="405" y="200"/>
      <point x="418" y="187"/>
      <point x="418" y="172" type="curve" smooth="yes"/>
      <point x="418" y="157"/>
      <point x="405" y="145"/>
    </contour>
  </outline>
</glyph>
<glyph name="B" format="1">
  <advance width="603"/>
  <unicode hex="0042"/>
  <outline>
    <contour>
      <point x="104" y="-2" type="curve" smooth="yes"/>
      <point x="408" y="-2"/>
      <point x="553" y="74"/>
      <point x="553" y="204" type="curve" smooth="yes"/>
      <point x="553" y="286"/>
      <point x="507" y="341"/>
      <point x="424" y="370" type="curve"/>
      <point x="459" y="395"/>
      <point x="494" y="439"/>
      <point x="494" y="513" type="curve" smooth="yes"/>
      <point x="494" y="543"/>
      <point x="472" y="681"/>
      <point x="275" y="681" type="curve" smooth="yes"/>
      <point x="93" y="681" type="line" smooth="yes"/>
      <point x="78" y="681"/>
      <point x="65" y="668"/>
      <point x="65" y="653" type="curve" smooth="yes"/>
      <point x="65" y="32" type="line" smooth="yes"/>
      <point x="65" y="4"/>
      <point x="81" y="-2"/>
    </contour>
    <contour>
      <point x="122" y="330" type="line"/>
      <point x="328" y="330" type="line" smooth="yes"/>
      <point x="404" y="330"/>
      <point x="497" y="294"/>
      <point x="497" y="204" type="curve" smooth="yes"/>
      <point x="497" y="99"/>
      <point x="325" y="54"/>
      <point x="122" y="54" type="curve"/>
    </contour>
    <contour>
      <point x="122" y="624" type="line"/>
      <point x="275" y="624" type="line" smooth="yes"/>
      <point x="427" y="624"/>
      <point x="438" y="528"/>
      <point x="438" y="510" type="curve" smooth="yes"/>
      <point x="438" y="448"/>
      <point x="387" y="387"/>
      <point x="318" y="387" type="curve" smooth="yes"/>
      <point x="122" y="387" type="line"/>
    </contour>
  </outline>
</glyph>
<glyph name="D" format="1">
  <advance width="620"/>
  <unicode hex="0044"/>
  <outline>
    <contour>
      <point x="210" y="-20" type="curve" smooth="yes"/>
      <point x="151" y="-20"/>
      <point x="95" y="-5"/>
      <point x="87" y="-3" type="curve" smooth="yes"/>
      <point x="74" y="0"/>
      <point x="65" y="12"/>
      <point x="65" y="25" type="curve" smooth="yes"/>
      <point x="65" y="653" type="line" smooth="yes"/>
      <point x="65" y="669"/>
      <point x="78" y="681"/>
      <point x="94" y="681" type="curve" smooth="yes"/>
      <point x="257" y="681"/>
      <point x="560" y="626"/>
      <point x="560" y="300" type="curve" smooth="yes"/>
      <point x="560" y="77"/>
      <point x="403" y="-20"/>
    </contour>
    <contour>
      <point x="122" y="624" type="curve"/>
      <point x="122" y="48" type="line"/>
      <point x="144" y="43"/>
      <point x="178" y="37"/>
      <point x="210" y="37" type="curve" smooth="yes"/>
      <point x="388" y="37"/>
      <point x="503" y="123"/>
      <point x="503" y="300" type="curve" smooth="yes"/>
      <point x="503" y="532"/>
      <point x="325" y="615"/>
    </contour>
  </outline>
</glyph>
<glyph name="E" format="1">
  <advance width="610"/>
  <unicode hex="0045"/>
  <outline>
    <contour>
      <point x="122" y="57" type="line"/>
      <point x="122" y="324" type="line"/>
      <point x="473" y="324" type="line" smooth="yes"/>
      <point x="489" y="324"/>
      <point x="501" y="337"/>
      <point x="501" y="353" type="curve" smooth="yes"/>
      <point x="501" y="369"/>
      <point x="489" y="381"/>
      <point x="473" y="381" type="curve" smooth="yes"/>
      <point x="122" y="381" type="line"/>
      <point x="122" y="625" type="line"/>
      <point x="522" y="625" type="line" smooth="yes"/>
      <point x="538" y="625"/>
      <point x="550" y="638"/>
      <point x="550" y="654" type="curve" smooth="yes"/>
      <point x="550" y="670"/>
      <point x="538" y="682"/>
      <point x="522" y="682" type="curve" smooth="yes"/>
      <point x="94" y="682" type="line" smooth="yes"/>
      <point x="78" y="682"/>
      <point x="65" y="670"/>
      <point x="65" y="654" type="curve" smooth="yes"/>
      <point x="65" y="29" type="line" smooth="yes"/>
      <point x="65" y="13"/>
      <point x="78" y="0"/>
      <point x="94" y="0" type="curve" smooth="yes"/>
      <point x="520" y="0" type="line" smooth="yes"/>
      <point x="536" y="0"/>
      <point x="548" y="13"/>
      <point x="548" y="29" type="curve" smooth="yes"/>
      <point x="548" y="45"/>
      <point x="536" y="57"/>
      <point x="520" y="57" type="curve" smooth="yes"/>
    </contour>
  </outline>
</glyph>
<glyph name="H" format="1">
  <advance width="685"/>
  <unicode hex="0048"/>
  <outline>
    <contour>
      <point x="592" y="681" type="curve" smooth="yes"/>
      <point x="607" y="681"/>
      <point x="620" y="669"/>
      <point x="620" y="653" type="curve" smooth="yes"/>
      <point x="620" y="28" type="line" smooth="yes"/>
      <point x="620" y="13"/>
      <point x="607" y="0"/>
      <point x="592" y="0" type="curve" smooth="yes"/>
      <point x="576" y="0"/>
      <point x="563" y="13"/>
      <point x="563" y="28" type="curve" smooth="yes"/>
      <point x="563" y="349" type="line"/>
      <point x="122" y="288" type="line"/>
      <point x="122" y="28" type="line" smooth="yes"/>
      <point x="122" y="13"/>
      <point x="109" y="0"/>
      <point x="93" y="0" type="curve" smooth="yes"/>
      <point x="77" y="0"/>
      <point x="65" y="13"/>
      <point x="65" y="28" type="curve" smooth="yes"/>
      <point x="65" y="653" type="line" smooth="yes"/>
      <point x="65" y="669"/>
      <point x="77" y="681"/>
      <point x="93" y="681" type="curve" smooth="yes"/>
      <point x="109" y="681"/>
      <point x="122" y="669"/>
      <point x="122" y="653" type="curve" smooth="yes"/>
      <point x="122" y="346" type="line"/>
      <point x="563" y="407" type="line"/>
      <point x="563" y="653" type="line" smooth="yes"/>
      <point x="563" y="669"/>
      <point x="576" y="681"/>
    </contour>
  </outline>
</glyph>
<glyph name="J" format="1">
  <advance width="472"/>
  <unicode hex="004A"/>
  <outline>
    <contour>
      <point x="219" y="677" type="line" smooth="yes"/>
      <point x="203" y="677"/>
      <point x="190" y="664"/>
      <point x="190" y="649" type="curve" smooth="yes"/>
      <point x="190" y="633"/>
      <point x="203" y="620"/>
      <point x="219" y="620" type="curve" smooth="yes"/>
      <point x="342" y="620" type="line"/>
      <point x="342" y="159" type="line" smooth="yes"/>
      <point x="342" y="128"/>
      <point x="331" y="57"/>
      <point x="228" y="57" type="curve" smooth="yes"/>
      <point x="112" y="57"/>
      <point x="107" y="150"/>
      <point x="107" y="171" type="curve" smooth="yes"/>
      <point x="107" y="187"/>
      <point x="95" y="200"/>
      <point x="79" y="200" type="curve" smooth="yes"/>
      <point x="61" y="200"/>
      <point x="50" y="186"/>
      <point x="50" y="169" type="curve" smooth="yes"/>
      <point x="50" y="128"/>
      <point x="71" y="0"/>
      <point x="228" y="0" type="curve" smooth="yes"/>
      <point x="354" y="0"/>
      <point x="399" y="86"/>
      <point x="399" y="159" type="curve" smooth="yes"/>
      <point x="399" y="620" type="line"/>
      <point x="424" y="620" type="line" smooth="yes"/>
      <point x="439" y="620"/>
      <point x="452" y="633"/>
      <point x="452" y="649" type="curve" smooth="yes"/>
      <point x="452" y="664"/>
      <point x="439" y="677"/>
      <point x="424" y="677" type="curve" smooth="yes"/>
    </contour>
  </outline>
</glyph>
<glyph name="K" format="1">
  <advance width="570"/>
  <unicode hex="004B"/>
  <outline>
    <contour>
      <point x="141" y="335" type="line"/>
      <point x="490" y="633" type="line" smooth="yes"/>
      <point x="496" y="638"/>
      <point x="499" y="646"/>
      <point x="499" y="654" type="curve" smooth="yes"/>
      <point x="499" y="668"/>
      <point x="486" y="682"/>
      <point x="472" y="682" type="curve" smooth="yes"/>
      <point x="465" y="682"/>
      <point x="459" y="679"/>
      <point x="454" y="675" type="curve" smooth="yes"/>
      <point x="120" y="389" type="line"/>
      <point x="120" y="654" type="line" smooth="yes"/>
      <point x="120" y="669"/>
      <point x="107" y="681"/>
      <point x="92" y="681" type="curve" smooth="yes"/>
      <point x="77" y="681"/>
      <point x="65" y="669"/>
      <point x="65" y="654" type="curve" smooth="yes"/>
      <point x="65" y="28" type="line" smooth="yes"/>
      <point x="65" y="13"/>
      <point x="77" y="0"/>
      <point x="92" y="0" type="curve" smooth="yes"/>
      <point x="107" y="0"/>
      <point x="120" y="13"/>
      <point x="120" y="28" type="curve" smooth="yes"/>
      <point x="120" y="282" type="line"/>
      <point x="475" y="5" type="line" smooth="yes"/>
      <point x="480" y="1"/>
      <point x="486" y="-1"/>
      <point x="492" y="-1" type="curve" smooth="yes"/>
      <point x="507" y="-1"/>
      <point x="519" y="11"/>
      <point x="519" y="27" type="curve" smooth="yes"/>
      <point x="519" y="35"/>
      <point x="517" y="42"/>
      <point x="509" y="49" type="curve" smooth="yes"/>
    </contour>
  </outline>
</glyph>
<glyph name="L" format="1">
  <advance width="477"/>
  <unicode hex="004C"/>
  <outline>
    <contour>
      <point x="440" y="24" type="curve" smooth="yes"/>
      <point x="94" y="0" type="line" smooth="yes"/>
      <point x="93.492" y="-0.03387"/>
      <point x="92.9851" y="-0.05053"/>
      <point x="92.4799" y="-0.05053" type="curve" smooth="yes"/>
      <point x="78.0677" y="-0.05053"/>
      <point x="65" y="13.508"/>
      <point x="65" y="28" type="curve" smooth="yes"/>
      <point x="65" y="653" type="line" smooth="yes"/>
      <point x="65" y="668"/>
      <point x="77" y="681"/>
      <point x="93" y="681" type="curve" smooth="yes"/>
      <point x="108" y="681"/>
      <point x="121" y="668"/>
      <point x="121" y="653" type="curve" smooth="yes"/>
      <point x="121" y="58" type="line"/>
      <point x="436" y="80" type="line" smooth="yes"/>
      <point x="436.715" y="80.042"/>
      <point x="437.422" y="80.0629"/>
      <point x="438.122" y="80.0629" type="curve" smooth="yes"/>
      <point x="454.07" y="80.0629"/>
      <point x="466" y="69.2434"/>
      <point x="466" y="52" type="curve" smooth="yes"/>
      <point x="466" y="38"/>
      <point x="455" y="25"/>
    </contour>
  </outline>
</glyph>
<glyph name="N" format="1">
  <advance width="619"/>
  <unicode hex="004E"/>
  <outline>
    <contour>
      <point x="526" y="0" type="curve" smooth="yes"/>
      <point x="542" y="0"/>
      <point x="554" y="13"/>
      <point x="554" y="28" type="curve" smooth="yes"/>
      <point x="554" y="654" type="line" smooth="yes"/>
      <point x="554" y="669"/>
      <point x="541" y="682"/>
      <point x="526" y="682" type="curve" smooth="yes"/>
      <point x="510" y="682"/>
      <point x="498" y="669"/>
      <point x="498" y="654" type="curve" smooth="yes"/>
      <point x="498" y="117" type="line"/>
      <point x="117" y="669" type="line" smooth="yes"/>
      <point x="111" y="677"/>
      <point x="102" y="681"/>
      <point x="93" y="681" type="curve" smooth="yes"/>
      <point x="77" y="681"/>
      <point x="66" y="667"/>
      <point x="66" y="653" type="curve" smooth="yes"/>
      <point x="65" y="28" type="line" smooth="yes"/>
      <point x="65" y="13"/>
      <point x="78" y="0"/>
      <point x="93" y="0" type="curve" smooth="yes"/>
      <point x="109" y="0"/>
      <point x="121" y="12"/>
      <point x="121" y="28" type="curve" smooth="yes"/>
      <point x="122" y="563" type="line"/>
      <point x="503" y="12" type="line" smooth="yes"/>
      <point x="508" y="4"/>
      <point x="517" y="0"/>
    </contour>
  </outline>
</glyph>
<glyph name="O" format="1">
  <advance width="660"/>
  <unicode hex="004F"/>
  <outline>
    <contour>
      <point x="309" y="-2" type="curve" smooth="yes"/>
      <point x="465" y="-2"/>
      <point x="600" y="167"/>
      <point x="600" y="367" type="curve" smooth="yes"/>
      <point x="600" y="539"/>
      <point x="495" y="682"/>
      <point x="351" y="682" type="curve" smooth="yes"/>
      <point x="195" y="682"/>
      <point x="60" y="513"/>
      <point x="60" y="313" type="curve" smooth="yes"/>
      <point x="60" y="143"/>
      <point x="164" y="-2"/>
    </contour>
    <contour>
      <point x="344" y="630" type="curve" smooth="yes"/>
      <point x="463" y="630"/>
      <point x="547" y="498"/>
      <point x="547" y="363" type="curve" smooth="yes"/>
      <point x="547" y="193"/>
      <point x="432" y="50"/>
      <point x="309" y="50" type="curve" smooth="yes"/>
      <point x="195" y="50"/>
      <point x="113" y="169"/>
      <point x="113" y="313" type="curve" smooth="yes"/>
      <point x="113" y="489"/>
      <point x="221" y="630"/>
    </contour>
  </outline>
</glyph>
<glyph name="P" format="1">
  <advance width="547"/>
  <unicode hex="0050"/>
  <outline>
    <contour>
      <point x="93" y="0" type="curve" smooth="yes"/>
      <point x="78" y="0"/>
      <point x="65" y="12"/>
      <point x="65" y="28" type="curve" smooth="yes"/>
      <point x="65" y="641" type="line" smooth="yes"/>
      <point x="65" y="671"/>
      <point x="67" y="682"/>
      <point x="144" y="682" type="curve" smooth="yes"/>
      <point x="396" y="682"/>
      <point x="517" y="608"/>
      <point x="517" y="477" type="curve" smooth="yes"/>
      <point x="517" y="291"/>
      <point x="261" y="239"/>
      <point x="121" y="239" type="curve"/>
      <point x="121" y="28" type="line" smooth="yes"/>
      <point x="121" y="12"/>
      <point x="109" y="0"/>
    </contour>
    <contour>
      <point x="121" y="625" type="curve"/>
      <point x="121" y="295" type="line"/>
      <point x="207" y="295"/>
      <point x="461" y="322"/>
      <point x="461" y="477" type="curve" smooth="yes"/>
      <point x="461" y="573"/>
      <point x="353" y="626"/>
      <point x="161" y="626" type="curve" smooth="yes"/>
      <point x="148" y="626"/>
      <point x="130" y="626"/>
    </contour>
  </outline>
</glyph>
<glyph name="R" format="1">
  <advance width="597"/>
  <unicode hex="0052"/>
  <outline>
    <contour>
      <point x="543" y="41" type="curve" smooth="yes"/>
      <point x="545" y="37"/>
      <point x="546" y="32"/>
      <point x="546" y="28" type="curve" smooth="yes"/>
      <point x="546" y="14"/>
      <point x="535" y="0"/>
      <point x="518" y="0" type="curve" smooth="yes"/>
      <point x="508" y="0"/>
      <point x="499" y="6"/>
      <point x="493" y="16" type="curve" smooth="yes"/>
      <point x="362" y="242"/>
      <point x="260" y="250"/>
      <point x="217" y="250" type="curve" smooth="yes"/>
      <point x="198" y="250"/>
      <point x="155" y="246"/>
      <point x="121" y="241" type="curve"/>
      <point x="121" y="28" type="line" smooth="yes"/>
      <point x="121" y="12"/>
      <point x="108" y="0"/>
      <point x="93" y="0" type="curve" smooth="yes"/>
      <point x="77" y="0"/>
      <point x="65" y="12"/>
      <point x="65" y="28" type="curve" smooth="yes"/>
      <point x="65" y="648" type="line" smooth="yes"/>
      <point x="65" y="687.093"/>
      <point x="79.5462" y="688.002"/>
      <point x="158.049" y="688.002" type="curve" smooth="yes"/>
      <point x="161.879" y="688.002"/>
      <point x="165.86" y="688"/>
      <point x="170" y="688" type="curve" smooth="yes"/>
      <point x="395" y="688"/>
      <point x="521" y="611"/>
      <point x="521" y="478" type="curve" smooth="yes"/>
      <point x="521" y="366"/>
      <point x="427" y="308"/>
      <point x="333" y="276" type="curve"/>
      <point x="377" y="250"/>
      <point x="476" y="173"/>
    </contour>
    <contour>
      <point x="121" y="631" type="curve"/>
      <point x="121" y="297" type="line"/>
      <point x="265" y="300"/>
      <point x="465" y="349"/>
      <point x="465" y="478" type="curve" smooth="yes"/>
      <point x="465" y="580"/>
      <point x="355" y="632"/>
      <point x="167" y="632" type="curve" smooth="yes"/>
      <point x="157" y="632"/>
      <point x="136" y="632"/>
    </contour>
  </outline>
</glyph>
<glyph name="S" format="1">
  <advance width="598"/>
  <unicode hex="0053"/>
  <outline>
    <contour>
      <point x="318" y="388" type="curve" smooth="yes"/>
      <point x="465" y="347"/>
      <point x="537" y="283"/>
      <point x="537" y="191" type="curve" smooth="yes"/>
      <point x="537" y="60"/>
      <point x="407" y="0"/>
      <point x="304" y="0" type="curve" smooth="yes"/>
      <point x="191" y="0"/>
      <point x="97" y="58"/>
      <point x="64" y="140" type="curve" smooth="yes"/>
      <point x="62" y="144"/>
      <point x="60" y="152"/>
      <point x="60" y="157" type="curve" smooth="yes"/>
      <point x="60" y="173"/>
      <point x="73" y="186"/>
      <point x="90" y="186" type="curve" smooth="yes"/>
      <point x="105" y="186"/>
      <point x="115" y="177"/>
      <point x="120" y="163" type="curve" smooth="yes"/>
      <point x="146" y="87"/>
      <point x="232" y="53"/>
      <point x="303" y="53" type="curve" smooth="yes"/>
      <point x="378" y="53"/>
      <point x="474" y="93"/>
      <point x="474" y="198" type="curve" smooth="yes"/>
      <point x="474" y="228"/>
      <point x="463" y="288"/>
      <point x="305" y="331" type="curve" smooth="yes"/>
      <point x="208" y="357"/>
      <point x="95" y="409"/>
      <point x="95" y="509" type="curve" smooth="yes"/>
      <point x="95" y="640"/>
      <point x="213" y="682"/>
      <point x="327" y="682" type="curve" smooth="yes"/>
      <point x="396.488" y="682"/>
      <point x="534.058" y="661.7"/>
      <point x="534.058" y="546.03" type="curve" smooth="yes"/>
      <point x="534.058" y="530.006"/>
      <point x="522.376" y="518"/>
      <point x="507" y="518" type="curve" smooth="yes"/>
      <point x="493" y="518"/>
      <point x="481" y="529"/>
      <point x="480" y="542" type="curve" smooth="yes"/>
      <point x="473" y="604"/>
      <point x="396" y="632"/>
      <point x="324" y="632" type="curve" smooth="yes"/>
      <point x="237" y="632"/>
      <point x="159" y="602"/>
      <point x="159" y="506" type="curve" smooth="yes"/>
      <point x="159" y="456"/>
      <point x="213" y="417"/>
    </contour>
  </outline>
</glyph>
<glyph name="X" format="1">
  <advance width="681"/>
  <unicode hex="0058"/>
  <outline>
    <contour>
      <point x="381" y="345" type="line"/>
      <point x="624" y="635" type="line" smooth="yes"/>
      <point x="628" y="640"/>
      <point x="631" y="647"/>
      <point x="631" y="654" type="curve" smooth="yes"/>
      <point x="631" y="668"/>
      <point x="618" y="681"/>
      <point x="603" y="681" type="curve" smooth="yes"/>
      <point x="595" y="681"/>
      <point x="587" y="678"/>
      <point x="581" y="671" type="curve" smooth="yes"/>
      <point x="345" y="390" type="line"/>
      <point x="122" y="671" type="line" smooth="yes"/>
      <point x="116" y="678"/>
      <point x="108" y="681"/>
      <point x="100" y="681" type="curve" smooth="yes"/>
      <point x="85" y="681"/>
      <point x="71" y="669"/>
      <point x="71" y="654" type="curve" smooth="yes"/>
      <point x="71" y="647"/>
      <point x="74" y="641"/>
      <point x="78" y="636" type="curve" smooth="yes"/>
      <point x="309" y="346" type="line"/>
      <point x="57" y="46" type="line" smooth="yes"/>
      <point x="53" y="41"/>
      <point x="50" y="34"/>
      <point x="50" y="28" type="curve" smooth="yes"/>
      <point x="50" y="14"/>
      <point x="62" y="0"/>
      <point x="79" y="0" type="curve" smooth="yes"/>
      <point x="87" y="0"/>
      <point x="95" y="3"/>
      <point x="100" y="10" type="curve" smooth="yes"/>
      <point x="344" y="301" type="line"/>
      <point x="576" y="10" type="line" smooth="yes"/>
      <point x="582" y="3"/>
      <point x="590" y="0"/>
      <point x="598" y="0" type="curve" smooth="yes"/>
      <point x="613" y="0"/>
      <point x="625" y="13"/>
      <point x="625" y="28" type="curve" smooth="yes"/>
      <point x="625" y="34"/>
      <point x="624" y="40"/>
      <point x="620" y="45" type="curve" smooth="yes"/>
    </contour>
  </outline>
</glyph>
<glyph name="Y" format="1">
  <advance width="593"/>
  <unicode hex="0059"/>
  <outline>
    <contour>
      <point x="564" y="681" type="curve" smooth="yes"/>
      <point x="554" y="681"/>
      <point x="545" y="676"/>
      <point x="540" y="667" type="curve" smooth="yes"/>
      <point x="304" y="269" type="line"/>
      <point x="72" y="667" type="line" smooth="yes"/>
      <point x="67" y="676"/>
      <point x="58" y="681"/>
      <point x="49" y="681" type="curve" smooth="yes"/>
      <point x="33" y="681"/>
      <point x="20" y="668"/>
      <point x="20" y="653" type="curve" smooth="yes"/>
      <point x="20" y="648"/>
      <point x="22" y="642"/>
      <point x="26" y="635" type="curve" smooth="yes"/>
      <point x="271" y="214" type="line"/>
      <point x="171" y="46" type="line" smooth="yes"/>
      <point x="168" y="41"/>
      <point x="165" y="34"/>
      <point x="165" y="28" type="curve" smooth="yes"/>
      <point x="165" y="14"/>
      <point x="177" y="0"/>
      <point x="193" y="0" type="curve" smooth="yes"/>
      <point x="203" y="0"/>
      <point x="212" y="5"/>
      <point x="217" y="14" type="curve" smooth="yes"/>
      <point x="584" y="632" type="line" smooth="yes"/>
      <point x="591" y="644"/>
      <point x="592" y="648"/>
      <point x="592" y="653" type="curve" smooth="yes"/>
      <point x="592" y="669"/>
      <point x="578" y="681"/>
    </contour>
  </outline>
</glyph>
<glyph name="bracketright" format="1">
  <advance width="315"/>
  <unicode hex="005D"/>
  <outline>
    <contour>
      <point x="105" y="806" type="curve" smooth="yes"/>
      <point x="226" y="806" type="line" smooth="yes"/>
      <point x="242" y="806"/>
      <point x="254" y="794"/>
      <point x="254" y="778" type="curve" smooth="yes"/>
      <point x="254" y="-96" type="line" smooth="yes"/>
      <point x="254" y="-111"/>
      <point x="242" y="-124"/>
      <point x="226" y="-124" type="curve" smooth="yes"/>
      <point x="89" y="-124" type="line" smooth="yes"/>
      <point x="74" y="-124"/>
      <point x="61" y="-111"/>
      <point x="61" y="-96" type="curve" smooth="yes"/>
      <point x="61" y="-80"/>
      <point x="74" y="-68"/>
      <point x="89" y="-68" type="curve" smooth="yes"/>
      <point x="198" y="-68" type="line"/>
      <point x="198" y="750" type="line"/>
      <point x="105" y="750" type="line" smooth="yes"/>
      <point x="90" y="750"/>
      <point x="77" y="763"/>
      <point x="77" y="778" type="curve" smooth="yes"/>
      <point x="77" y="794"/>
      <point x="90" y="806"/>
    </contour>
  </outline>
</glyph>
<glyph name="asciicircum" format="1">
  <advance width="500"/>
  <unicode hex="005E"/>
  <outline>
    <contour>
      <point x="292" y="641" type="line" smooth="yes"/>
      <point x="285" y="654"/>
      <point x="274" y="663"/>
      <point x="260" y="663" type="curve" smooth="yes"/>
      <point x="246" y="663"/>
      <point x="235" y="654"/>
      <point x="228" y="643" type="curve" smooth="yes"/>
      <point x="104" y="436" type="line" smooth="yes"/>
      <point x="101" y="432"/>
      <point x="100" y="427"/>
      <point x="100" y="422" type="curve" smooth="yes"/>
      <point x="100" y="407"/>
      <point x="112" y="395"/>
      <point x="127" y="395" type="curve" smooth="yes"/>
      <point x="138" y="395"/>
      <point x="147" y="401"/>
      <point x="152" y="411" type="curve"/>
      <point x="152" y="411"/>
      <point x="259" y="582"/>
      <point x="259" y="582" type="curve"/>
      <point x="348" y="409" type="line" smooth="yes"/>
      <point x="352" y="401"/>
      <point x="362" y="395"/>
      <point x="372" y="395" type="curve" smooth="yes"/>
      <point x="387" y="395"/>
      <point x="399" y="407"/>
      <point x="399" y="422" type="curve" smooth="yes"/>
      <point x="399" y="426"/>
      <point x="398" y="432"/>
      <point x="395" y="438" type="curve" smooth="yes"/>
    </contour>
  </outline>
</glyph>
<glyph name="underscore" format="1">
  <advance width="490"/>
  <unicode hex="005F"/>
  <outline>
    <contour>
      <point x="490" y="-56" type="curve"/>
      <point x="0" y="-56" type="line" smooth="yes"/>
      <point x="-16" y="-56"/>
      <point x="-28" y="-44"/>
      <point x="-28" y="-28" type="curve" smooth="yes"/>
      <point x="-28" y="-13"/>
      <point x="-16" y="0"/>
      <point x="0" y="0" type="curve" smooth="yes"/>
      <point x="490" y="0" type="line" smooth="yes"/>
      <point x="505" y="0"/>
      <point x="518" y="-13"/>
      <point x="518" y="-28" type="curve" smooth="yes"/>
      <point x="518" y="-44"/>
      <point x="505" y="-56"/>
    </contour>
  </outline>
</glyph>
<glyph name="grave" format="1">
  <advance width="500"/>
  <unicode hex="0060"/>
  <outline>
    <contour>
      <point x="291" y="583" type="line" smooth="yes"/>
      <point x="296" y="578"/>
      <point x="302" y="574"/>
      <point x="310" y="574" type="curve" smooth="yes"/>
      <point x="324" y="574"/>
      <point x="338" y="585"/>
      <point x="338" y="600" type="curve" smooth="yes"/>
      <point x="338" y="606"/>
      <point x="336" y="611"/>
      <point x="331" y="618" type="curve" smooth="yes"/>
      <point x="226" y="748" type="line" smooth="yes"/>
      <point x="219" y="756"/>
      <point x="208" y="763"/>
      <point x="197" y="763" type="curve" smooth="yes"/>
      <point x="179" y="763"/>
      <point x="162" y="747"/>
      <point x="162" y="729" type="curve" smooth="yes"/>
      <point x="162" y="719"/>
      <point x="166" y="711"/>
      <point x="173" y="704" type="curve" smooth="yes"/>
    </contour>
  </outline>
</glyph>
<glyph name="a" format="1">
  <advance width="505"/>
  <unicode hex="0061"/>
  <outline>
    <contour>
      <point x="440" y="473" type="line"/>
      <point x="425" y="481"/>
      <point x="363" y="514"/>
      <point x="289" y="514" type="curve" smooth="yes"/>
      <point x="115" y="514"/>
      <point x="50" y="328"/>
      <point x="50" y="224" type="curve" smooth="yes"/>
      <point x="50" y="95"/>
      <point x="130" y="8"/>
      <point x="238" y="8" type="curve" smooth="yes"/>
      <point x="293" y="8"/>
      <point x="348" y="33"/>
      <point x="384" y="55" type="curve"/>
      <point x="384" y="32" type="line" smooth="yes"/>
      <point x="384" y="15"/>
      <point x="393" y="0"/>
      <point x="412" y="0" type="curve" smooth="yes"/>
      <point x="428" y="0"/>
      <point x="440" y="14"/>
      <point x="440" y="30" type="curve" smooth="yes"/>
    </contour>
    <contour>
      <point x="382" y="121" type="line"/>
      <point x="359" y="105"/>
      <point x="297" y="63"/>
      <point x="236" y="63" type="curve" smooth="yes"/>
      <point x="141" y="63"/>
      <point x="107" y="156"/>
      <point x="107" y="226" type="curve" smooth="yes"/>
      <point x="107" y="309"/>
      <point x="155" y="459"/>
      <point x="292" y="459" type="curve" smooth="yes"/>
      <point x="326" y="459"/>
      <point x="367" y="446"/>
      <point x="386" y="438" type="curve"/>
    </contour>
  </outline>
</glyph>
<glyph name="b" format="1">
  <advance width="524"/>
  <unicode hex="0062"/>
  <outline>
    <contour>
      <point x="300" y="491" type="curve" smooth="yes"/>
      <point x="231" y="491"/>
      <point x="163" y="460"/>
      <point x="120" y="410" type="curve"/>
      <point x="120" y="665" type="line" smooth="yes"/>
      <point x="120" y="680"/>
      <point x="107" y="690"/>
      <point x="93" y="690" type="curve" smooth="yes"/>
      <point x="78" y="690"/>
      <point x="65" y="680"/>
      <point x="65" y="665" type="curve" smooth="yes"/>
      <point x="65" y="26" type="line" smooth="yes"/>
      <point x="65" y="12"/>
      <point x="78" y="0"/>
      <point x="93" y="0" type="curve" smooth="yes"/>
      <point x="108" y="0"/>
      <point x="120" y="13"/>
      <point x="120" y="26" type="curve" smooth="yes"/>
      <point x="120" y="35" type="line"/>
      <point x="151" y="22"/>
      <point x="205" y="7"/>
      <point x="257" y="7" type="curve" smooth="yes"/>
      <point x="411" y="7"/>
      <point x="474" y="125"/>
      <point x="474" y="271" type="curve" smooth="yes"/>
      <point x="474" y="374"/>
      <point x="428" y="491"/>
    </contour>
    <contour>
      <point x="249" y="60" type="curve" smooth="yes"/>
      <point x="192" y="60"/>
      <point x="137" y="79"/>
      <point x="120" y="87" type="curve"/>
      <point x="120" y="294" type="line" smooth="yes"/>
      <point x="120" y="372"/>
      <point x="199" y="435"/>
      <point x="304" y="435" type="curve" smooth="yes"/>
      <point x="395" y="435"/>
      <point x="421" y="340"/>
      <point x="421" y="271" type="curve" smooth="yes"/>
      <point x="421" y="144"/>
      <point x="375" y="60"/>
    </contour>
  </outline>
</glyph>
<glyph name="c" format="1">
  <advance width="509"/>
  <unicode hex="0063"/>
  <outline>
    <contour>
      <point x="459" y="112" type="curve" smooth="yes"/>
      <point x="459" y="127"/>
      <point x="447" y="139"/>
      <point x="432" y="139" type="curve" smooth="yes"/>
      <point x="419" y="139"/>
      <point x="410" y="129"/>
      <point x="406" y="123" type="curve" smooth="yes"/>
      <point x="377" y="84"/>
      <point x="334" y="52"/>
      <point x="262" y="52" type="curve" smooth="yes"/>
      <point x="218" y="52"/>
      <point x="103" y="90"/>
      <point x="103" y="218" type="curve" smooth="yes"/>
      <point x="103" y="245"/>
      <point x="108" y="278"/>
      <point x="123" y="316" type="curve" smooth="yes"/>
      <point x="146" y="373"/>
      <point x="207" y="448"/>
      <point x="274" y="448" type="curve" smooth="yes"/>
      <point x="326" y="448"/>
      <point x="355" y="426"/>
      <point x="382" y="393" type="curve" smooth="yes"/>
      <point x="387" y="388"/>
      <point x="394" y="384"/>
      <point x="402" y="384" type="curve" smooth="yes"/>
      <point x="417" y="384"/>
      <point x="429" y="396"/>
      <point x="429" y="411" type="curve" smooth="yes"/>
      <point x="429" y="418"/>
      <point x="426" y="426"/>
      <point x="422" y="430" type="curve" smooth="yes"/>
      <point x="384" y="474"/>
      <point x="346" y="500"/>
      <point x="272" y="500" type="curve" smooth="yes"/>
      <point x="175" y="500"/>
      <point x="100" y="401"/>
      <point x="74" y="335" type="curve" smooth="yes"/>
      <point x="64" y="309"/>
      <point x="50" y="265"/>
      <point x="50" y="216" type="curve" smooth="yes"/>
      <point x="50" y="89"/>
      <point x="159" y="-6"/>
      <point x="277" y="0" type="curve" smooth="yes"/>
      <point x="351" y="3"/>
      <point x="418" y="43"/>
      <point x="451" y="93" type="curve" smooth="yes"/>
      <point x="455" y="99"/>
      <point x="459" y="105"/>
    </contour>
  </outline>
</glyph>
<glyph name="e" format="1">
  <advance width="521"/>
  <unicode hex="0065"/>
  <outline>
    <contour>
      <point x="471" y="90" type="curve" smooth="yes"/>
      <point x="471" y="105"/>
      <point x="460" y="116"/>
      <point x="445" y="116" type="curve" smooth="yes"/>
      <point x="438" y="116"/>
      <point x="431" y="113"/>
      <point x="427" y="108" type="curve" smooth="yes"/>
      <point x="400" y="77"/>
      <point x="342" y="52"/>
      <point x="299" y="52" type="curve" smooth="yes"/>
      <point x="218" y="52"/>
      <point x="159" y="86"/>
      <point x="122" y="155" type="curve"/>
      <point x="440" y="337" type="line" smooth="yes"/>
      <point x="456" y="346"/>
      <point x="462" y="355"/>
      <point x="462" y="366" type="curve" smooth="yes"/>
      <point x="462" y="409"/>
      <point x="404" y="499"/>
      <point x="275" y="499" type="curve" smooth="yes"/>
      <point x="139" y="499"/>
      <point x="51" y="376"/>
      <point x="51" y="238" type="curve" smooth="yes"/>
      <point x="51" y="114"/>
      <point x="147" y="0"/>
      <point x="300" y="0" type="curve" smooth="yes"/>
      <point x="361" y="0"/>
      <point x="429" y="32"/>
      <point x="464" y="72" type="curve" smooth="yes"/>
      <point x="468" y="76"/>
      <point x="471" y="83"/>
    </contour>
    <contour>
      <point x="275" y="446" type="curve" smooth="yes"/>
      <point x="350" y="446"/>
      <point x="390" y="420"/>
      <point x="408" y="373" type="curve"/>
      <point x="104" y="206" type="line"/>
      <point x="102" y="217"/>
      <point x="102" y="226"/>
      <point x="102" y="237" type="curve" smooth="yes"/>
      <point x="102" y="353"/>
      <point x="173" y="446"/>
    </contour>
  </outline>
</glyph>
<glyph name="j" format="1">
  <advance width="333"/>
  <unicode hex="006A"/>
  <outline>
    <contour>
      <point x="258" y="474" type="curve" smooth="yes"/>
      <point x="258" y="489"/>
      <point x="245" y="502"/>
      <point x="230" y="502" type="curve" smooth="yes"/>
      <point x="213" y="502"/>
      <point x="202" y="489"/>
      <point x="202" y="473" type="curve" smooth="yes"/>
      <point x="202" y="440"/>
      <point x="209" y="21"/>
      <point x="209" y="-7" type="curve" smooth="yes"/>
      <point x="209" y="-28"/>
      <point x="206" y="-130"/>
      <point x="144" y="-130" type="curve" smooth="yes"/>
      <point x="97" y="-130"/>
      <point x="63" y="-66"/>
      <point x="46" y="-21" type="curve" smooth="yes"/>
      <point x="42" y="-9"/>
      <point x="31" y="-1"/>
      <point x="19" y="-1" type="curve" smooth="yes"/>
      <point x="2" y="-1"/>
      <point x="-10" y="-14"/>
      <point x="-10" y="-28" type="curve" smooth="yes"/>
      <point x="-10" y="-31"/>
      <point x="-9" y="-35"/>
      <point x="-8" y="-38" type="curve" smooth="yes"/>
      <point x="-1" y="-58"/>
      <point x="47" y="-181"/>
      <point x="144" y="-181" type="curve" smooth="yes"/>
      <point x="244" y="-181"/>
      <point x="264" y="-66"/>
      <point x="264" y="-2" type="curve" smooth="yes"/>
      <point x="264" y="28"/>
      <point x="258" y="454"/>
    </contour>
    <contour>
      <point x="240" y="690" type="curve" smooth="yes"/>
      <point x="227" y="690"/>
      <point x="213" y="681"/>
      <point x="212" y="668" type="curve" smooth="yes"/>
      <point x="207" y="620" type="line" smooth="yes"/>
      <point x="206" y="608"/>
      <point x="218" y="593"/>
      <point x="233" y="593" type="curve" smooth="yes"/>
      <point x="246" y="593"/>
      <point x="260" y="602"/>
      <point x="262" y="615" type="curve" smooth="yes"/>
      <point x="267" y="658" type="line" smooth="yes"/>
      <point x="269" y="672"/>
      <point x="258" y="690"/>
    </contour>
  </outline>
</glyph>
<glyph name="l" format="1">
  <advance width="226"/>
  <unicode hex="006C"/>
  <outline>
    <contour>
      <point x="141" y="663" type="line" smooth="yes"/>
      <point x="141" y="678"/>
      <point x="128" y="690"/>
      <point x="113" y="690" type="curve" smooth="yes"/>
      <point x="97" y="690"/>
      <point x="85" y="678"/>
      <point x="85" y="663" type="curve" smooth="yes"/>
      <point x="85" y="25" type="line" smooth="yes"/>
      <point x="85" y="11"/>
      <point x="99" y="0"/>
      <point x="113" y="0" type="curve" smooth="yes"/>
      <point x="127" y="0"/>
      <point x="141" y="11"/>
      <point x="141" y="25" type="curve" smooth="yes"/>
    </contour>
  </outline>
</glyph>
<glyph name="m" format="1">
  <advance width="813"/>
  <unicode hex="006D"/>
  <outline>
    <contour>
      <point x="612" y="511" type="curve" smooth="yes"/>
      <point x="558" y="511"/>
      <point x="487" y="468"/>
      <point x="440" y="401" type="curve"/>
      <point x="420" y="490"/>
      <point x="362" y="511"/>
      <point x="312" y="511" type="curve" smooth="yes"/>
      <point x="244" y="511"/>
      <point x="174" y="436"/>
      <point x="121" y="362" type="curve"/>
      <point x="121" y="471" type="line" smooth="yes"/>
      <point x="121" y="486"/>
      <point x="109" y="499"/>
      <point x="93" y="499" type="curve" smooth="yes"/>
      <point x="78" y="499"/>
      <point x="65" y="486"/>
      <point x="65" y="471" type="curve" smooth="yes"/>
      <point x="65" y="27" type="line" smooth="yes"/>
      <point x="65" y="12"/>
      <point x="78" y="0"/>
      <point x="93" y="0" type="curve" smooth="yes"/>
      <point x="108" y="0"/>
      <point x="121" y="12"/>
      <point x="121" y="27" type="curve" smooth="yes"/>
      <point x="121" y="265" type="line"/>
      <point x="122" y="278"/>
      <point x="127" y="297"/>
      <point x="133" y="307" type="curve" smooth="yes"/>
      <point x="199" y="415"/>
      <point x="270" y="462"/>
      <point x="312" y="462" type="curve" smooth="yes"/>
      <point x="346" y="462"/>
      <point x="391" y="449"/>
      <point x="391" y="334" type="curve" smooth="yes"/>
      <point x="391" y="27" type="line" smooth="yes"/>
      <point x="391" y="12"/>
      <point x="404" y="0"/>
      <point x="419" y="0" type="curve" smooth="yes"/>
      <point x="435" y="0"/>
      <point x="447" y="12"/>
      <point x="447" y="27" type="curve" smooth="yes"/>
      <point x="447" y="283" type="line" smooth="yes"/>
      <point x="447" y="396"/>
      <point x="557" y="462"/>
      <point x="612" y="462" type="curve" smooth="yes"/>
      <point x="646" y="462"/>
      <point x="692" y="449"/>
      <point x="692" y="334" type="curve" smooth="yes"/>
      <point x="692" y="27" type="line" smooth="yes"/>
      <point x="692" y="12"/>
      <point x="705" y="0"/>
      <point x="720" y="0" type="curve" smooth="yes"/>
      <point x="735" y="0"/>
      <point x="748" y="12"/>
      <point x="748" y="27" type="curve" smooth="yes"/>
      <point x="748" y="327" type="line" smooth="yes"/>
      <point x="748" y="479"/>
      <point x="674" y="511"/>
    </contour>
  </outline>
</glyph>
<glyph name="n" format="1">
  <advance width="535"/>
  <unicode hex="006E"/>
  <outline>
    <contour>
      <point x="121" y="473" type="line" smooth="yes"/>
      <point x="121" y="488"/>
      <point x="108" y="500"/>
      <point x="93" y="500" type="curve" smooth="yes"/>
      <point x="78" y="500"/>
      <point x="65" y="488"/>
      <point x="65" y="473" type="curve" smooth="yes"/>
      <point x="65" y="26" type="line" smooth="yes"/>
      <point x="65" y="12"/>
      <point x="78" y="0"/>
      <point x="93" y="0" type="curve" smooth="yes"/>
      <point x="110" y="0"/>
      <point x="120" y="13"/>
      <point x="120" y="30" type="curve" smooth="yes"/>
      <point x="121" y="111" type="line" smooth="yes"/>
      <point x="122" y="181"/>
      <point x="141" y="264"/>
      <point x="175" y="326" type="curve" smooth="yes"/>
      <point x="228" y="424"/>
      <point x="281" y="445"/>
      <point x="325" y="445" type="curve" smooth="yes"/>
      <point x="430" y="445"/>
      <point x="411" y="305"/>
      <point x="416" y="28" type="curve" smooth="yes"/>
      <point x="416" y="13"/>
      <point x="428" y="0"/>
      <point x="443" y="0" type="curve" smooth="yes"/>
      <point x="459" y="0"/>
      <point x="469" y="13"/>
      <point x="469" y="29" type="curve" smooth="yes"/>
      <point x="473" y="351"/>
      <point x="472" y="499"/>
      <point x="328" y="499" type="curve" smooth="yes"/>
      <point x="222" y="499"/>
      <point x="141" y="406"/>
      <point x="121" y="292" type="curve"/>
    </contour>
  </outline>
</glyph>
<glyph name="q" format="1">
  <advance width="514"/>
  <unicode hex="0071"/>
  <outline>
    <contour>
      <point x="372" y="-158" type="line" smooth="yes"/>
      <point x="371" y="-173"/>
      <point x="382" y="-189"/>
      <point x="397" y="-189" type="curve" smooth="yes"/>
      <point x="413" y="-189"/>
      <point x="425" y="-180"/>
      <point x="426" y="-160" type="curve" smooth="yes"/>
      <point x="449" y="491" type="line" smooth="yes"/>
      <point x="450" y="506"/>
      <point x="437" y="518"/>
      <point x="422" y="518" type="curve" smooth="yes"/>
      <point x="407" y="518"/>
      <point x="395" y="506"/>
      <point x="395" y="491" type="curve" smooth="yes"/>
      <point x="395" y="482" type="line"/>
      <point x="368" y="487"/>
      <point x="344" y="489"/>
      <point x="321" y="489" type="curve" smooth="yes"/>
      <point x="159" y="489"/>
      <point x="50" y="381"/>
      <point x="50" y="211" type="curve" smooth="yes"/>
      <point x="50" y="88"/>
      <point x="134" y="-6"/>
      <point x="260" y="-6" type="curve" smooth="yes"/>
      <point x="355" y="-6"/>
      <point x="380" y="61"/>
      <point x="380" y="61" type="curve"/>
    </contour>
    <contour>
      <point x="251" y="44" type="curve" smooth="yes"/>
      <point x="168" y="44"/>
      <point x="100" y="112"/>
      <point x="100" y="209" type="curve" smooth="yes"/>
      <point x="100" y="356"/>
      <point x="191" y="439"/>
      <point x="321" y="439" type="curve" smooth="yes"/>
      <point x="343" y="439"/>
      <point x="367" y="437"/>
      <point x="393" y="433" type="curve"/>
      <point x="385" y="164" type="line" smooth="yes"/>
      <point x="383" y="87"/>
      <point x="330" y="44"/>
    </contour>
  </outline>
</glyph>
<glyph name="s" format="1">
  <advance width="458"/>
  <unicode hex="0073"/>
  <outline>
    <contour>
      <point x="233" y="-2" type="curve" smooth="yes"/>
      <point x="338" y="-2"/>
      <point x="404" y="72"/>
      <point x="404" y="139" type="curve" smooth="yes"/>
      <point x="404" y="239"/>
      <point x="332" y="261"/>
      <point x="239" y="291" type="curve" smooth="yes"/>
      <point x="199" y="303"/>
      <point x="132" y="322"/>
      <point x="132" y="379" type="curve" smooth="yes"/>
      <point x="132" y="424"/>
      <point x="182" y="449"/>
      <point x="253" y="449" type="curve" smooth="yes"/>
      <point x="322" y="449"/>
      <point x="352" y="425"/>
      <point x="352" y="388" type="curve" smooth="yes"/>
      <point x="352" y="379"/>
      <point x="350" y="371"/>
      <point x="350" y="368" type="curve" smooth="yes"/>
      <point x="350" y="354"/>
      <point x="359" y="341"/>
      <point x="377" y="341" type="curve" smooth="yes"/>
      <point x="397" y="341"/>
      <point x="405" y="357"/>
      <point x="405" y="387" type="curve" smooth="yes"/>
      <point x="405" y="455"/>
      <point x="351" y="499"/>
      <point x="250" y="499" type="curve" smooth="yes"/>
      <point x="179" y="499"/>
      <point x="80" y="475"/>
      <point x="80" y="380" type="curve" smooth="yes"/>
      <point x="80" y="309"/>
      <point x="127" y="271"/>
      <point x="233" y="239" type="curve" smooth="yes"/>
      <point x="331" y="210"/>
      <point x="351" y="185"/>
      <point x="351" y="140" type="curve" smooth="yes"/>
      <point x="351" y="111"/>
      <point x="322" y="51"/>
      <point x="233" y="51" type="curve" smooth="yes"/>
      <point x="169" y="51"/>
      <point x="121" y="83"/>
      <point x="103" y="136" type="curve" smooth="yes"/>
      <point x="100" y="147"/>
      <point x="91" y="155"/>
      <point x="78" y="155" type="curve" smooth="yes"/>
      <point x="63" y="155"/>
      <point x="51" y="143"/>
      <point x="51" y="128" type="curve" smooth="yes"/>
      <point x="51" y="94"/>
      <point x="110" y="-2"/>
    </contour>
  </outline>
</glyph>
<glyph name="t" format="1">
  <advance width="387"/>
  <unicode hex="0074"/>
  <outline>
    <contour>
      <point x="221" y="500" type="line"/>
      <point x="221" y="643" type="line" smooth="yes"/>
      <point x="221" y="658"/>
      <point x="210" y="672"/>
      <point x="193" y="672" type="curve" smooth="yes"/>
      <point x="177" y="672"/>
      <point x="165" y="658"/>
      <point x="165" y="643" type="curve" smooth="yes"/>
      <point x="165" y="500" type="line"/>
      <point x="50" y="500" type="line" smooth="yes"/>
      <point x="34" y="500"/>
      <point x="20" y="489"/>
      <point x="20" y="472" type="curve" smooth="yes"/>
      <point x="20" y="457"/>
      <point x="32" y="444"/>
      <point x="48" y="444" type="curve" smooth="yes"/>
      <point x="165" y="444" type="line"/>
      <point x="165" y="26" type="line" smooth="yes"/>
      <point x="165" y="11"/>
      <point x="178" y="-1"/>
      <point x="193" y="-1" type="curve" smooth="yes"/>
      <point x="208" y="-1"/>
      <point x="221" y="11"/>
      <point x="221" y="26" type="curve" smooth="yes"/>
      <point x="221" y="444" type="line"/>
      <point x="339" y="444" type="line" smooth="yes"/>
      <point x="355" y="444"/>
      <point x="367" y="457"/>
      <point x="367" y="472" type="curve" smooth="yes"/>
      <point x="367" y="488"/>
      <point x="355" y="500"/>
      <point x="339" y="500" type="curve" smooth="yes"/>
    </contour>
  </outline>
</glyph>
<glyph name="u" format="1">
  <advance width="512"/>
  <unicode hex="0075"/>
  <outline>
    <contour>
      <point x="447" y="475" type="line" smooth="yes"/>
      <point x="447" y="490"/>
      <point x="435" y="500"/>
      <point x="421" y="500" type="curve" smooth="yes"/>
      <point x="407" y="500"/>
      <point x="395" y="490"/>
      <point x="395" y="475" type="curve" smooth="yes"/>
      <point x="390" y="161" type="line"/>
      <point x="390" y="161"/>
      <point x="390" y="133"/>
      <point x="377" y="118" type="curve" smooth="yes"/>
      <point x="356" y="94"/>
      <point x="286" y="46"/>
      <point x="217" y="46" type="curve" smooth="yes"/>
      <point x="118" y="46"/>
      <point x="120" y="170"/>
      <point x="120" y="292" type="curve" smooth="yes"/>
      <point x="120" y="384"/>
      <point x="131" y="450"/>
      <point x="133" y="474" type="curve" smooth="yes"/>
      <point x="134" y="489"/>
      <point x="120" y="500"/>
      <point x="105" y="500" type="curve" smooth="yes"/>
      <point x="91" y="500"/>
      <point x="82" y="495"/>
      <point x="78" y="466" type="curve" smooth="yes"/>
      <point x="73" y="428"/>
      <point x="65" y="368"/>
      <point x="66" y="291" type="curve" smooth="yes"/>
      <point x="67" y="143"/>
      <point x="65" y="-3"/>
      <point x="217" y="-3" type="curve" smooth="yes"/>
      <point x="294" y="-3"/>
      <point x="361" y="40"/>
      <point x="386" y="76" type="curve"/>
      <point x="386" y="33" type="line" smooth="yes"/>
      <point x="386" y="15"/>
      <point x="398" y="0"/>
      <point x="417" y="0" type="curve" smooth="yes"/>
      <point x="433" y="0"/>
      <point x="447" y="13"/>
      <point x="447" y="28" type="curve" smooth="yes"/>
    </contour>
  </outline>
</glyph>
<glyph name="w" format="1">
  <advance width="594"/>
  <unicode hex="0077"/>
  <outline>
    <contour>
      <point x="584" y="471" type="curve" smooth="yes"/>
      <point x="584" y="486"/>
      <point x="571" y="499"/>
      <point x="556" y="499" type="curve" smooth="yes"/>
      <point x="543" y="499"/>
      <point x="532" y="489"/>
      <point x="529" y="477" type="curve" smooth="yes"/>
      <point x="416" y="99" type="line"/>
      <point x="326" y="474" type="line" smooth="yes"/>
      <point x="323" y="487"/>
      <point x="311" y="500"/>
      <point x="297" y="500" type="curve" smooth="yes"/>
      <point x="283" y="500"/>
      <point x="271" y="489"/>
      <point x="268" y="479" type="curve" smooth="yes"/>
      <point x="138" y="104" type="line"/>
      <point x="65" y="476" type="line" smooth="yes"/>
      <point x="62" y="490"/>
      <point x="52" y="500"/>
      <point x="37" y="500" type="curve" smooth="yes"/>
      <point x="22" y="500"/>
      <point x="10" y="487"/>
      <point x="10" y="472" type="curve" smooth="yes"/>
      <point x="10" y="469"/>
      <point x="11" y="462"/>
      <point x="12" y="458" type="curve" smooth="yes"/>
      <point x="104" y="24" type="line" smooth="yes"/>
      <point x="107" y="11"/>
      <point x="119" y="0"/>
      <point x="133" y="0" type="curve" smooth="yes"/>
      <point x="145" y="0"/>
      <point x="155" y="9"/>
      <point x="159" y="21" type="curve" smooth="yes"/>
      <point x="293" y="391" type="line"/>
      <point x="387" y="22" type="line" smooth="yes"/>
      <point x="390" y="9"/>
      <point x="401" y="0"/>
      <point x="414" y="0" type="curve" smooth="yes"/>
      <point x="428" y="0"/>
      <point x="437" y="9"/>
      <point x="441" y="22" type="curve" smooth="yes"/>
      <point x="582" y="462" type="line" smooth="yes"/>
      <point x="583" y="465"/>
      <point x="584" y="468"/>
    </contour>
  </outline>
</glyph>
<glyph name="bar" format="1">
  <advance width="193"/>
  <unicode hex="007C"/>
  <outline>
    <contour>
      <point x="96" y="-168" type="curve" smooth="yes"/>
      <point x="112" y="-168"/>
      <point x="124" y="-156"/>
      <point x="124" y="-140" type="curve" smooth="yes"/>
      <point x="124" y="812" type="line" smooth="yes"/>
      <point x="124" y="827"/>
      <point x="112" y="840"/>
      <point x="96" y="840" type="curve" smooth="yes"/>
      <point x="81" y="840"/>
      <point x="68" y="827"/>
      <point x="68" y="812" type="curve" smooth="yes"/>
      <point x="68" y="-140" type="line" smooth="yes"/>
      <point x="68" y="-156"/>
      <point x="81" y="-168"/>
    </contour>
  </outline>
</glyph>
<glyph name="braceright" format="1">
  <advance width="376"/>
  <unicode hex="007D"/>
  <outline>
    <contour>
      <point x="176" y="458" type="line" smooth="yes"/>
      <point x="176" y="400"/>
      <point x="202" y="359"/>
      <point x="235" y="334" type="curve"/>
      <point x="200" y="306"/>
      <point x="176" y="265"/>
      <point x="176" y="210" type="curve" smooth="yes"/>
      <point x="176" y="22" type="line" smooth="yes"/>
      <point x="176" y="-43"/>
      <point x="115" y="-64"/>
      <point x="80" y="-70" type="curve" smooth="yes"/>
      <point x="62" y="-73"/>
      <point x="54" y="-83"/>
      <point x="54" y="-97" type="curve" smooth="yes"/>
      <point x="54" y="-111"/>
      <point x="67" y="-127"/>
      <point x="86" y="-124" type="curve" smooth="yes"/>
      <point x="148" y="-114"/>
      <point x="230" y="-74"/>
      <point x="230" y="22" type="curve" smooth="yes"/>
      <point x="230" y="211" type="line" smooth="yes"/>
      <point x="230" y="252"/>
      <point x="244" y="283"/>
      <point x="298" y="310" type="curve" smooth="yes"/>
      <point x="311" y="316"/>
      <point x="315" y="320"/>
      <point x="315" y="334" type="curve" smooth="yes"/>
      <point x="315" y="343"/>
      <point x="310" y="354"/>
      <point x="297" y="359" type="curve" smooth="yes"/>
      <point x="260" y="373"/>
      <point x="230" y="406"/>
      <point x="230" y="457" type="curve" smooth="yes"/>
      <point x="230" y="662" type="line" smooth="yes"/>
      <point x="230" y="757"/>
      <point x="152" y="795"/>
      <point x="91" y="807" type="curve" smooth="yes"/>
      <point x="70" y="811"/>
      <point x="54" y="800"/>
      <point x="54" y="781" type="curve" smooth="yes"/>
      <point x="54" y="767"/>
      <point x="64" y="756"/>
      <point x="80" y="754" type="curve"/>
      <point x="115" y="747"/>
      <point x="176" y="727"/>
      <point x="176" y="662" type="curve" smooth="yes"/>
    </contour>
  </outline>
</glyph>
<glyph name="cent" format="1">
  <advance width="556"/>
  <unicode hex="00A2"/>
  <outline>
    <contour>
      <point x="455" y="238" type="curve" smooth="yes"/>
      <point x="470" y="238"/>
      <point x="482" y="225"/>
      <point x="482" y="210" type="curve" smooth="yes"/>
      <point x="482" y="203"/>
      <point x="479" y="198"/>
      <point x="475" y="192" type="curve" smooth="yes"/>
      <point x="437" y="139"/>
      <point x="372" y="99"/>
      <point x="298" y="99" type="curve"/>
      <point x="296" y="24" type="line" smooth="yes"/>
      <point x="296" y="11"/>
      <point x="285" y="0"/>
      <point x="271" y="0" type="curve" smooth="yes"/>
      <point x="257" y="0"/>
      <point x="246" y="12"/>
      <point x="246" y="26" type="curve" smooth="yes"/>
      <point x="248" y="103" type="line"/>
      <point x="105" y="138"/>
      <point x="74" y="249"/>
      <point x="74" y="314" type="curve" smooth="yes"/>
      <point x="74" y="428"/>
      <point x="143" y="558"/>
      <point x="262" y="595" type="curve"/>
      <point x="264" y="666" type="line" smooth="yes"/>
      <point x="264" y="680"/>
      <point x="276" y="691"/>
      <point x="289" y="691" type="curve" smooth="yes"/>
      <point x="303" y="691"/>
      <point x="314" y="678"/>
      <point x="314" y="665" type="curve" smooth="yes"/>
      <point x="312" y="598" type="line"/>
      <point x="312.977" y="598.036"/>
      <point x="313.963" y="598.053"/>
      <point x="314.959" y="598.053" type="curve" smooth="yes"/>
      <point x="370.027" y="598.053"/>
      <point x="453" y="544.379"/>
      <point x="453" y="510" type="curve" smooth="yes"/>
      <point x="453" y="495"/>
      <point x="441" y="483"/>
      <point x="426" y="483" type="curve" smooth="yes"/>
      <point x="417" y="483"/>
      <point x="410" y="486"/>
      <point x="405" y="492" type="curve" smooth="yes"/>
      <point x="382" y="524"/>
      <point x="348" y="543"/>
      <point x="310" y="546" type="curve"/>
      <point x="300" y="151" type="line"/>
      <point x="355" y="154"/>
      <point x="400" y="180"/>
      <point x="430" y="221" type="curve" smooth="yes"/>
      <point x="433" y="225"/>
      <point x="441" y="238"/>
    </contour>
    <contour>
      <point x="127" y="316" type="curve" smooth="yes"/>
      <point x="127" y="242"/>
      <point x="176" y="179"/>
      <point x="250" y="156" type="curve"/>
      <point x="260" y="540" type="line"/>
      <point x="157" y="488"/>
      <point x="127" y="369"/>
    </contour>
  </outline>
</glyph>
<glyph name="currency" format="1">
  <advance width="517"/>
  <unicode hex="00A4"/>
  <outline>
    <contour>
      <point x="390" y="159" type="curve"/>
      <point x="460" y="88" type="line" smooth="yes"/>
      <point x="465" y="83"/>
      <point x="467" y="76"/>
      <point x="467" y="70" type="curve" smooth="yes"/>
      <point x="467" y="57"/>
      <point x="457" y="44"/>
      <point x="442" y="44" type="curve" smooth="yes"/>
      <point x="436" y="44"/>
      <point x="429" y="47"/>
      <point x="424" y="52" type="curve" smooth="yes"/>
      <point x="354" y="122" type="line"/>
      <point x="327" y="103"/>
      <point x="295" y="91"/>
      <point x="259" y="91" type="curve" smooth="yes"/>
      <point x="224" y="91"/>
      <point x="191" y="103"/>
      <point x="165" y="122" type="curve"/>
      <point x="94" y="52" type="line"/>
      <point x="90" y="47"/>
      <point x="83" y="44"/>
      <point x="76" y="44" type="curve" smooth="yes"/>
      <point x="63" y="44"/>
      <point x="50" y="56"/>
      <point x="50" y="70" type="curve" smooth="yes"/>
      <point x="50" y="76"/>
      <point x="53" y="83"/>
      <point x="58" y="88" type="curve" smooth="yes"/>
      <point x="129" y="159" type="line"/>
      <point x="111" y="185"/>
      <point x="100" y="217"/>
      <point x="100" y="251" type="curve" smooth="yes"/>
      <point x="100" y="286"/>
      <point x="111" y="319"/>
      <point x="131" y="345" type="curve"/>
      <point x="58" y="418" type="line" smooth="yes"/>
      <point x="53" y="423"/>
      <point x="50" y="429"/>
      <point x="50" y="436" type="curve" smooth="yes"/>
      <point x="50" y="450"/>
      <point x="62" y="461"/>
      <point x="76" y="461" type="curve" smooth="yes"/>
      <point x="83" y="461"/>
      <point x="89" y="459"/>
      <point x="94" y="454" type="curve" smooth="yes"/>
      <point x="167" y="381" type="line"/>
      <point x="193" y="400"/>
      <point x="225" y="410"/>
      <point x="259" y="410" type="curve" smooth="yes"/>
      <point x="294" y="410"/>
      <point x="326" y="400"/>
      <point x="352" y="381" type="curve"/>
      <point x="424" y="454" type="line" smooth="yes"/>
      <point x="429" y="459"/>
      <point x="435" y="461"/>
      <point x="442" y="461" type="curve" smooth="yes"/>
      <point x="456" y="461"/>
      <point x="467" y="449"/>
      <point x="467" y="436" type="curve" smooth="yes"/>
      <point x="467" y="429"/>
      <point x="465" y="423"/>
      <point x="460" y="418" type="curve" smooth="yes"/>
      <point x="388" y="345" type="line"/>
      <point x="407" y="319"/>
      <point x="419" y="286"/>
      <point x="419" y="251" type="curve" smooth="yes"/>
      <point x="419" y="217"/>
      <point x="408" y="185"/>
    </contour>
    <contour>
      <point x="151" y="251" type="curve" smooth="yes"/>
      <point x="151" y="191"/>
      <point x="200" y="142"/>
      <point x="259" y="142" type="curve" smooth="yes"/>
      <point x="319" y="142"/>
      <point x="368" y="191"/>
      <point x="368" y="251" type="curve" smooth="yes"/>
      <point x="368" y="311"/>
      <point x="319" y="359"/>
      <point x="259" y="359" type="curve" smooth="yes"/>
      <point x="200" y="359"/>
      <point x="151" y="311"/>
    </contour>
  </outline>
</glyph>
<glyph name="dieresis" format="1">
  <advance width="500"/>
  <unicode hex="00A8"/>
  <outline>
    <contour>
      <point x="218" y="620" type="curve" smooth="yes"/>
      <point x="218" y="596"/>
      <point x="196" y="576"/>
      <point x="167" y="576" type="curve" smooth="yes"/>
      <point x="142" y="576"/>
      <point x="122" y="592"/>
      <point x="122" y="615" type="curve" smooth="yes"/>
      <point x="122" y="638"/>
      <point x="145" y="659"/>
      <point x="173" y="659" type="curve" smooth="yes"/>
      <point x="196" y="659"/>
      <point x="218" y="642"/>
    </contour>
    <contour>
      <point x="377" y="620" type="curve" smooth="yes"/>
      <point x="377" y="596"/>
      <point x="355" y="576"/>
      <point x="326" y="576" type="curve" smooth="yes"/>
      <point x="301" y="576"/>
      <point x="281" y="592"/>
      <point x="281" y="615" type="curve" smooth="yes"/>
      <point x="281" y="638"/>
      <point x="304" y="659"/>
      <point x="332" y="659" type="curve" smooth="yes"/>
      <point x="355" y="659"/>
      <point x="377" y="642"/>
    </contour>
  </outline>
</glyph>
<glyph name="ordfeminine" format="1">
  <advance width="250"/>
  <unicode hex="00AA"/>
  <outline>
    <contour>
      <point x="225" y="342" type="curve" smooth="yes"/>
      <point x="212" y="342"/>
      <point x="200" y="354"/>
      <point x="200" y="369" type="curve"/>
      <point x="175" y="358"/>
      <point x="157" y="347"/>
      <point x="118" y="347" type="curve" smooth="yes"/>
      <point x="50" y="347"/>
      <point x="0" y="405"/>
      <point x="0" y="483" type="curve" smooth="yes"/>
      <point x="0" y="569"/>
      <point x="52" y="668"/>
      <point x="147" y="668" type="curve" smooth="yes"/>
      <point x="191" y="668"/>
      <point x="234" y="651"/>
      <point x="249" y="639" type="curve"/>
      <point x="250" y="367" type="line" smooth="yes"/>
      <point x="250" y="354"/>
      <point x="238" y="342"/>
    </contour>
    <contour>
      <point x="151" y="618" type="curve" smooth="yes"/>
      <point x="79" y="618"/>
      <point x="50" y="540"/>
      <point x="50" y="485" type="curve" smooth="yes"/>
      <point x="50" y="445"/>
      <point x="70" y="396"/>
      <point x="119" y="396" type="curve" smooth="yes"/>
      <point x="156" y="396"/>
      <point x="190" y="421"/>
      <point x="199" y="427" type="curve"/>
      <point x="202" y="609" type="line"/>
      <point x="193" y="614"/>
      <point x="168" y="618"/>
    </contour>
  </outline>
</glyph>
<glyph name="guillemotleft" format="1">
  <advance width="591"/>
  <unicode hex="00AB"/>
  <outline>
    <contour>
      <point x="464" y="76" type="curve" smooth="yes"/>
      <point x="479" y="76"/>
      <point x="492" y="88"/>
      <point x="492" y="103" type="curve" smooth="yes"/>
      <point x="492" y="111"/>
      <point x="489" y="119"/>
      <point x="483" y="124" type="curve" smooth="yes"/>
      <point x="343" y="249" type="line"/>
      <point x="498" y="384" type="line" smooth="yes"/>
      <point x="504" y="390"/>
      <point x="508" y="397"/>
      <point x="508" y="405" type="curve" smooth="yes"/>
      <point x="508" y="421"/>
      <point x="494" y="433"/>
      <point x="480" y="433" type="curve" smooth="yes"/>
      <point x="474" y="433"/>
      <point x="467" y="430"/>
      <point x="462" y="426" type="curve" smooth="yes"/>
      <point x="282" y="271" type="line" smooth="yes"/>
      <point x="276" y="266"/>
      <point x="273" y="258"/>
      <point x="273" y="250" type="curve" smooth="yes"/>
      <point x="273" y="242"/>
      <point x="276" y="234"/>
      <point x="282" y="229" type="curve" smooth="yes"/>
      <point x="445" y="83" type="line" smooth="yes"/>
      <point x="451" y="78"/>
      <point x="457" y="76"/>
    </contour>
    <contour>
      <point x="259" y="76" type="curve" smooth="yes"/>
      <point x="274" y="76"/>
      <point x="287" y="88"/>
      <point x="287" y="103" type="curve" smooth="yes"/>
      <point x="287" y="111"/>
      <point x="284" y="119"/>
      <point x="278" y="124" type="curve" smooth="yes"/>
      <point x="138" y="249" type="line"/>
      <point x="293" y="384" type="line" smooth="yes"/>
      <point x="299" y="390"/>
      <point x="303" y="397"/>
      <point x="303" y="405" type="curve" smooth="yes"/>
      <point x="303" y="421"/>
      <point x="289" y="433"/>
      <point x="275" y="433" type="curve" smooth="yes"/>
      <point x="269" y="433"/>
      <point x="262" y="430"/>
      <point x="257" y="426" type="curve" smooth="yes"/>
      <point x="77" y="271" type="line" smooth="yes"/>
      <point x="71" y="266"/>
      <point x="68" y="258"/>
      <point x="68" y="250" type="curve" smooth="yes"/>
      <point x="68" y="242"/>
      <point x="71" y="234"/>
      <point x="77" y="229" type="curve" smooth="yes"/>
      <point x="240" y="83" type="line" smooth="yes"/>
      <point x="246" y="78"/>
      <point x="252" y="76"/>
    </contour>
  </outline>
</glyph>
<glyph name="logicalnot" format="1">
  <advance width="480"/>
  <unicode hex="00AC"/>
  <outline>
    <contour>
      <point x="394" y="125" type="curve" smooth="yes"/>
      <point x="408" y="125"/>
      <point x="419" y="136"/>
      <point x="419" y="150" type="curve" smooth="yes"/>
      <point x="420" y="303" type="line" smooth="yes"/>
      <point x="420" y="319"/>
      <point x="407" y="329"/>
      <point x="394" y="329" type="curve" smooth="yes"/>
      <point x="65" y="329" type="line" smooth="yes"/>
      <point x="51" y="329"/>
      <point x="40" y="317"/>
      <point x="40" y="303" type="curve" smooth="yes"/>
      <point x="40" y="289"/>
      <point x="51" y="278"/>
      <point x="65" y="278" type="curve" smooth="yes"/>
      <point x="369" y="278" type="line"/>
      <point x="368" y="150" type="line" smooth="yes"/>
      <point x="368" y="136"/>
      <point x="380" y="125"/>
    </contour>
  </outline>
</glyph>
<glyph name="twosuperior" format="1">
  <advance width="240"/>
  <unicode hex="00B2"/>
  <outline>
    <contour>
      <point x="212" y="443" type="line" smooth="yes"/>
      <point x="223" y="443"/>
      <point x="235" y="454"/>
      <point x="235" y="466" type="curve" smooth="yes"/>
      <point x="235" y="481"/>
      <point x="222" y="490"/>
      <point x="212" y="490" type="curve" smooth="yes"/>
      <point x="51" y="490" type="line"/>
      <point x="51" y="541"/>
      <point x="100" y="580"/>
      <point x="142" y="606" type="curve" smooth="yes"/>
      <point x="185" y="632"/>
      <point x="230" y="664"/>
      <point x="230" y="727" type="curve" smooth="yes"/>
      <point x="230" y="790"/>
      <point x="176" y="826"/>
      <point x="119" y="826" type="curve" smooth="yes"/>
      <point x="65" y="826"/>
      <point x="21" y="788"/>
      <point x="6" y="769" type="curve" smooth="yes"/>
      <point x="1" y="763"/>
      <point x="0" y="759"/>
      <point x="0" y="753" type="curve" smooth="yes"/>
      <point x="0" y="742"/>
      <point x="12" y="730"/>
      <point x="23" y="730" type="curve" smooth="yes"/>
      <point x="34" y="730"/>
      <point x="38" y="735"/>
      <point x="50" y="748" type="curve" smooth="yes"/>
      <point x="60" y="759"/>
      <point x="85" y="780"/>
      <point x="120" y="780" type="curve" smooth="yes"/>
      <point x="159" y="780"/>
      <point x="184" y="755"/>
      <point x="184" y="727" type="curve" smooth="yes"/>
      <point x="184" y="698"/>
      <point x="168" y="678"/>
      <point x="144" y="663" type="curve" smooth="yes"/>
      <point x="49" y="603"/>
      <point x="3" y="565"/>
      <point x="3" y="466" type="curve" smooth="yes"/>
      <point x="3" y="443" type="line"/>
    </contour>
  </outline>
</glyph>
<glyph name="threesuperior" format="1">
  <advance width="236"/>
  <unicode hex="00B3"/>
  <outline>
    <contour>
      <point x="116" y="440" type="curve" smooth="yes"/>
      <point x="179" y="440"/>
      <point x="236" y="488"/>
      <point x="236" y="560" type="curve" smooth="yes"/>
      <point x="236" y="603"/>
      <point x="217" y="639"/>
      <point x="181" y="660" type="curve"/>
      <point x="211" y="678"/>
      <point x="227" y="710"/>
      <point x="227" y="740" type="curve" smooth="yes"/>
      <point x="227" y="797"/>
      <point x="171" y="830"/>
      <point x="115" y="830" type="curve" smooth="yes"/>
      <point x="61" y="830"/>
      <point x="16" y="803"/>
      <point x="16" y="780" type="curve" smooth="yes"/>
      <point x="16" y="765"/>
      <point x="28" y="757"/>
      <point x="39" y="757" type="curve" smooth="yes"/>
      <point x="45" y="757"/>
      <point x="50" y="759"/>
      <point x="54" y="762" type="curve" smooth="yes"/>
      <point x="64" y="770"/>
      <point x="74" y="783"/>
      <point x="115" y="783" type="curve" smooth="yes"/>
      <point x="140" y="783"/>
      <point x="181" y="771"/>
      <point x="181" y="740" type="curve" smooth="yes"/>
      <point x="181" y="703"/>
      <point x="137" y="684"/>
      <point x="105" y="682" type="curve" smooth="yes"/>
      <point x="92" y="681"/>
      <point x="83" y="675"/>
      <point x="83" y="658" type="curve" smooth="yes"/>
      <point x="83" y="646"/>
      <point x="92" y="636"/>
      <point x="105" y="635" type="curve" smooth="yes"/>
      <point x="167" y="630"/>
      <point x="189" y="598"/>
      <point x="189" y="560" type="curve" smooth="yes"/>
      <point x="189" y="505"/>
      <point x="144" y="486"/>
      <point x="116" y="486" type="curve" smooth="yes"/>
      <point x="85" y="486"/>
      <point x="61" y="499"/>
      <point x="44" y="526" type="curve" smooth="yes"/>
      <point x="42" y="530"/>
      <point x="35" y="540"/>
      <point x="22" y="540" type="curve" smooth="yes"/>
      <point x="9" y="540"/>
      <point x="0" y="528"/>
      <point x="0" y="516" type="curve" smooth="yes"/>
      <point x="0" y="513"/>
      <point x="1" y="507"/>
      <point x="4" y="502" type="curve" smooth="yes"/>
      <point x="19" y="476"/>
      <point x="54" y="440"/>
    </contour>
  </outline>
</glyph>
<glyph name="mu" format="1">
  <advance width="500"/>
  <unicode hex="00B5"/>
  <outline>
    <contour>
      <point x="65" y="256" type="curve" smooth="yes"/>
      <point x="68" y="158"/>
      <point x="77" y="41"/>
      <point x="80" y="0" type="curve" smooth="yes"/>
      <point x="86" y="-83"/>
      <point x="93" y="-122"/>
      <point x="99" y="-159" type="curve" smooth="yes"/>
      <point x="101" y="-172"/>
      <point x="113" y="-181"/>
      <point x="126" y="-181" type="curve" smooth="yes"/>
      <point x="146" y="-181"/>
      <point x="155" y="-164"/>
      <point x="152" y="-149" type="curve" smooth="yes"/>
      <point x="144" y="-101"/>
      <point x="135" y="-26"/>
      <point x="132" y="18" type="curve"/>
      <point x="132" y="18"/>
      <point x="164" y="-3"/>
      <point x="216" y="-3" type="curve" smooth="yes"/>
      <point x="293" y="-3"/>
      <point x="360" y="40"/>
      <point x="385" y="76" type="curve"/>
      <point x="385" y="33" type="line" smooth="yes"/>
      <point x="385" y="15"/>
      <point x="397" y="0"/>
      <point x="416" y="0" type="curve" smooth="yes"/>
      <point x="432" y="0"/>
      <point x="446" y="13"/>
      <point x="446" y="28" type="curve" smooth="yes"/>
      <point x="446" y="475" type="line" smooth="yes"/>
      <point x="446" y="490"/>
      <point x="434" y="500"/>
      <point x="420" y="500" type="curve" smooth="yes"/>
      <point x="406" y="500"/>
      <point x="394" y="490"/>
      <point x="394" y="475" type="curve" smooth="yes"/>
      <point x="389" y="161" type="line"/>
      <point x="389" y="161"/>
      <point x="389" y="133"/>
      <point x="376" y="118" type="curve" smooth="yes"/>
      <point x="355" y="94"/>
      <point x="285" y="46"/>
      <point x="216" y="46" type="curve" smooth="yes"/>
      <point x="136" y="46"/>
      <point x="119" y="106"/>
      <point x="119" y="292" type="curve" smooth="yes"/>
      <point x="119" y="384"/>
      <point x="130" y="450"/>
      <point x="132" y="474" type="curve" smooth="yes"/>
      <point x="133" y="489"/>
      <point x="119" y="500"/>
      <point x="104" y="500" type="curve" smooth="yes"/>
      <point x="90" y="500"/>
      <point x="81" y="495"/>
      <point x="77" y="466" type="curve" smooth="yes"/>
      <point x="72" y="428"/>
      <point x="63" y="333"/>
    </contour>
  </outline>
</glyph>
<glyph name="paragraph" format="1">
  <advance width="559"/>
  <unicode hex="00B6"/>
  <outline>
    <contour>
      <point x="482" y="714" type="curve"/>
      <point x="482.681" y="687.345"/>
      <point x="483.012" y="660.842"/>
      <point x="483.012" y="634.493" type="curve" smooth="yes"/>
      <point x="483.012" y="389.983"/>
      <point x="454.525" y="158.75"/>
      <point x="413" y="-57" type="curve" smooth="yes"/>
      <point x="410" y="-70"/>
      <point x="399" y="-79"/>
      <point x="386" y="-79" type="curve" smooth="yes"/>
      <point x="371.471" y="-79"/>
      <point x="358.592" y="-67.4567"/>
      <point x="358.592" y="-51.8569" type="curve" smooth="yes"/>
      <point x="358.592" y="146.777"/>
      <point x="426.919" y="368.256"/>
      <point x="426.919" y="633.892" type="curve" smooth="yes"/>
      <point x="426.919" y="659.529"/>
      <point x="426.621" y="685.56"/>
      <point x="426" y="712" type="curve"/>
      <point x="425" y="728"/>
      <point x="437" y="740"/>
      <point x="453" y="741" type="curve" smooth="yes"/>
      <point x="468" y="741"/>
      <point x="481" y="729"/>
    </contour>
    <contour>
      <point x="368" y="729" type="line"/>
      <point x="369.271" y="693.801"/>
      <point x="369.879" y="658.538"/>
      <point x="369.879" y="623.325" type="curve" smooth="yes"/>
      <point x="369.879" y="381.426"/>
      <point x="341.155" y="141.901"/>
      <point x="301" y="-58" type="curve" smooth="yes"/>
      <point x="298" y="-71"/>
      <point x="287" y="-80"/>
      <point x="274" y="-80" type="curve" smooth="yes"/>
      <point x="259.941" y="-80"/>
      <point x="245.111" y="-67.6471"/>
      <point x="245.111" y="-52.4386" type="curve" smooth="yes"/>
      <point x="245.111" y="-50.3385"/>
      <point x="245.393" y="-48.184"/>
      <point x="246" y="-46" type="curve" smooth="yes"/>
      <point x="267" y="29"/>
      <point x="297" y="270"/>
      <point x="302" y="349" type="curve"/>
      <point x="283" y="349" type="line" smooth="yes"/>
      <point x="173" y="349"/>
      <point x="69" y="399"/>
      <point x="69" y="526" type="curve" smooth="yes"/>
      <point x="69" y="671"/>
      <point x="222" y="756"/>
      <point x="381" y="786" type="curve" smooth="yes"/>
      <point x="382.307" y="786.261"/>
      <point x="383.591" y="786.386"/>
      <point x="384.847" y="786.386" type="curve" smooth="yes"/>
      <point x="398" y="786.386"/>
      <point x="408" y="772.693"/>
      <point x="408" y="759" type="curve" smooth="yes"/>
      <point x="408" y="746"/>
      <point x="398" y="734"/>
      <point x="387" y="732" type="curve" smooth="yes"/>
    </contour>
  </outline>
</glyph>
<glyph name="periodcentered" format="1">
  <advance width="172"/>
  <unicode hex="00B7"/>
  <outline>
    <contour>
      <point x="82" y="210" type="curve" smooth="yes"/>
      <point x="103" y="210"/>
      <point x="122" y="231"/>
      <point x="122" y="257" type="curve" smooth="yes"/>
      <point x="122" y="277"/>
      <point x="108" y="293"/>
      <point x="90" y="293" type="curve" smooth="yes"/>
      <point x="69" y="293"/>
      <point x="50" y="271"/>
      <point x="50" y="248" type="curve" smooth="yes"/>
      <point x="50" y="227"/>
      <point x="63" y="210"/>
    </contour>
  </outline>
</glyph>
<glyph name="cedilla" format="1">
  <advance width="500"/>
  <unicode hex="00B8"/>
  <outline>
    <contour>
      <point x="244" y="-201" type="curve" smooth="yes"/>
      <point x="212" y="-201"/>
      <point x="165" y="-179"/>
      <point x="165" y="-146" type="curve" smooth="yes"/>
      <point x="165" y="-138"/>
      <point x="174" y="-128"/>
      <point x="186" y="-128" type="curve" smooth="yes"/>
      <point x="194" y="-128"/>
      <point x="199" y="-133"/>
      <point x="204" y="-139" type="curve" smooth="yes"/>
      <point x="212" y="-148"/>
      <point x="221" y="-159"/>
      <point x="244" y="-159" type="curve" smooth="yes"/>
      <point x="271" y="-159"/>
      <point x="293" y="-137"/>
      <point x="293" y="-110" type="curve" smooth="yes"/>
      <point x="293" y="-83"/>
      <point x="271" y="-61"/>
      <point x="244" y="-61" type="curve" smooth="yes"/>
      <point x="229" y="-61"/>
      <point x="220" y="-67"/>
      <point x="213" y="-71" type="curve" smooth="yes"/>
      <point x="209" y="-74"/>
      <point x="205" y="-76"/>
      <point x="201" y="-76" type="curve" smooth="yes"/>
      <point x="190" y="-76"/>
      <point x="180" y="-68"/>
      <point x="180" y="-56" type="curve" smooth="yes"/>
      <point x="180" y="-50"/>
      <point x="182" y="-43"/>
      <point x="186" y="-33" type="curve" smooth="yes"/>
      <point x="209" y="30"/>
      <point x="209" y="42"/>
      <point x="222" y="42" type="curve" smooth="yes"/>
      <point x="230" y="42"/>
      <point x="236" y="38"/>
      <point x="235" y="22" type="curve" smooth="yes"/>
      <point x="233" y="-19" type="line"/>
      <point x="301" y="-19"/>
      <point x="335" y="-62"/>
      <point x="335" y="-110" type="curve" smooth="yes"/>
      <point x="335" y="-160"/>
      <point x="294" y="-201"/>
    </contour>
  </outline>
</glyph>
<glyph name="ordmasculine" format="1">
  <advance width="277"/>
  <unicode hex="00BA"/>
  <outline>
    <contour>
      <point x="129" y="347" type="curve" smooth="yes"/>
      <point x="229" y="347"/>
      <point x="277" y="449"/>
      <point x="277" y="515" type="curve" smooth="yes"/>
      <point x="277" y="604"/>
      <point x="217" y="663"/>
      <point x="148" y="663" type="curve" smooth="yes"/>
      <point x="56" y="663"/>
      <point x="0" y="572"/>
      <point x="0" y="491" type="curve" smooth="yes"/>
      <point x="0" y="409"/>
      <point x="60" y="347"/>
    </contour>
    <contour>
      <point x="145" y="618" type="curve" smooth="yes"/>
      <point x="191" y="618"/>
      <point x="226" y="567"/>
      <point x="226" y="515" type="curve" smooth="yes"/>
      <point x="226" y="444"/>
      <point x="176" y="392"/>
      <point x="129" y="392" type="curve" smooth="yes"/>
      <point x="84" y="392"/>
      <point x="51" y="439"/>
      <point x="51" y="494" type="curve" smooth="yes"/>
      <point x="51" y="562"/>
      <point x="97" y="618"/>
    </contour>
  </outline>
</glyph>
<glyph name="questiondown" format="1">
  <advance width="533"/>
  <unicode hex="00BF"/>
  <outline>
    <contour>
      <point x="306" y="323" type="curve" smooth="yes"/>
      <point x="311" y="328"/>
      <point x="318" y="332"/>
      <point x="325" y="332" type="curve" smooth="yes"/>
      <point x="340" y="332"/>
      <point x="352" y="320"/>
      <point x="352" y="305" type="curve" smooth="yes"/>
      <point x="352" y="297"/>
      <point x="348" y="291"/>
      <point x="342" y="286" type="curve" smooth="yes"/>
      <point x="322" y="269"/>
      <point x="268" y="221"/>
      <point x="222" y="178" type="curve" smooth="yes"/>
      <point x="175" y="135"/>
      <point x="116" y="91"/>
      <point x="116" y="15" type="curve" smooth="yes"/>
      <point x="116" y="-58"/>
      <point x="158" y="-135"/>
      <point x="272" y="-135" type="curve" smooth="yes"/>
      <point x="340" y="-135"/>
      <point x="382" y="-97"/>
      <point x="412" y="-63" type="curve" smooth="yes"/>
      <point x="416" y="-59"/>
      <point x="423" y="-55"/>
      <point x="429" y="-55" type="curve" smooth="yes"/>
      <point x="444" y="-55"/>
      <point x="457" y="-65"/>
      <point x="457" y="-81" type="curve" smooth="yes"/>
      <point x="457" y="-91"/>
      <point x="448" y="-102"/>
      <point x="436" y="-115" type="curve" smooth="yes"/>
      <point x="404" y="-150"/>
      <point x="348" y="-187"/>
      <point x="272" y="-187" type="curve" smooth="yes"/>
      <point x="151" y="-187"/>
      <point x="65" y="-108"/>
      <point x="65" y="15" type="curve" smooth="yes"/>
      <point x="65" y="116"/>
      <point x="138" y="176"/>
      <point x="189" y="220" type="curve" smooth="yes"/>
      <point x="233" y="257"/>
      <point x="284" y="304"/>
    </contour>
    <contour>
      <point x="359" y="501" type="curve" smooth="yes"/>
      <point x="378" y="501"/>
      <point x="390" y="485"/>
      <point x="390" y="464" type="curve" smooth="yes"/>
      <point x="390" y="441"/>
      <point x="372" y="421"/>
      <point x="351" y="421" type="curve" smooth="yes"/>
      <point x="333" y="421"/>
      <point x="319" y="435"/>
      <point x="319" y="455" type="curve" smooth="yes"/>
      <point x="319" y="481"/>
      <point x="338" y="501"/>
    </contour>
  </outline>
</glyph>
<glyph name="Acircumflex" format="1">
  <advance width="624"/>
  <unicode hex="00C2"/>
  <outline>
    <contour>
      <point x="356" y="887" type="curve" smooth="yes"/>
      <point x="466" y="777" type="line" smooth="yes"/>
      <point x="472" y="772"/>
      <point x="475" y="765"/>
      <point x="475" y="757" type="curve" smooth="yes"/>
      <point x="475" y="743"/>
      <point x="463" y="731"/>
      <point x="449" y="731" type="curve" smooth="yes"/>
      <point x="442" y="731"/>
      <point x="435" y="733"/>
      <point x="430" y="738" type="curve" smooth="yes"/>
      <point x="334" y="825" type="line"/>
      <point x="219" y="736" type="line" smooth="yes"/>
      <point x="214" y="732"/>
      <point x="208" y="731"/>
      <point x="202" y="731" type="curve" smooth="yes"/>
      <point x="188" y="731"/>
      <point x="176" y="742"/>
      <point x="176" y="757" type="curve" smooth="yes"/>
      <point x="176" y="765"/>
      <point x="179" y="773"/>
      <point x="186" y="778" type="curve" smooth="yes"/>
      <point x="317" y="888" type="line" smooth="yes"/>
      <point x="323" y="893"/>
      <point x="330" y="895"/>
      <point x="336" y="895" type="curve" smooth="yes"/>
      <point x="343" y="895"/>
      <point x="350" y="892"/>
    </contour>
    <contour>
      <point x="354" y="670" type="curve" smooth="yes"/>
      <point x="572" y="37" type="line" smooth="yes"/>
      <point x="573" y="34"/>
      <point x="573" y="31"/>
      <point x="573" y="28" type="curve" smooth="yes"/>
      <point x="573" y="13"/>
      <point x="562" y="-1"/>
      <point x="545" y="-1" type="curve" smooth="yes"/>
      <point x="533" y="-1"/>
      <point x="522" y="6"/>
      <point x="518" y="18" type="curve" smooth="yes"/>
      <point x="434" y="262" type="line"/>
      <point x="179" y="206" type="line"/>
      <point x="105" y="18" type="line" smooth="yes"/>
      <point x="101" y="7"/>
      <point x="90" y="0"/>
      <point x="79" y="0" type="curve" smooth="yes"/>
      <point x="62" y="0"/>
      <point x="50" y="15"/>
      <point x="50" y="29" type="curve" smooth="yes"/>
      <point x="50" y="32"/>
      <point x="51" y="36"/>
      <point x="52" y="39" type="curve" smooth="yes"/>
      <point x="112" y="192" type="line"/>
      <point x="96" y="188"/>
      <point x="94" y="188"/>
      <point x="92" y="188" type="curve" smooth="yes"/>
      <point x="76" y="188"/>
      <point x="63" y="200"/>
      <point x="63" y="217" type="curve" smooth="yes"/>
      <point x="63" y="230"/>
      <point x="72" y="241"/>
      <point x="85" y="244" type="curve" smooth="yes"/>
      <point x="137" y="256" type="line"/>
      <point x="300" y="671" type="line" smooth="yes"/>
      <point x="305" y="682"/>
      <point x="316" y="689"/>
      <point x="328" y="689" type="curve" smooth="yes"/>
      <point x="339" y="689"/>
      <point x="350" y="681"/>
    </contour>
    <contour>
      <point x="204" y="270" type="line"/>
      <point x="415" y="316" type="line"/>
      <point x="325" y="578" type="line"/>
    </contour>
  </outline>
</glyph>
<glyph name="Atilde" format="1">
  <advance width="624"/>
  <unicode hex="00C3"/>
  <outline>
    <contour>
      <point x="452" y="833" type="curve" smooth="yes"/>
      <point x="441" y="804"/>
      <point x="422" y="755"/>
      <point x="392" y="755" type="curve" smooth="yes"/>
      <point x="375" y="755"/>
      <point x="364" y="777"/>
      <point x="345" y="803" type="curve" smooth="yes"/>
      <point x="325" y="830"/>
      <point x="301" y="863"/>
      <point x="256" y="863" type="curve" smooth="yes"/>
      <point x="219" y="863"/>
      <point x="188" y="842"/>
      <point x="166" y="804" type="curve" smooth="yes"/>
      <point x="160" y="793"/>
      <point x="150" y="776"/>
      <point x="150" y="761" type="curve" smooth="yes"/>
      <point x="150" y="747"/>
      <point x="162" y="736"/>
      <point x="176" y="736" type="curve" smooth="yes"/>
      <point x="188" y="736"/>
      <point x="197" y="742"/>
      <point x="201" y="755" type="curve" smooth="yes"/>
      <point x="217" y="804"/>
      <point x="243" y="821"/>
      <point x="256" y="821" type="curve" smooth="yes"/>
      <point x="273" y="821"/>
      <point x="284" y="799"/>
      <point x="303" y="773" type="curve" smooth="yes"/>
      <point x="323" y="745"/>
      <point x="347" y="713"/>
      <point x="392" y="713" type="curve" smooth="yes"/>
      <point x="457" y="713"/>
      <point x="488" y="781"/>
      <point x="499" y="812" type="curve" smooth="yes"/>
      <point x="501" y="818"/>
      <point x="502" y="821"/>
      <point x="502" y="826" type="curve" smooth="yes"/>
      <point x="502" y="839"/>
      <point x="490" y="850"/>
      <point x="476" y="850" type="curve" smooth="yes"/>
      <point x="466" y="850"/>
      <point x="456" y="843"/>
    </contour>
    <contour>
      <point x="354" y="670" type="line" smooth="yes"/>
      <point x="350" y="681"/>
      <point x="339" y="689"/>
      <point x="328" y="689" type="curve" smooth="yes"/>
      <point x="316" y="689"/>
      <point x="305" y="682"/>
      <point x="300" y="671" type="curve" smooth="yes"/>
      <point x="137" y="256" type="line"/>
      <point x="85" y="244" type="line" smooth="yes"/>
      <point x="72" y="241"/>
      <point x="63" y="230"/>
      <point x="63" y="217" type="curve" smooth="yes"/>
      <point x="63" y="200"/>
      <point x="76" y="188"/>
      <point x="92" y="188" type="curve" smooth="yes"/>
      <point x="94" y="188"/>
      <point x="96" y="188"/>
      <point x="112" y="192" type="curve"/>
      <point x="52" y="39" type="line" smooth="yes"/>
      <point x="51" y="36"/>
      <point x="50" y="32"/>
      <point x="50" y="29" type="curve" smooth="yes"/>
      <point x="50" y="15"/>
      <point x="62" y="0"/>
      <point x="79" y="0" type="curve" smooth="yes"/>
      <point x="90" y="0"/>
      <point x="101" y="7"/>
      <point x="105" y="18" type="curve" smooth="yes"/>
      <point x="179" y="206" type="line"/>
      <point x="434" y="262" type="line"/>
      <point x="518" y="18" type="line" smooth="yes"/>
      <point x="522" y="6"/>
      <point x="533" y="-1"/>
      <point x="545" y="-1" type="curve" smooth="yes"/>
      <point x="562" y="-1"/>
      <point x="573" y="13"/>
      <point x="573" y="28" type="curve" smooth="yes"/>
      <point x="573" y="31"/>
      <point x="573" y="34"/>
      <point x="572" y="37" type="curve" smooth="yes"/>
    </contour>
    <contour>
      <point x="204" y="270" type="line"/>
      <point x="325" y="578" type="line"/>
      <point x="415" y="316" type="line"/>
    </contour>
  </outline>
</glyph>
<glyph name="Aring" format="1">
  <advance width="624"/>
  <unicode hex="00C5"/>
  <outline>
    <contour>
      <point x="322" y="721" type="curve" smooth="yes"/>
      <point x="389" y="721"/>
      <point x="457" y="768"/>
      <point x="457" y="837" type="curve" smooth="yes"/>
      <point x="457" y="895"/>
      <point x="404" y="940"/>
      <point x="344" y="940" type="curve" smooth="yes"/>
      <point x="276" y="940"/>
      <point x="208" y="891"/>
      <point x="208" y="823" type="curve" smooth="yes"/>
      <point x="208" y="766"/>
      <point x="260" y="721"/>
    </contour>
    <contour>
      <point x="340" y="893" type="curve" smooth="yes"/>
      <point x="383" y="893"/>
      <point x="415" y="864"/>
      <point x="415" y="835" type="curve" smooth="yes"/>
      <point x="415" y="793"/>
      <point x="366" y="767"/>
      <point x="331" y="767" type="curve" smooth="yes"/>
      <point x="285" y="767"/>
      <point x="250" y="788"/>
      <point x="250" y="823" type="curve" smooth="yes"/>
      <point x="250" y="853"/>
      <point x="286" y="893"/>
    </contour>
    <contour>
      <point x="354" y="670" type="line" smooth="yes"/>
      <point x="350" y="681"/>
      <point x="339" y="689"/>
      <point x="328" y="689" type="curve" smooth="yes"/>
      <point x="316" y="689"/>
      <point x="305" y="682"/>
      <point x="300" y="671" type="curve" smooth="yes"/>
      <point x="137" y="256" type="line"/>
      <point x="85" y="244" type="line" smooth="yes"/>
      <point x="72" y="241"/>
      <point x="63" y="230"/>
      <point x="63" y="217" type="curve" smooth="yes"/>
      <point x="63" y="200"/>
      <point x="76" y="188"/>
      <point x="92" y="188" type="curve" smooth="yes"/>
      <point x="94" y="188"/>
      <point x="96" y="188"/>
      <point x="112" y="192" type="curve"/>
      <point x="52" y="39" type="line" smooth="yes"/>
      <point x="51" y="36"/>
      <point x="50" y="32"/>
      <point x="50" y="29" type="curve" smooth="yes"/>
      <point x="50" y="15"/>
      <point x="62" y="0"/>
      <point x="79" y="0" type="curve" smooth="yes"/>
      <point x="90" y="0"/>
      <point x="101" y="7"/>
      <point x="105" y="18" type="curve" smooth="yes"/>
      <point x="179" y="206" type="line"/>
      <point x="434" y="262" type="line"/>
      <point x="518" y="18" type="line" smooth="yes"/>
      <point x="522" y="6"/>
      <point x="533" y="-1"/>
      <point x="545" y="-1" type="curve" smooth="yes"/>
      <point x="562" y="-1"/>
      <point x="573" y="13"/>
      <point x="573" y="28" type="curve" smooth="yes"/>
      <point x="573" y="31"/>
      <point x="573" y="34"/>
      <point x="572" y="37" type="curve" smooth="yes"/>
    </contour>
    <contour>
      <point x="204" y="270" type="line"/>
      <point x="325" y="578" type="line"/>
      <point x="415" y="316" type="line"/>
    </contour>
  </outline>
</glyph>
<glyph name="AE" format="1">
  <advance width="1040"/>
  <unicode hex="00C6"/>
  <outline>
    <contour>
      <point x="551" y="54" type="line"/>
      <point x="551" y="310" type="line"/>
      <point x="903" y="309" type="line" smooth="yes"/>
      <point x="918" y="309"/>
      <point x="930" y="321"/>
      <point x="930" y="337" type="curve" smooth="yes"/>
      <point x="930" y="351"/>
      <point x="918" y="364"/>
      <point x="903" y="364" type="curve" smooth="yes"/>
      <point x="551" y="364" type="line"/>
      <point x="551" y="627" type="line"/>
      <point x="953" y="627" type="line" smooth="yes"/>
      <point x="969" y="627"/>
      <point x="980" y="640"/>
      <point x="980" y="654" type="curve" smooth="yes"/>
      <point x="980" y="670"/>
      <point x="969" y="681"/>
      <point x="953" y="681" type="curve" smooth="yes"/>
      <point x="521" y="681" type="line" smooth="yes"/>
      <point x="512" y="681"/>
      <point x="505" y="675"/>
      <point x="502" y="670" type="curve" smooth="yes"/>
      <point x="245" y="307" type="line"/>
      <point x="175" y="293" type="line" smooth="yes"/>
      <point x="161" y="290"/>
      <point x="152" y="280"/>
      <point x="152" y="267" type="curve" smooth="yes"/>
      <point x="152" y="251"/>
      <point x="165" y="236"/>
      <point x="180" y="239" type="curve" smooth="yes"/>
      <point x="199" y="243" type="line"/>
      <point x="55" y="39" type="line" smooth="yes"/>
      <point x="51" y="34"/>
      <point x="50" y="29"/>
      <point x="50" y="23" type="curve" smooth="yes"/>
      <point x="50" y="10"/>
      <point x="63" y="-3"/>
      <point x="77" y="-3" type="curve" smooth="yes"/>
      <point x="85" y="-3"/>
      <point x="94" y="1"/>
      <point x="99" y="8" type="curve" smooth="yes"/>
      <point x="276" y="258" type="line"/>
      <point x="497" y="304" type="line"/>
      <point x="497" y="27" type="line" smooth="yes"/>
      <point x="497" y="12"/>
      <point x="509" y="0"/>
      <point x="524" y="0" type="curve" smooth="yes"/>
      <point x="953" y="0" type="line" smooth="yes"/>
      <point x="969" y="0"/>
      <point x="980" y="12"/>
      <point x="980" y="27" type="curve" smooth="yes"/>
      <point x="980" y="43"/>
      <point x="969" y="54"/>
      <point x="953" y="54" type="curve" smooth="yes"/>
    </contour>
    <contour>
      <point x="323" y="323" type="line"/>
      <point x="497" y="569" type="line"/>
      <point x="497" y="359" type="line"/>
    </contour>
  </outline>
</glyph>
<glyph name="Eacute" format="1">
  <advance width="610"/>
  <unicode hex="00C9"/>
  <outline>
    <contour>
      <point x="400" y="835" type="line" smooth="yes"/>
      <point x="407" y="840"/>
      <point x="410" y="849"/>
      <point x="410" y="858" type="curve" smooth="yes"/>
      <point x="410" y="878"/>
      <point x="395" y="894"/>
      <point x="376" y="894" type="curve" smooth="yes"/>
      <point x="365" y="894"/>
      <point x="355" y="886"/>
      <point x="347" y="879" type="curve" smooth="yes"/>
      <point x="221" y="776" type="line" smooth="yes"/>
      <point x="216" y="772"/>
      <point x="215" y="765"/>
      <point x="215" y="759" type="curve" smooth="yes"/>
      <point x="215" y="744"/>
      <point x="227" y="732"/>
      <point x="241" y="732" type="curve" smooth="yes"/>
      <point x="247" y="732"/>
      <point x="255" y="736"/>
      <point x="262" y="741" type="curve" smooth="yes"/>
    </contour>
    <contour>
      <point x="122" y="57" type="line"/>
      <point x="122" y="324" type="line"/>
      <point x="473" y="324" type="line" smooth="yes"/>
      <point x="489" y="324"/>
      <point x="501" y="337"/>
      <point x="501" y="353" type="curve" smooth="yes"/>
      <point x="501" y="369"/>
      <point x="489" y="381"/>
      <point x="473" y="381" type="curve" smooth="yes"/>
      <point x="122" y="381" type="line"/>
      <point x="122" y="625" type="line"/>
      <point x="522" y="625" type="line" smooth="yes"/>
      <point x="538" y="625"/>
      <point x="550" y="638"/>
      <point x="550" y="654" type="curve" smooth="yes"/>
      <point x="550" y="670"/>
      <point x="538" y="682"/>
      <point x="522" y="682" type="curve" smooth="yes"/>
      <point x="94" y="682" type="line" smooth="yes"/>
      <point x="78" y="682"/>
      <point x="65" y="670"/>
      <point x="65" y="654" type="curve" smooth="yes"/>
      <point x="65" y="29" type="line" smooth="yes"/>
      <point x="65" y="13"/>
      <point x="78" y="0"/>
      <point x="94" y="0" type="curve" smooth="yes"/>
      <point x="520" y="0" type="line" smooth="yes"/>
      <point x="536" y="0"/>
      <point x="548" y="13"/>
      <point x="548" y="29" type="curve" smooth="yes"/>
      <point x="548" y="45"/>
      <point x="536" y="57"/>
      <point x="520" y="57" type="curve" smooth="yes"/>
    </contour>
  </outline>
</glyph>
<glyph name="Edieresis" format="1">
  <advance width="610"/>
  <unicode hex="00CB"/>
  <outline>
    <contour>
      <point x="281" y="777" type="curve" smooth="yes"/>
      <point x="281" y="799"/>
      <point x="259" y="816"/>
      <point x="236" y="816" type="curve" smooth="yes"/>
      <point x="208" y="816"/>
      <point x="185" y="795"/>
      <point x="185" y="772" type="curve" smooth="yes"/>
      <point x="185" y="749"/>
      <point x="205" y="733"/>
      <point x="230" y="733" type="curve" smooth="yes"/>
      <point x="259" y="733"/>
      <point x="281" y="753"/>
    </contour>
    <contour>
      <point x="440" y="777" type="curve" smooth="yes"/>
      <point x="440" y="799"/>
      <point x="418" y="816"/>
      <point x="395" y="816" type="curve" smooth="yes"/>
      <point x="367" y="816"/>
      <point x="344" y="795"/>
      <point x="344" y="772" type="curve" smooth="yes"/>
      <point x="344" y="749"/>
      <point x="364" y="733"/>
      <point x="389" y="733" type="curve" smooth="yes"/>
      <point x="418" y="733"/>
      <point x="440" y="753"/>
    </contour>
    <contour>
      <point x="122" y="57" type="line"/>
      <point x="122" y="324" type="line"/>
      <point x="473" y="324" type="line" smooth="yes"/>
      <point x="489" y="324"/>
      <point x="501" y="337"/>
      <point x="501" y="353" type="curve" smooth="yes"/>
      <point x="501" y="369"/>
      <point x="489" y="381"/>
      <point x="473" y="381" type="curve" smooth="yes"/>
      <point x="122" y="381" type="line"/>
      <point x="122" y="625" type="line"/>
      <point x="522" y="625" type="line" smooth="yes"/>
      <point x="538" y="625"/>
      <point x="550" y="638"/>
      <point x="550" y="654" type="curve" smooth="yes"/>
      <point x="550" y="670"/>
      <point x="538" y="682"/>
      <point x="522" y="682" type="curve" smooth="yes"/>
      <point x="94" y="682" type="line" smooth="yes"/>
      <point x="78" y="682"/>
      <point x="65" y="670"/>
      <point x="65" y="654" type="curve" smooth="yes"/>
      <point x="65" y="29" type="line" smooth="yes"/>
      <point x="65" y="13"/>
      <point x="78" y="0"/>
      <point x="94" y="0" type="curve" smooth="yes"/>
      <point x="520" y="0" type="line" smooth="yes"/>
      <point x="536" y="0"/>
      <point x="548" y="13"/>
      <point x="548" y="29" type="curve" smooth="yes"/>
      <point x="548" y="45"/>
      <point x="536" y="57"/>
      <point x="520" y="57" type="curve" smooth="yes"/>
    </contour>
  </outline>
</glyph>
<glyph name="Idieresis" format="1">
  <advance width="433"/>
  <unicode hex="00CF"/>
  <outline>
    <contour>
      <point x="246" y="56" type="line"/>
      <point x="246" y="624" type="line"/>
      <point x="345" y="624" type="line" smooth="yes"/>
      <point x="361" y="624"/>
      <point x="373" y="637"/>
      <point x="373" y="653" type="curve" smooth="yes"/>
      <point x="373" y="669"/>
      <point x="361" y="681"/>
      <point x="345" y="681" type="curve" smooth="yes"/>
      <point x="89" y="681" type="line" smooth="yes"/>
      <point x="73" y="681"/>
      <point x="60" y="669"/>
      <point x="60" y="653" type="curve" smooth="yes"/>
      <point x="60" y="637"/>
      <point x="73" y="624"/>
      <point x="89" y="624" type="curve" smooth="yes"/>
      <point x="189" y="624" type="line"/>
      <point x="189" y="56" type="line"/>
      <point x="89" y="56" type="line" smooth="yes"/>
      <point x="73" y="56"/>
      <point x="60" y="44"/>
      <point x="60" y="28" type="curve" smooth="yes"/>
      <point x="60" y="12"/>
      <point x="73" y="-1"/>
      <point x="89" y="-1" type="curve" smooth="yes"/>
      <point x="345" y="-1" type="line" smooth="yes"/>
      <point x="361" y="-1"/>
      <point x="373" y="12"/>
      <point x="373" y="28" type="curve" smooth="yes"/>
      <point x="373" y="44"/>
      <point x="362" y="56"/>
      <point x="345" y="56" type="curve" smooth="yes"/>
    </contour>
    <contour>
      <point x="190" y="777" type="curve" smooth="yes"/>
      <point x="190" y="799"/>
      <point x="168" y="816"/>
      <point x="145" y="816" type="curve" smooth="yes"/>
      <point x="117" y="816"/>
      <point x="94" y="795"/>
      <point x="94" y="772" type="curve" smooth="yes"/>
      <point x="94" y="749"/>
      <point x="114" y="733"/>
      <point x="139" y="733" type="curve" smooth="yes"/>
      <point x="168" y="733"/>
      <point x="190" y="753"/>
    </contour>
    <contour>
      <point x="349" y="777" type="curve" smooth="yes"/>
      <point x="349" y="799"/>
      <point x="327" y="816"/>
      <point x="304" y="816" type="curve" smooth="yes"/>
      <point x="276" y="816"/>
      <point x="253" y="795"/>
      <point x="253" y="772" type="curve" smooth="yes"/>
      <point x="253" y="749"/>
      <point x="273" y="733"/>
      <point x="298" y="733" type="curve" smooth="yes"/>
      <point x="327" y="733"/>
      <point x="349" y="753"/>
    </contour>
  </outline>
</glyph>
<glyph name="Ntilde" format="1">
  <advance width="619"/>
  <unicode hex="00D1"/>
  <outline>
    <contour>
      <point x="526" y="0" type="curve" smooth="yes"/>
      <point x="542" y="0"/>
      <point x="554" y="13"/>
      <point x="554" y="28" type="curve" smooth="yes"/>
      <point x="554" y="654" type="line" smooth="yes"/>
      <point x="554" y="669"/>
      <point x="541" y="682"/>
      <point x="526" y="682" type="curve" smooth="yes"/>
      <point x="510" y="682"/>
      <point x="498" y="669"/>
      <point x="498" y="654" type="curve" smooth="yes"/>
      <point x="498" y="117" type="line"/>
      <point x="117" y="669" type="line" smooth="yes"/>
      <point x="111" y="677"/>
      <point x="102" y="681"/>
      <point x="93" y="681" type="curve" smooth="yes"/>
      <point x="77" y="681"/>
      <point x="66" y="667"/>
      <point x="66" y="653" type="curve" smooth="yes"/>
      <point x="65" y="28" type="line" smooth="yes"/>
      <point x="65" y="13"/>
      <point x="78" y="0"/>
      <point x="93" y="0" type="curve" smooth="yes"/>
      <point x="109" y="0"/>
      <point x="121" y="12"/>
      <point x="121" y="28" type="curve" smooth="yes"/>
      <point x="122" y="563" type="line"/>
      <point x="503" y="12" type="line" smooth="yes"/>
      <point x="508" y="4"/>
      <point x="517" y="0"/>
    </contour>
    <contour>
      <point x="446" y="833" type="curve" smooth="yes"/>
      <point x="435" y="804"/>
      <point x="416" y="755"/>
      <point x="386" y="755" type="curve" smooth="yes"/>
      <point x="369" y="755"/>
      <point x="358" y="777"/>
      <point x="339" y="803" type="curve" smooth="yes"/>
      <point x="319" y="830"/>
      <point x="295" y="863"/>
      <point x="250" y="863" type="curve" smooth="yes"/>
      <point x="213" y="863"/>
      <point x="182" y="842"/>
      <point x="160" y="804" type="curve" smooth="yes"/>
      <point x="154" y="793"/>
      <point x="144" y="776"/>
      <point x="144" y="761" type="curve" smooth="yes"/>
      <point x="144" y="747"/>
      <point x="156" y="736"/>
      <point x="170" y="736" type="curve" smooth="yes"/>
      <point x="182" y="736"/>
      <point x="191" y="742"/>
      <point x="195" y="755" type="curve" smooth="yes"/>
      <point x="211" y="804"/>
      <point x="237" y="821"/>
      <point x="250" y="821" type="curve" smooth="yes"/>
      <point x="267" y="821"/>
      <point x="278" y="799"/>
      <point x="297" y="773" type="curve" smooth="yes"/>
      <point x="317" y="745"/>
      <point x="341" y="713"/>
      <point x="386" y="713" type="curve" smooth="yes"/>
      <point x="451" y="713"/>
      <point x="482" y="781"/>
      <point x="493" y="812" type="curve" smooth="yes"/>
      <point x="495" y="818"/>
      <point x="496" y="821"/>
      <point x="496" y="826" type="curve" smooth="yes"/>
      <point x="496" y="839"/>
      <point x="484" y="850"/>
      <point x="470" y="850" type="curve" smooth="yes"/>
      <point x="460" y="850"/>
      <point x="450" y="843"/>
    </contour>
  </outline>
</glyph>
<glyph name="Ograve" format="1">
  <advance width="660"/>
  <unicode hex="00D2"/>
  <outline>
    <contour>
      <point x="309" y="-2" type="curve" smooth="yes"/>
      <point x="465" y="-2"/>
      <point x="600" y="167"/>
      <point x="600" y="367" type="curve" smooth="yes"/>
      <point x="600" y="539"/>
      <point x="495" y="682"/>
      <point x="351" y="682" type="curve" smooth="yes"/>
      <point x="195" y="682"/>
      <point x="60" y="513"/>
      <point x="60" y="313" type="curve" smooth="yes"/>
      <point x="60" y="143"/>
      <point x="164" y="-2"/>
    </contour>
    <contour>
      <point x="344" y="630" type="curve" smooth="yes"/>
      <point x="463" y="630"/>
      <point x="547" y="498"/>
      <point x="547" y="363" type="curve" smooth="yes"/>
      <point x="547" y="193"/>
      <point x="432" y="50"/>
      <point x="309" y="50" type="curve" smooth="yes"/>
      <point x="195" y="50"/>
      <point x="113" y="169"/>
      <point x="113" y="313" type="curve" smooth="yes"/>
      <point x="113" y="489"/>
      <point x="221" y="630"/>
    </contour>
    <contour>
      <point x="388" y="725" type="line" smooth="yes"/>
      <point x="393" y="720"/>
      <point x="399" y="716"/>
      <point x="407" y="716" type="curve" smooth="yes"/>
      <point x="421" y="716"/>
      <point x="435" y="727"/>
      <point x="435" y="742" type="curve" smooth="yes"/>
      <point x="435" y="748"/>
      <point x="433" y="753"/>
      <point x="428" y="760" type="curve" smooth="yes"/>
      <point x="323" y="890" type="line" smooth="yes"/>
      <point x="316" y="898"/>
      <point x="305" y="905"/>
      <point x="294" y="905" type="curve" smooth="yes"/>
      <point x="276" y="905"/>
      <point x="259" y="889"/>
      <point x="259" y="871" type="curve" smooth="yes"/>
      <point x="259" y="861"/>
      <point x="263" y="853"/>
      <point x="270" y="846" type="curve" smooth="yes"/>
    </contour>
  </outline>
</glyph>
<glyph name="Oacute" format="1">
  <advance width="660"/>
  <unicode hex="00D3"/>
  <outline>
    <contour>
      <point x="309" y="-2" type="curve" smooth="yes"/>
      <point x="465" y="-2"/>
      <point x="600" y="167"/>
      <point x="600" y="367" type="curve" smooth="yes"/>
      <point x="600" y="539"/>
      <point x="495" y="682"/>
      <point x="351" y="682" type="curve" smooth="yes"/>
      <point x="195" y="682"/>
      <point x="60" y="513"/>
      <point x="60" y="313" type="curve" smooth="yes"/>
      <point x="60" y="143"/>
      <point x="164" y="-2"/>
    </contour>
    <contour>
      <point x="344" y="630" type="curve" smooth="yes"/>
      <point x="463" y="630"/>
      <point x="547" y="498"/>
      <point x="547" y="363" type="curve" smooth="yes"/>
      <point x="547" y="193"/>
      <point x="432" y="50"/>
      <point x="309" y="50" type="curve" smooth="yes"/>
      <point x="195" y="50"/>
      <point x="113" y="169"/>
      <point x="113" y="313" type="curve" smooth="yes"/>
      <point x="113" y="489"/>
      <point x="221" y="630"/>
    </contour>
    <contour>
      <point x="455" y="835" type="line" smooth="yes"/>
      <point x="462" y="840"/>
      <point x="465" y="849"/>
      <point x="465" y="858" type="curve" smooth="yes"/>
      <point x="465" y="878"/>
      <point x="450" y="894"/>
      <point x="431" y="894" type="curve" smooth="yes"/>
      <point x="420" y="894"/>
      <point x="410" y="886"/>
      <point x="402" y="879" type="curve" smooth="yes"/>
      <point x="276" y="776" type="line" smooth="yes"/>
      <point x="271" y="772"/>
      <point x="270" y="765"/>
      <point x="270" y="759" type="curve" smooth="yes"/>
      <point x="270" y="744"/>
      <point x="282" y="732"/>
      <point x="296" y="732" type="curve" smooth="yes"/>
      <point x="302" y="732"/>
      <point x="310" y="736"/>
      <point x="317" y="741" type="curve" smooth="yes"/>
    </contour>
  </outline>
</glyph>
<glyph name="Odieresis" format="1">
  <advance width="660"/>
  <unicode hex="00D6"/>
  <outline>
    <contour>
      <point x="309" y="-2" type="curve" smooth="yes"/>
      <point x="465" y="-2"/>
      <point x="600" y="167"/>
      <point x="600" y="367" type="curve" smooth="yes"/>
      <point x="600" y="539"/>
      <point x="495" y="682"/>
      <point x="351" y="682" type="curve" smooth="yes"/>
      <point x="195" y="682"/>
      <point x="60" y="513"/>
      <point x="60" y="313" type="curve" smooth="yes"/>
      <point x="60" y="143"/>
      <point x="164" y="-2"/>
    </contour>
    <contour>
      <point x="344" y="630" type="curve" smooth="yes"/>
      <point x="463" y="630"/>
      <point x="547" y="498"/>
      <point x="547" y="363" type="curve" smooth="yes"/>
      <point x="547" y="193"/>
      <point x="432" y="50"/>
      <point x="309" y="50" type="curve" smooth="yes"/>
      <point x="195" y="50"/>
      <point x="113" y="169"/>
      <point x="113" y="313" type="curve" smooth="yes"/>
      <point x="113" y="489"/>
      <point x="221" y="630"/>
    </contour>
    <contour>
      <point x="331" y="777" type="curve" smooth="yes"/>
      <point x="331" y="799"/>
      <point x="309" y="816"/>
      <point x="286" y="816" type="curve" smooth="yes"/>
      <point x="258" y="816"/>
      <point x="235" y="795"/>
      <point x="235" y="772" type="curve" smooth="yes"/>
      <point x="235" y="749"/>
      <point x="255" y="733"/>
      <point x="280" y="733" type="curve" smooth="yes"/>
      <point x="309" y="733"/>
      <point x="331" y="753"/>
    </contour>
    <contour>
      <point x="490" y="777" type="curve" smooth="yes"/>
      <point x="490" y="799"/>
      <point x="468" y="816"/>
      <point x="445" y="816" type="curve" smooth="yes"/>
      <point x="417" y="816"/>
      <point x="394" y="795"/>
      <point x="394" y="772" type="curve" smooth="yes"/>
      <point x="394" y="749"/>
      <point x="414" y="733"/>
      <point x="439" y="733" type="curve" smooth="yes"/>
      <point x="468" y="733"/>
      <point x="490" y="753"/>
    </contour>
  </outline>
</glyph>
<glyph name="multiply" format="1">
  <advance width="441"/>
  <unicode hex="00D7"/>
  <outline>
    <contour>
      <point x="342" y="336" type="curve" smooth="yes"/>
      <point x="342" y="330"/>
      <point x="339" y="324"/>
      <point x="335" y="320" type="curve" smooth="yes"/>
      <point x="258" y="243" type="line"/>
      <point x="334" y="166" type="line" smooth="yes"/>
      <point x="339" y="161"/>
      <point x="342" y="155"/>
      <point x="342" y="148" type="curve" smooth="yes"/>
      <point x="342" y="132"/>
      <point x="330" y="121"/>
      <point x="316" y="121" type="curve" smooth="yes"/>
      <point x="309" y="121"/>
      <point x="302" y="124"/>
      <point x="297" y="129" type="curve" smooth="yes"/>
      <point x="221" y="205" type="line"/>
      <point x="143" y="128" type="line" smooth="yes"/>
      <point x="138" y="123"/>
      <point x="132" y="120"/>
      <point x="124" y="120" type="curve" smooth="yes"/>
      <point x="108" y="120"/>
      <point x="98" y="134"/>
      <point x="98" y="146" type="curve" smooth="yes"/>
      <point x="98" y="153"/>
      <point x="101" y="160"/>
      <point x="106" y="165" type="curve" smooth="yes"/>
      <point x="184" y="243" type="line"/>
      <point x="114" y="312" type="line" smooth="yes"/>
      <point x="109" y="317"/>
      <point x="106" y="323"/>
      <point x="106" y="331" type="curve" smooth="yes"/>
      <point x="106" y="344"/>
      <point x="118" y="357"/>
      <point x="132" y="357" type="curve" smooth="yes"/>
      <point x="140" y="357"/>
      <point x="146" y="354"/>
      <point x="151" y="349" type="curve" smooth="yes"/>
      <point x="221" y="280" type="line"/>
      <point x="298" y="357" type="line" smooth="yes"/>
      <point x="302" y="361"/>
      <point x="308" y="364"/>
      <point x="314" y="364" type="curve" smooth="yes"/>
      <point x="333" y="364"/>
      <point x="342" y="353"/>
    </contour>
  </outline>
</glyph>
<glyph name="Oslash" format="1">
  <advance width="660"/>
  <unicode hex="00D8"/>
  <outline>
    <contour>
      <point x="309" y="-2" type="curve" smooth="yes"/>
      <point x="258" y="-2"/>
      <point x="212" y="15"/>
      <point x="174" y="46" type="curve"/>
      <point x="138" y="-19" type="line" smooth="yes"/>
      <point x="133" y="-28"/>
      <point x="126" y="-32"/>
      <point x="116" y="-32" type="curve" smooth="yes"/>
      <point x="98" y="-32"/>
      <point x="89" y="-20"/>
      <point x="89" y="-5" type="curve" smooth="yes"/>
      <point x="89" y="-1"/>
      <point x="90" y="3"/>
      <point x="92" y="7" type="curve" smooth="yes"/>
      <point x="135" y="85" type="line"/>
      <point x="88" y="143"/>
      <point x="60" y="224"/>
      <point x="60" y="313" type="curve" smooth="yes"/>
      <point x="60" y="513"/>
      <point x="195" y="682"/>
      <point x="351" y="682" type="curve" smooth="yes"/>
      <point x="388" y="682"/>
      <point x="422" y="672"/>
      <point x="453" y="655" type="curve"/>
      <point x="494" y="730" type="line" smooth="yes"/>
      <point x="498" y="738"/>
      <point x="507" y="743"/>
      <point x="517" y="743" type="curve" smooth="yes"/>
      <point x="529" y="743"/>
      <point x="543" y="733"/>
      <point x="543" y="717" type="curve" smooth="yes"/>
      <point x="543" y="713"/>
      <point x="542" y="708"/>
      <point x="540" y="704" type="curve" smooth="yes"/>
      <point x="496" y="625" type="line"/>
      <point x="560" y="567"/>
      <point x="600" y="473"/>
      <point x="600" y="367" type="curve" smooth="yes"/>
      <point x="600" y="167"/>
      <point x="465" y="-2"/>
    </contour>
    <contour>
      <point x="309" y="50" type="curve" smooth="yes"/>
      <point x="432" y="50"/>
      <point x="547" y="193"/>
      <point x="547" y="363" type="curve" smooth="yes"/>
      <point x="547" y="443"/>
      <point x="517" y="523"/>
      <point x="468" y="574" type="curve"/>
      <point x="200" y="92" type="line"/>
      <point x="230" y="65"/>
      <point x="267" y="50"/>
    </contour>
    <contour>
      <point x="344" y="630" type="curve" smooth="yes"/>
      <point x="221" y="630"/>
      <point x="113" y="489"/>
      <point x="113" y="313" type="curve" smooth="yes"/>
      <point x="113" y="244"/>
      <point x="131" y="182"/>
      <point x="163" y="135" type="curve"/>
      <point x="426" y="607" type="line"/>
      <point x="401" y="622"/>
      <point x="373" y="630"/>
    </contour>
  </outline>
</glyph>
<glyph name="Ugrave" format="1">
  <advance width="683"/>
  <unicode hex="00D9"/>
  <outline>
    <contour>
      <point x="616" y="653" type="curve" smooth="yes"/>
      <point x="616" y="668"/>
      <point x="603" y="681"/>
      <point x="588" y="681" type="curve" smooth="yes"/>
      <point x="570" y="681"/>
      <point x="560" y="667"/>
      <point x="560" y="651" type="curve" smooth="yes"/>
      <point x="560" y="518"/>
      <point x="565" y="397"/>
      <point x="552" y="277" type="curve" smooth="yes"/>
      <point x="536" y="139"/>
      <point x="470" y="49"/>
      <point x="335" y="49" type="curve" smooth="yes"/>
      <point x="159" y="49"/>
      <point x="128" y="236"/>
      <point x="123" y="381" type="curve" smooth="yes"/>
      <point x="120" y="474"/>
      <point x="121" y="564"/>
      <point x="123" y="653" type="curve" smooth="yes"/>
      <point x="123" y="669"/>
      <point x="110" y="681"/>
      <point x="95" y="681" type="curve" smooth="yes"/>
      <point x="81" y="681"/>
      <point x="67" y="670"/>
      <point x="67" y="654" type="curve" smooth="yes"/>
      <point x="66" y="569"/>
      <point x="63" y="474"/>
      <point x="67" y="367" type="curve" smooth="yes"/>
      <point x="76" y="125"/>
      <point x="165" y="0"/>
      <point x="333" y="0" type="curve" smooth="yes"/>
      <point x="510" y="0"/>
      <point x="587" y="110"/>
      <point x="608" y="270" type="curve" smooth="yes"/>
      <point x="625" y="400"/>
      <point x="620" y="527"/>
    </contour>
    <contour>
      <point x="366" y="725" type="line" smooth="yes"/>
      <point x="371" y="720"/>
      <point x="377" y="716"/>
      <point x="385" y="716" type="curve" smooth="yes"/>
      <point x="399" y="716"/>
      <point x="413" y="727"/>
      <point x="413" y="742" type="curve" smooth="yes"/>
      <point x="413" y="748"/>
      <point x="411" y="753"/>
      <point x="406" y="760" type="curve" smooth="yes"/>
      <point x="301" y="890" type="line" smooth="yes"/>
      <point x="294" y="898"/>
      <point x="283" y="905"/>
      <point x="272" y="905" type="curve" smooth="yes"/>
      <point x="254" y="905"/>
      <point x="237" y="889"/>
      <point x="237" y="871" type="curve" smooth="yes"/>
      <point x="237" y="861"/>
      <point x="241" y="853"/>
      <point x="248" y="846" type="curve" smooth="yes"/>
    </contour>
  </outline>
</glyph>
<glyph name="Ucircumflex" format="1">
  <advance width="683"/>
  <unicode hex="00DB"/>
  <outline>
    <contour>
      <point x="616" y="653" type="curve" smooth="yes"/>
      <point x="617.851" y="594.691"/>
      <point x="619.916" y="536.168"/>
      <point x="619.916" y="477.233" type="curve" smooth="yes"/>
      <point x="619.916" y="408.815"/>
      <point x="617.133" y="339.84"/>
      <point x="608" y="270" type="curve" smooth="yes"/>
      <point x="587" y="110"/>
      <point x="510" y="0"/>
      <point x="333" y="0" type="curve" smooth="yes"/>
      <point x="165" y="0"/>
      <point x="76" y="125"/>
      <point x="67" y="367" type="curve" smooth="yes"/>
      <point x="65.4914" y="407.356"/>
      <point x="64.9785" y="446.005"/>
      <point x="64.9785" y="483.055" type="curve" smooth="yes"/>
      <point x="64.9785" y="544.238"/>
      <point x="66.3772" y="601.059"/>
      <point x="67" y="654" type="curve" smooth="yes"/>
      <point x="67" y="670"/>
      <point x="81" y="681"/>
      <point x="95" y="681" type="curve" smooth="yes"/>
      <point x="110" y="681"/>
      <point x="123" y="669"/>
      <point x="123" y="653" type="curve" smooth="yes"/>
      <point x="121.903" y="604.176"/>
      <point x="121.107" y="555.051"/>
      <point x="121.107" y="505.295" type="curve" smooth="yes"/>
      <point x="121.107" y="464.352"/>
      <point x="121.646" y="422.982"/>
      <point x="123" y="381" type="curve" smooth="yes"/>
      <point x="128" y="236"/>
      <point x="159" y="49"/>
      <point x="335" y="49" type="curve" smooth="yes"/>
      <point x="470" y="49"/>
      <point x="536" y="139"/>
      <point x="552" y="277" type="curve" smooth="yes"/>
      <point x="559.348" y="344.826"/>
      <point x="560.945" y="412.972"/>
      <point x="560.945" y="483.423" type="curve" smooth="yes"/>
      <point x="560.945" y="537.616"/>
      <point x="560" y="593.174"/>
      <point x="560" y="651" type="curve" smooth="yes"/>
      <point x="560" y="667"/>
      <point x="570" y="681"/>
      <point x="588" y="681" type="curve" smooth="yes"/>
      <point x="603" y="681"/>
      <point x="616" y="668"/>
    </contour>
    <contour>
      <point x="382" y="887" type="curve" smooth="yes"/>
      <point x="492" y="777" type="line" smooth="yes"/>
      <point x="498" y="772"/>
      <point x="501" y="765"/>
      <point x="501" y="757" type="curve" smooth="yes"/>
      <point x="501" y="743"/>
      <point x="489" y="731"/>
      <point x="475" y="731" type="curve" smooth="yes"/>
      <point x="468" y="731"/>
      <point x="461" y="733"/>
      <point x="456" y="738" type="curve" smooth="yes"/>
      <point x="360" y="825" type="line"/>
      <point x="245" y="736" type="line" smooth="yes"/>
      <point x="240" y="732"/>
      <point x="234" y="731"/>
      <point x="228" y="731" type="curve" smooth="yes"/>
      <point x="214" y="731"/>
      <point x="202" y="742"/>
      <point x="202" y="757" type="curve" smooth="yes"/>
      <point x="202" y="765"/>
      <point x="205" y="773"/>
      <point x="212" y="778" type="curve" smooth="yes"/>
      <point x="343" y="888" type="line" smooth="yes"/>
      <point x="349" y="893"/>
      <point x="356" y="895"/>
      <point x="362" y="895" type="curve" smooth="yes"/>
      <point x="369" y="895"/>
      <point x="376" y="892"/>
    </contour>
  </outline>
</glyph>
<glyph name="germandbls" format="1">
  <advance width="525"/>
  <unicode hex="00DF"/>
  <outline>
    <contour>
      <point x="278" y="-25" type="curve" smooth="yes"/>
      <point x="385" y="-25"/>
      <point x="475" y="65"/>
      <point x="475" y="172" type="curve" smooth="yes"/>
      <point x="475" y="261"/>
      <point x="421" y="334"/>
      <point x="341" y="360" type="curve"/>
      <point x="371" y="391"/>
      <point x="390" y="432"/>
      <point x="390" y="476" type="curve" smooth="yes"/>
      <point x="390" y="566"/>
      <point x="317" y="639"/>
      <point x="228" y="639" type="curve" smooth="yes"/>
      <point x="138" y="639"/>
      <point x="65" y="566"/>
      <point x="65" y="476" type="curve" smooth="yes"/>
      <point x="65" y="25" type="line" smooth="yes"/>
      <point x="65" y="11"/>
      <point x="77" y="-1"/>
      <point x="91" y="-1" type="curve" smooth="yes"/>
      <point x="105" y="-1"/>
      <point x="117" y="11"/>
      <point x="117" y="25" type="curve" smooth="yes"/>
      <point x="117" y="476" type="line" smooth="yes"/>
      <point x="117" y="537"/>
      <point x="167" y="587"/>
      <point x="228" y="587" type="curve" smooth="yes"/>
      <point x="289" y="587"/>
      <point x="338" y="537"/>
      <point x="338" y="476" type="curve" smooth="yes"/>
      <point x="338" y="421"/>
      <point x="296" y="371"/>
      <point x="241" y="367" type="curve" smooth="yes"/>
      <point x="226" y="366" type="line" smooth="yes"/>
      <point x="212" y="365"/>
      <point x="202" y="353"/>
      <point x="202" y="339" type="curve" smooth="yes"/>
      <point x="202" y="325"/>
      <point x="215" y="314"/>
      <point x="228" y="314" type="curve" smooth="yes"/>
      <point x="238" y="314"/>
      <point x="248" y="316"/>
      <point x="257" y="317" type="curve" smooth="yes"/>
      <point x="359" y="330"/>
      <point x="423" y="252"/>
      <point x="423" y="173" type="curve" smooth="yes"/>
      <point x="423" y="93"/>
      <point x="356" y="27"/>
      <point x="278" y="27" type="curve" smooth="yes"/>
      <point x="254" y="27"/>
      <point x="230" y="33"/>
      <point x="209" y="44" type="curve" smooth="yes"/>
      <point x="205" y="46"/>
      <point x="201" y="47"/>
      <point x="197" y="47" type="curve" smooth="yes"/>
      <point x="184" y="47"/>
      <point x="171" y="36"/>
      <point x="171" y="21" type="curve" smooth="yes"/>
      <point x="171" y="-11"/>
      <point x="240" y="-25"/>
    </contour>
  </outline>
</glyph>
<glyph name="aacute" format="1">
  <advance width="505"/>
  <unicode hex="00E1"/>
  <outline>
    <contour>
      <point x="440" y="463" type="line"/>
      <point x="425" y="471"/>
      <point x="363" y="504"/>
      <point x="289" y="504" type="curve" smooth="yes"/>
      <point x="115" y="504"/>
      <point x="50" y="318"/>
      <point x="50" y="214" type="curve" smooth="yes"/>
      <point x="50" y="85"/>
      <point x="130" y="-2"/>
      <point x="238" y="-2" type="curve" smooth="yes"/>
      <point x="293" y="-2"/>
      <point x="348" y="23"/>
      <point x="384" y="45" type="curve"/>
      <point x="384" y="22" type="line" smooth="yes"/>
      <point x="384" y="5"/>
      <point x="393" y="-10"/>
      <point x="412" y="-10" type="curve" smooth="yes"/>
      <point x="428" y="-10"/>
      <point x="440" y="4"/>
      <point x="440" y="20" type="curve" smooth="yes"/>
    </contour>
    <contour>
      <point x="382" y="111" type="line"/>
      <point x="359" y="95"/>
      <point x="297" y="53"/>
      <point x="236" y="53" type="curve" smooth="yes"/>
      <point x="141" y="53"/>
      <point x="107" y="146"/>
      <point x="107" y="216" type="curve" smooth="yes"/>
      <point x="107" y="299"/>
      <point x="155" y="449"/>
      <point x="292" y="449" type="curve" smooth="yes"/>
      <point x="326" y="449"/>
      <point x="367" y="436"/>
      <point x="386" y="428" type="curve"/>
    </contour>
    <contour>
      <point x="416" y="666" type="line" smooth="yes"/>
      <point x="423" y="671"/>
      <point x="426" y="680"/>
      <point x="426" y="689" type="curve" smooth="yes"/>
      <point x="426" y="709"/>
      <point x="411" y="725"/>
      <point x="392" y="725" type="curve" smooth="yes"/>
      <point x="381" y="725"/>
      <point x="371" y="717"/>
      <point x="363" y="710" type="curve" smooth="yes"/>
      <point x="237" y="607" type="line" smooth="yes"/>
      <point x="232" y="603"/>
      <point x="231" y="596"/>
      <point x="231" y="590" type="curve" smooth="yes"/>
      <point x="231" y="575"/>
      <point x="243" y="563"/>
      <point x="257" y="563" type="curve" smooth="yes"/>
      <point x="263" y="563"/>
      <point x="271" y="567"/>
      <point x="278" y="572" type="curve" smooth="yes"/>
    </contour>
  </outline>
</glyph>
<glyph name="adieresis" format="1">
  <advance width="505"/>
  <unicode hex="00E4"/>
  <outline>
    <contour>
      <point x="440" y="463" type="line"/>
      <point x="425" y="471"/>
      <point x="363" y="504"/>
      <point x="289" y="504" type="curve" smooth="yes"/>
      <point x="115" y="504"/>
      <point x="50" y="318"/>
      <point x="50" y="214" type="curve" smooth="yes"/>
      <point x="50" y="85"/>
      <point x="130" y="-2"/>
      <point x="238" y="-2" type="curve" smooth="yes"/>
      <point x="293" y="-2"/>
      <point x="348" y="23"/>
      <point x="384" y="45" type="curve"/>
      <point x="384" y="22" type="line" smooth="yes"/>
      <point x="384" y="5"/>
      <point x="393" y="-10"/>
      <point x="412" y="-10" type="curve" smooth="yes"/>
      <point x="428" y="-10"/>
      <point x="440" y="4"/>
      <point x="440" y="20" type="curve" smooth="yes"/>
    </contour>
    <contour>
      <point x="382" y="111" type="line"/>
      <point x="359" y="95"/>
      <point x="297" y="53"/>
      <point x="236" y="53" type="curve" smooth="yes"/>
      <point x="141" y="53"/>
      <point x="107" y="146"/>
      <point x="107" y="216" type="curve" smooth="yes"/>
      <point x="107" y="299"/>
      <point x="155" y="449"/>
      <point x="292" y="449" type="curve" smooth="yes"/>
      <point x="326" y="449"/>
      <point x="367" y="436"/>
      <point x="386" y="428" type="curve"/>
    </contour>
    <contour>
      <point x="253" y="620" type="curve" smooth="yes"/>
      <point x="253" y="642"/>
      <point x="231" y="659"/>
      <point x="208" y="659" type="curve" smooth="yes"/>
      <point x="180" y="659"/>
      <point x="157" y="638"/>
      <point x="157" y="615" type="curve" smooth="yes"/>
      <point x="157" y="592"/>
      <point x="177" y="576"/>
      <point x="202" y="576" type="curve" smooth="yes"/>
      <point x="231" y="576"/>
      <point x="253" y="596"/>
    </contour>
    <contour>
      <point x="412" y="620" type="curve" smooth="yes"/>
      <point x="412" y="642"/>
      <point x="390" y="659"/>
      <point x="367" y="659" type="curve" smooth="yes"/>
      <point x="339" y="659"/>
      <point x="316" y="638"/>
      <point x="316" y="615" type="curve" smooth="yes"/>
      <point x="316" y="592"/>
      <point x="336" y="576"/>
      <point x="361" y="576" type="curve" smooth="yes"/>
      <point x="390" y="576"/>
      <point x="412" y="596"/>
    </contour>
  </outline>
</glyph>
<glyph name="ccedilla" format="1">
  <advance width="509"/>
  <unicode hex="00E7"/>
  <outline>
    <contour>
      <point x="221" y="-33" type="line" smooth="yes"/>
      <point x="217" y="-43"/>
      <point x="215" y="-50"/>
      <point x="215" y="-56" type="curve" smooth="yes"/>
      <point x="215" y="-68"/>
      <point x="225" y="-76"/>
      <point x="236" y="-76" type="curve" smooth="yes"/>
      <point x="240" y="-76"/>
      <point x="244" y="-74"/>
      <point x="248" y="-71" type="curve" smooth="yes"/>
      <point x="255" y="-67"/>
      <point x="264" y="-61"/>
      <point x="279" y="-61" type="curve" smooth="yes"/>
      <point x="306" y="-61"/>
      <point x="328" y="-83"/>
      <point x="328" y="-110" type="curve" smooth="yes"/>
      <point x="328" y="-137"/>
      <point x="306" y="-159"/>
      <point x="279" y="-159" type="curve" smooth="yes"/>
      <point x="256" y="-159"/>
      <point x="247" y="-148"/>
      <point x="239" y="-139" type="curve" smooth="yes"/>
      <point x="234" y="-133"/>
      <point x="229" y="-128"/>
      <point x="221" y="-128" type="curve" smooth="yes"/>
      <point x="209" y="-128"/>
      <point x="200" y="-138"/>
      <point x="200" y="-146" type="curve" smooth="yes"/>
      <point x="200" y="-179"/>
      <point x="247" y="-201"/>
      <point x="279" y="-201" type="curve" smooth="yes"/>
      <point x="329" y="-201"/>
      <point x="370" y="-160"/>
      <point x="370" y="-110" type="curve" smooth="yes"/>
      <point x="370" y="-62"/>
      <point x="336" y="-19"/>
      <point x="268" y="-19" type="curve"/>
      <point x="269" y="0" type="line"/>
      <point x="277" y="0" type="line" smooth="yes"/>
      <point x="351" y="3"/>
      <point x="418" y="43"/>
      <point x="451" y="93" type="curve" smooth="yes"/>
      <point x="455" y="99"/>
      <point x="459" y="105"/>
      <point x="459" y="112" type="curve" smooth="yes"/>
      <point x="459" y="127"/>
      <point x="447" y="139"/>
      <point x="432" y="139" type="curve" smooth="yes"/>
      <point x="419" y="139"/>
      <point x="410" y="129"/>
      <point x="406" y="123" type="curve" smooth="yes"/>
      <point x="377" y="84"/>
      <point x="334" y="52"/>
      <point x="262" y="52" type="curve" smooth="yes"/>
      <point x="218" y="52"/>
      <point x="103" y="90"/>
      <point x="103" y="218" type="curve" smooth="yes"/>
      <point x="103" y="245"/>
      <point x="108" y="278"/>
      <point x="123" y="316" type="curve" smooth="yes"/>
      <point x="146" y="373"/>
      <point x="207" y="448"/>
      <point x="274" y="448" type="curve" smooth="yes"/>
      <point x="326" y="448"/>
      <point x="355" y="426"/>
      <point x="382" y="393" type="curve" smooth="yes"/>
      <point x="387" y="388"/>
      <point x="394" y="384"/>
      <point x="402" y="384" type="curve" smooth="yes"/>
      <point x="417" y="384"/>
      <point x="429" y="396"/>
      <point x="429" y="411" type="curve" smooth="yes"/>
      <point x="429" y="418"/>
      <point x="426" y="426"/>
      <point x="422" y="430" type="curve" smooth="yes"/>
      <point x="384" y="474"/>
      <point x="346" y="500"/>
      <point x="272" y="500" type="curve" smooth="yes"/>
      <point x="175" y="500"/>
      <point x="100" y="401"/>
      <point x="74" y="335" type="curve" smooth="yes"/>
      <point x="64" y="309"/>
      <point x="50" y="265"/>
      <point x="50" y="216" type="curve" smooth="yes"/>
      <point x="50" y="105"/>
      <point x="133" y="18"/>
      <point x="233" y="2" type="curve"/>
    </contour>
  </outline>
</glyph>
<glyph name="egrave" format="1">
  <advance width="521"/>
  <unicode hex="00E8"/>
  <outline>
    <contour>
      <point x="471" y="90" type="curve" smooth="yes"/>
      <point x="471" y="105"/>
      <point x="460" y="116"/>
      <point x="445" y="116" type="curve" smooth="yes"/>
      <point x="438" y="116"/>
      <point x="431" y="113"/>
      <point x="427" y="108" type="curve" smooth="yes"/>
      <point x="400" y="77"/>
      <point x="342" y="52"/>
      <point x="299" y="52" type="curve" smooth="yes"/>
      <point x="218" y="52"/>
      <point x="159" y="86"/>
      <point x="122" y="155" type="curve"/>
      <point x="440" y="337" type="line" smooth="yes"/>
      <point x="456" y="346"/>
      <point x="462" y="355"/>
      <point x="462" y="366" type="curve" smooth="yes"/>
      <point x="462" y="409"/>
      <point x="404" y="499"/>
      <point x="275" y="499" type="curve" smooth="yes"/>
      <point x="139" y="499"/>
      <point x="51" y="376"/>
      <point x="51" y="238" type="curve" smooth="yes"/>
      <point x="51" y="114"/>
      <point x="147" y="0"/>
      <point x="300" y="0" type="curve" smooth="yes"/>
      <point x="361" y="0"/>
      <point x="429" y="32"/>
      <point x="464" y="72" type="curve" smooth="yes"/>
      <point x="468" y="76"/>
      <point x="471" y="83"/>
    </contour>
    <contour>
      <point x="275" y="446" type="curve" smooth="yes"/>
      <point x="350" y="446"/>
      <point x="390" y="420"/>
      <point x="408" y="373" type="curve"/>
      <point x="104" y="206" type="line"/>
      <point x="102" y="217"/>
      <point x="102" y="226"/>
      <point x="102" y="237" type="curve" smooth="yes"/>
      <point x="102" y="353"/>
      <point x="173" y="446"/>
    </contour>
    <contour>
      <point x="315" y="567" type="line" smooth="yes"/>
      <point x="320" y="562"/>
      <point x="326" y="558"/>
      <point x="334" y="558" type="curve" smooth="yes"/>
      <point x="348" y="558"/>
      <point x="362" y="569"/>
      <point x="362" y="584" type="curve" smooth="yes"/>
      <point x="362" y="590"/>
      <point x="360" y="595"/>
      <point x="355" y="602" type="curve" smooth="yes"/>
      <point x="250" y="732" type="line" smooth="yes"/>
      <point x="243" y="740"/>
      <point x="232" y="747"/>
      <point x="221" y="747" type="curve" smooth="yes"/>
      <point x="203" y="747"/>
      <point x="186" y="731"/>
      <point x="186" y="713" type="curve" smooth="yes"/>
      <point x="186" y="703"/>
      <point x="190" y="695"/>
      <point x="197" y="688" type="curve" smooth="yes"/>
    </contour>
  </outline>
</glyph>
<glyph name="eacute" format="1">
  <advance width="521"/>
  <unicode hex="00E9"/>
  <outline>
    <contour>
      <point x="471" y="90" type="curve" smooth="yes"/>
      <point x="471" y="105"/>
      <point x="460" y="116"/>
      <point x="445" y="116" type="curve" smooth="yes"/>
      <point x="438" y="116"/>
      <point x="431" y="113"/>
      <point x="427" y="108" type="curve" smooth="yes"/>
      <point x="400" y="77"/>
      <point x="342" y="52"/>
      <point x="299" y="52" type="curve" smooth="yes"/>
      <point x="218" y="52"/>
      <point x="159" y="86"/>
      <point x="122" y="155" type="curve"/>
      <point x="440" y="337" type="line" smooth="yes"/>
      <point x="456" y="346"/>
      <point x="462" y="355"/>
      <point x="462" y="366" type="curve" smooth="yes"/>
      <point x="462" y="409"/>
      <point x="404" y="499"/>
      <point x="275" y="499" type="curve" smooth="yes"/>
      <point x="139" y="499"/>
      <point x="51" y="376"/>
      <point x="51" y="238" type="curve" smooth="yes"/>
      <point x="51" y="114"/>
      <point x="147" y="0"/>
      <point x="300" y="0" type="curve" smooth="yes"/>
      <point x="361" y="0"/>
      <point x="429" y="32"/>
      <point x="464" y="72" type="curve" smooth="yes"/>
      <point x="468" y="76"/>
      <point x="471" y="83"/>
    </contour>
    <contour>
      <point x="275" y="446" type="curve" smooth="yes"/>
      <point x="350" y="446"/>
      <point x="390" y="420"/>
      <point x="408" y="373" type="curve"/>
      <point x="104" y="206" type="line"/>
      <point x="102" y="217"/>
      <point x="102" y="226"/>
      <point x="102" y="237" type="curve" smooth="yes"/>
      <point x="102" y="353"/>
      <point x="173" y="446"/>
    </contour>
    <contour>
      <point x="392" y="666" type="line" smooth="yes"/>
      <point x="399" y="671"/>
      <point x="402" y="680"/>
      <point x="402" y="689" type="curve" smooth="yes"/>
      <point x="402" y="709"/>
      <point x="387" y="725"/>
      <point x="368" y="725" type="curve" smooth="yes"/>
      <point x="357" y="725"/>
      <point x="347" y="717"/>
      <point x="339" y="710" type="curve" smooth="yes"/>
      <point x="213" y="607" type="line" smooth="yes"/>
      <point x="208" y="603"/>
      <point x="207" y="596"/>
      <point x="207" y="590" type="curve" smooth="yes"/>
      <point x="207" y="575"/>
      <point x="219" y="563"/>
      <point x="233" y="563" type="curve" smooth="yes"/>
      <point x="239" y="563"/>
      <point x="247" y="567"/>
      <point x="254" y="572" type="curve" smooth="yes"/>
    </contour>
  </outline>
</glyph>
<glyph name="iacute" format="1">
  <advance width="194"/>
  <unicode hex="00ED"/>
  <outline>
    <contour>
      <point x="129" y="467" type="curve"/>
      <point x="129" y="483"/>
      <point x="116" y="496"/>
      <point x="100" y="496" type="curve" smooth="yes"/>
      <point x="84" y="496"/>
      <point x="71" y="483"/>
      <point x="71" y="467" type="curve" smooth="yes"/>
      <point x="71" y="467"/>
      <point x="65" y="29"/>
      <point x="65" y="29" type="curve"/>
      <point x="65" y="13"/>
      <point x="78" y="0"/>
      <point x="94" y="0" type="curve" smooth="yes"/>
      <point x="110" y="0"/>
      <point x="123" y="13"/>
      <point x="123" y="29" type="curve" smooth="yes"/>
      <point x="123" y="29"/>
      <point x="129" y="467"/>
    </contour>
    <contour>
      <point x="190" y="666" type="line" smooth="yes"/>
      <point x="197" y="671"/>
      <point x="200" y="680"/>
      <point x="200" y="689" type="curve" smooth="yes"/>
      <point x="200" y="709"/>
      <point x="185" y="725"/>
      <point x="166" y="725" type="curve" smooth="yes"/>
      <point x="155" y="725"/>
      <point x="145" y="717"/>
      <point x="137" y="710" type="curve" smooth="yes"/>
      <point x="11" y="607" type="line" smooth="yes"/>
      <point x="6" y="603"/>
      <point x="5" y="596"/>
      <point x="5" y="590" type="curve" smooth="yes"/>
      <point x="5" y="575"/>
      <point x="17" y="563"/>
      <point x="31" y="563" type="curve" smooth="yes"/>
      <point x="37" y="563"/>
      <point x="45" y="567"/>
      <point x="52" y="572" type="curve" smooth="yes"/>
    </contour>
  </outline>
</glyph>
<glyph name="idieresis" format="1">
  <advance width="258"/>
  <unicode hex="00EF"/>
  <outline>
    <contour>
      <point x="158" y="467" type="curve"/>
      <point x="158" y="483"/>
      <point x="145" y="496"/>
      <point x="129" y="496" type="curve" smooth="yes"/>
      <point x="113" y="496"/>
      <point x="100" y="483"/>
      <point x="100" y="467" type="curve" smooth="yes"/>
      <point x="100" y="467"/>
      <point x="94" y="29"/>
      <point x="94" y="29" type="curve"/>
      <point x="94" y="13"/>
      <point x="107" y="0"/>
      <point x="123" y="0" type="curve" smooth="yes"/>
      <point x="139" y="0"/>
      <point x="152" y="13"/>
      <point x="152" y="29" type="curve" smooth="yes"/>
      <point x="152" y="29"/>
      <point x="158" y="467"/>
    </contour>
    <contour>
      <point x="101" y="620" type="curve" smooth="yes"/>
      <point x="101" y="642"/>
      <point x="79" y="659"/>
      <point x="56" y="659" type="curve" smooth="yes"/>
      <point x="28" y="659"/>
      <point x="5" y="638"/>
      <point x="5" y="615" type="curve" smooth="yes"/>
      <point x="5" y="592"/>
      <point x="25" y="576"/>
      <point x="50" y="576" type="curve" smooth="yes"/>
      <point x="79" y="576"/>
      <point x="101" y="596"/>
    </contour>
    <contour>
      <point x="260" y="620" type="curve" smooth="yes"/>
      <point x="260" y="642"/>
      <point x="238" y="659"/>
      <point x="215" y="659" type="curve" smooth="yes"/>
      <point x="187" y="659"/>
      <point x="164" y="638"/>
      <point x="164" y="615" type="curve" smooth="yes"/>
      <point x="164" y="592"/>
      <point x="184" y="576"/>
      <point x="209" y="576" type="curve" smooth="yes"/>
      <point x="238" y="576"/>
      <point x="260" y="596"/>
    </contour>
  </outline>
</glyph>
<glyph name="eth" format="1">
  <advance width="482"/>
  <unicode hex="00F0"/>
  <outline>
    <contour>
      <point x="275" y="584" type="curve"/>
      <point x="305" y="601"/>
      <point x="343" y="620"/>
      <point x="376" y="636" type="curve" smooth="yes"/>
      <point x="384" y="640"/>
      <point x="386" y="646"/>
      <point x="386" y="652" type="curve" smooth="yes"/>
      <point x="386" y="664"/>
      <point x="376" y="671"/>
      <point x="367" y="671" type="curve" smooth="yes"/>
      <point x="353" y="671"/>
      <point x="279" y="632"/>
      <point x="247" y="614" type="curve"/>
      <point x="211" y="650"/>
      <point x="198" y="660"/>
      <point x="196" y="661" type="curve" smooth="yes"/>
      <point x="191" y="665"/>
      <point x="186" y="667"/>
      <point x="180" y="667" type="curve" smooth="yes"/>
      <point x="167" y="667"/>
      <point x="154" y="655"/>
      <point x="154" y="641" type="curve" smooth="yes"/>
      <point x="154" y="624"/>
      <point x="176" y="614"/>
      <point x="201" y="588" type="curve"/>
      <point x="157" y="561"/>
      <point x="124" y="543"/>
      <point x="106" y="529" type="curve" smooth="yes"/>
      <point x="97" y="522"/>
      <point x="92" y="516"/>
      <point x="92" y="508" type="curve" smooth="yes"/>
      <point x="92" y="497"/>
      <point x="100" y="488"/>
      <point x="111" y="488" type="curve" smooth="yes"/>
      <point x="121" y="488"/>
      <point x="144" y="510"/>
      <point x="230" y="558" type="curve"/>
      <point x="260" y="525"/>
      <point x="295" y="483"/>
      <point x="323" y="436" type="curve"/>
      <point x="161" y="430"/>
      <point x="50" y="335"/>
      <point x="50" y="178" type="curve" smooth="yes"/>
      <point x="50" y="72"/>
      <point x="122" y="1"/>
      <point x="215" y="1" type="curve" smooth="yes"/>
      <point x="350" y="1"/>
      <point x="432" y="129"/>
      <point x="432" y="256" type="curve" smooth="yes"/>
      <point x="432" y="379"/>
      <point x="356" y="498"/>
    </contour>
    <contour>
      <point x="215" y="52" type="curve" smooth="yes"/>
      <point x="150" y="52"/>
      <point x="101" y="100"/>
      <point x="101" y="177" type="curve" smooth="yes"/>
      <point x="101" y="330"/>
      <point x="221" y="386"/>
      <point x="349" y="386" type="curve"/>
      <point x="368" y="346"/>
      <point x="381" y="302"/>
      <point x="381" y="259" type="curve" smooth="yes"/>
      <point x="381" y="153"/>
      <point x="320" y="52"/>
    </contour>
  </outline>
</glyph>
<glyph name="ocircumflex" format="1">
  <advance width="535"/>
  <unicode hex="00F4"/>
  <outline>
    <contour>
      <point x="252" y="0" type="curve" smooth="yes"/>
      <point x="378" y="0"/>
      <point x="485" y="123"/>
      <point x="485" y="270" type="curve" smooth="yes"/>
      <point x="485" y="394"/>
      <point x="397" y="500"/>
      <point x="283" y="500" type="curve" smooth="yes"/>
      <point x="157" y="500"/>
      <point x="50" y="376"/>
      <point x="50" y="230" type="curve" smooth="yes"/>
      <point x="50" y="104"/>
      <point x="137" y="0"/>
    </contour>
    <contour>
      <point x="278" y="452" type="curve" smooth="yes"/>
      <point x="361" y="452"/>
      <point x="427" y="365"/>
      <point x="427" y="265" type="curve" smooth="yes"/>
      <point x="427" y="149"/>
      <point x="343" y="48"/>
      <point x="252" y="48" type="curve" smooth="yes"/>
      <point x="165" y="48"/>
      <point x="107" y="133"/>
      <point x="107" y="232" type="curve" smooth="yes"/>
      <point x="107" y="349"/>
      <point x="185" y="452"/>
    </contour>
    <contour>
      <point x="335" y="730" type="line" smooth="yes"/>
      <point x="329" y="735"/>
      <point x="322" y="738"/>
      <point x="315" y="738" type="curve" smooth="yes"/>
      <point x="309" y="738"/>
      <point x="302" y="736"/>
      <point x="296" y="731" type="curve" smooth="yes"/>
      <point x="165" y="621" type="line" smooth="yes"/>
      <point x="158" y="616"/>
      <point x="155" y="608"/>
      <point x="155" y="600" type="curve" smooth="yes"/>
      <point x="155" y="585"/>
      <point x="167" y="574"/>
      <point x="181" y="574" type="curve" smooth="yes"/>
      <point x="187" y="574"/>
      <point x="193" y="575"/>
      <point x="198" y="579" type="curve" smooth="yes"/>
      <point x="313" y="668" type="line"/>
      <point x="409" y="581" type="line" smooth="yes"/>
      <point x="414" y="576"/>
      <point x="421" y="574"/>
      <point x="428" y="574" type="curve" smooth="yes"/>
      <point x="442" y="574"/>
      <point x="454" y="586"/>
      <point x="454" y="600" type="curve" smooth="yes"/>
      <point x="454" y="608"/>
      <point x="451" y="615"/>
      <point x="445" y="620" type="curve" smooth="yes"/>
    </contour>
  </outline>
</glyph>
<glyph name="otilde" format="1">
  <advance width="535"/>
  <unicode hex="00F5"/>
  <outline>
    <contour>
      <point x="252" y="0" type="curve" smooth="yes"/>
      <point x="137" y="0"/>
      <point x="50" y="104"/>
      <point x="50" y="230" type="curve" smooth="yes"/>
      <point x="50" y="376"/>
      <point x="157" y="500"/>
      <point x="283" y="500" type="curve" smooth="yes"/>
      <point x="397" y="500"/>
      <point x="485" y="394"/>
      <point x="485" y="270" type="curve" smooth="yes"/>
      <point x="485" y="123"/>
      <point x="378" y="0"/>
    </contour>
    <contour>
      <point x="278" y="452" type="curve" smooth="yes"/>
      <point x="185" y="452"/>
      <point x="107" y="349"/>
      <point x="107" y="232" type="curve" smooth="yes"/>
      <point x="107" y="133"/>
      <point x="165" y="48"/>
      <point x="252" y="48" type="curve" smooth="yes"/>
      <point x="343" y="48"/>
      <point x="427" y="149"/>
      <point x="427" y="265" type="curve" smooth="yes"/>
      <point x="427" y="365"/>
      <point x="361" y="452"/>
    </contour>
    <contour>
      <point x="432" y="676" type="curve" smooth="yes"/>
      <point x="436" y="686"/>
      <point x="446" y="693"/>
      <point x="456" y="693" type="curve" smooth="yes"/>
      <point x="470" y="693"/>
      <point x="482" y="682"/>
      <point x="482" y="669" type="curve" smooth="yes"/>
      <point x="482" y="664"/>
      <point x="481" y="661"/>
      <point x="479" y="655" type="curve" smooth="yes"/>
      <point x="468" y="624"/>
      <point x="437" y="556"/>
      <point x="372" y="556" type="curve" smooth="yes"/>
      <point x="327" y="556"/>
      <point x="303" y="588"/>
      <point x="283" y="616" type="curve" smooth="yes"/>
      <point x="264" y="642"/>
      <point x="253" y="664"/>
      <point x="236" y="664" type="curve" smooth="yes"/>
      <point x="223" y="664"/>
      <point x="197" y="647"/>
      <point x="181" y="598" type="curve" smooth="yes"/>
      <point x="177" y="585"/>
      <point x="168" y="579"/>
      <point x="156" y="579" type="curve" smooth="yes"/>
      <point x="142" y="579"/>
      <point x="130" y="590"/>
      <point x="130" y="604" type="curve" smooth="yes"/>
      <point x="130" y="619"/>
      <point x="140" y="636"/>
      <point x="146" y="647" type="curve" smooth="yes"/>
      <point x="168" y="685"/>
      <point x="199" y="706"/>
      <point x="236" y="706" type="curve" smooth="yes"/>
      <point x="281" y="706"/>
      <point x="305" y="673"/>
      <point x="325" y="646" type="curve" smooth="yes"/>
      <point x="344" y="620"/>
      <point x="355" y="598"/>
      <point x="372" y="598" type="curve" smooth="yes"/>
      <point x="402" y="598"/>
      <point x="421" y="647"/>
    </contour>
  </outline>
</glyph>
<glyph name="odieresis" format="1">
  <advance width="535"/>
  <unicode hex="00F6"/>
  <outline>
    <contour>
      <point x="252" y="0" type="curve" smooth="yes"/>
      <point x="137" y="0"/>
      <point x="50" y="104"/>
      <point x="50" y="230" type="curve" smooth="yes"/>
      <point x="50" y="376"/>
      <point x="157" y="500"/>
      <point x="283" y="500" type="curve" smooth="yes"/>
      <point x="397" y="500"/>
      <point x="485" y="394"/>
      <point x="485" y="270" type="curve" smooth="yes"/>
      <point x="485" y="123"/>
      <point x="378" y="0"/>
    </contour>
    <contour>
      <point x="278" y="452" type="curve" smooth="yes"/>
      <point x="185" y="452"/>
      <point x="107" y="349"/>
      <point x="107" y="232" type="curve" smooth="yes"/>
      <point x="107" y="133"/>
      <point x="165" y="48"/>
      <point x="252" y="48" type="curve" smooth="yes"/>
      <point x="343" y="48"/>
      <point x="427" y="149"/>
      <point x="427" y="265" type="curve" smooth="yes"/>
      <point x="427" y="365"/>
      <point x="361" y="452"/>
    </contour>
    <contour>
      <point x="268" y="620" type="curve" smooth="yes"/>
      <point x="268" y="596"/>
      <point x="246" y="576"/>
      <point x="217" y="576" type="curve" smooth="yes"/>
      <point x="192" y="576"/>
      <point x="172" y="592"/>
      <point x="172" y="615" type="curve" smooth="yes"/>
      <point x="172" y="638"/>
      <point x="195" y="659"/>
      <point x="223" y="659" type="curve" smooth="yes"/>
      <point x="246" y="659"/>
      <point x="268" y="642"/>
    </contour>
    <contour>
      <point x="427" y="620" type="curve" smooth="yes"/>
      <point x="427" y="596"/>
      <point x="405" y="576"/>
      <point x="376" y="576" type="curve" smooth="yes"/>
      <point x="351" y="576"/>
      <point x="331" y="592"/>
      <point x="331" y="615" type="curve" smooth="yes"/>
      <point x="331" y="638"/>
      <point x="354" y="659"/>
      <point x="382" y="659" type="curve" smooth="yes"/>
      <point x="405" y="659"/>
      <point x="427" y="642"/>
    </contour>
  </outline>
</glyph>
<glyph name="oslash" format="1">
  <advance width="535"/>
  <unicode hex="00F8"/>
  <outline>
    <contour>
      <point x="252" y="0" type="curve" smooth="yes"/>
      <point x="218" y="0"/>
      <point x="186" y="9"/>
      <point x="158" y="25" type="curve"/>
      <point x="131" y="-22" type="line" smooth="yes"/>
      <point x="126" y="-30"/>
      <point x="118" y="-35"/>
      <point x="109" y="-35" type="curve" smooth="yes"/>
      <point x="95.5475" y="-35"/>
      <point x="83.9417" y="-22.9969"/>
      <point x="83.9417" y="-8.75005" type="curve" smooth="yes"/>
      <point x="83.9417" y="-3.55524"/>
      <point x="84.6795" y="-0.640949"/>
      <point x="87" y="4" type="curve" smooth="yes"/>
      <point x="118" y="56" type="line"/>
      <point x="76" y="99"/>
      <point x="50" y="161"/>
      <point x="50" y="230" type="curve" smooth="yes"/>
      <point x="50" y="376"/>
      <point x="157" y="500"/>
      <point x="283" y="500" type="curve" smooth="yes"/>
      <point x="312" y="500"/>
      <point x="340" y="493"/>
      <point x="365" y="480" type="curve"/>
      <point x="396" y="532" type="line" smooth="yes"/>
      <point x="401" y="540"/>
      <point x="409" y="544"/>
      <point x="418" y="544" type="curve" smooth="yes"/>
      <point x="431" y="544"/>
      <point x="444" y="533"/>
      <point x="444" y="519" type="curve" smooth="yes"/>
      <point x="444" y="515"/>
      <point x="443" y="511"/>
      <point x="440" y="506" type="curve" smooth="yes"/>
      <point x="408" y="451" type="line"/>
      <point x="455" y="408"/>
      <point x="485" y="342"/>
      <point x="485" y="270" type="curve" smooth="yes"/>
      <point x="485" y="123"/>
      <point x="378" y="0"/>
    </contour>
    <contour>
      <point x="252" y="48" type="curve" smooth="yes"/>
      <point x="343" y="48"/>
      <point x="427" y="149"/>
      <point x="427" y="265" type="curve" smooth="yes"/>
      <point x="427" y="318"/>
      <point x="408" y="367"/>
      <point x="379" y="402" type="curve"/>
      <point x="183" y="68" type="line"/>
      <point x="203" y="55"/>
      <point x="226" y="48"/>
    </contour>
    <contour>
      <point x="278" y="452" type="curve" smooth="yes"/>
      <point x="185" y="452"/>
      <point x="107" y="349"/>
      <point x="107" y="232" type="curve" smooth="yes"/>
      <point x="107" y="183"/>
      <point x="121" y="138"/>
      <point x="146" y="104" type="curve"/>
      <point x="339" y="435" type="line"/>
      <point x="321" y="446"/>
      <point x="300" y="452"/>
    </contour>
  </outline>
</glyph>
<glyph name="uacute" format="1">
  <advance width="512"/>
  <unicode hex="00FA"/>
  <outline>
    <contour>
      <point x="447" y="475" type="line" smooth="yes"/>
      <point x="447" y="490"/>
      <point x="435" y="500"/>
      <point x="421" y="500" type="curve" smooth="yes"/>
      <point x="407" y="500"/>
      <point x="395" y="490"/>
      <point x="395" y="475" type="curve" smooth="yes"/>
      <point x="390" y="161" type="line"/>
      <point x="390" y="161"/>
      <point x="390" y="133"/>
      <point x="377" y="118" type="curve" smooth="yes"/>
      <point x="356" y="94"/>
      <point x="286" y="46"/>
      <point x="217" y="46" type="curve" smooth="yes"/>
      <point x="118" y="46"/>
      <point x="120" y="170"/>
      <point x="120" y="292" type="curve" smooth="yes"/>
      <point x="120" y="384"/>
      <point x="131" y="450"/>
      <point x="133" y="474" type="curve" smooth="yes"/>
      <point x="134" y="489"/>
      <point x="120" y="500"/>
      <point x="105" y="500" type="curve" smooth="yes"/>
      <point x="91" y="500"/>
      <point x="82" y="495"/>
      <point x="78" y="466" type="curve" smooth="yes"/>
      <point x="73" y="428"/>
      <point x="65" y="368"/>
      <point x="66" y="291" type="curve" smooth="yes"/>
      <point x="67" y="143"/>
      <point x="65" y="-3"/>
      <point x="217" y="-3" type="curve" smooth="yes"/>
      <point x="294" y="-3"/>
      <point x="361" y="40"/>
      <point x="386" y="76" type="curve"/>
      <point x="386" y="33" type="line" smooth="yes"/>
      <point x="386" y="15"/>
      <point x="398" y="0"/>
      <point x="417" y="0" type="curve" smooth="yes"/>
      <point x="433" y="0"/>
      <point x="447" y="13"/>
      <point x="447" y="28" type="curve" smooth="yes"/>
    </contour>
    <contour>
      <point x="386" y="663" type="line" smooth="yes"/>
      <point x="393" y="668"/>
      <point x="396" y="677"/>
      <point x="396" y="686" type="curve" smooth="yes"/>
      <point x="396" y="706"/>
      <point x="381" y="722"/>
      <point x="362" y="722" type="curve" smooth="yes"/>
      <point x="351" y="722"/>
      <point x="341" y="714"/>
      <point x="333" y="707" type="curve" smooth="yes"/>
      <point x="207" y="604" type="line" smooth="yes"/>
      <point x="202" y="600"/>
      <point x="201" y="593"/>
      <point x="201" y="587" type="curve" smooth="yes"/>
      <point x="201" y="572"/>
      <point x="213" y="560"/>
      <point x="227" y="560" type="curve" smooth="yes"/>
      <point x="233" y="560"/>
      <point x="241" y="564"/>
      <point x="248" y="569" type="curve" smooth="yes"/>
    </contour>
  </outline>
</glyph>
<glyph name="ucircumflex" format="1">
  <advance width="512"/>
  <unicode hex="00FB"/>
  <outline>
    <contour>
      <point x="447" y="475" type="curve" smooth="yes"/>
      <point x="447" y="28" type="line" smooth="yes"/>
      <point x="447" y="13"/>
      <point x="433" y="0"/>
      <point x="417" y="0" type="curve" smooth="yes"/>
      <point x="398" y="0"/>
      <point x="386" y="15"/>
      <point x="386" y="33" type="curve" smooth="yes"/>
      <point x="386" y="76" type="line"/>
      <point x="361" y="40"/>
      <point x="294" y="-3"/>
      <point x="217" y="-3" type="curve" smooth="yes"/>
      <point x="65" y="-3"/>
      <point x="67" y="143"/>
      <point x="66" y="291" type="curve" smooth="yes"/>
      <point x="65.9422" y="295.449"/>
      <point x="65.9145" y="299.842"/>
      <point x="65.9145" y="304.176" type="curve" smooth="yes"/>
      <point x="65.9145" y="374.86"/>
      <point x="73.2889" y="430.196"/>
      <point x="78" y="466" type="curve" smooth="yes"/>
      <point x="82" y="495"/>
      <point x="91" y="500"/>
      <point x="105" y="500" type="curve" smooth="yes"/>
      <point x="119.492" y="500"/>
      <point x="133.051" y="489.732"/>
      <point x="133.051" y="475.51" type="curve" smooth="yes"/>
      <point x="133.051" y="449.8"/>
      <point x="120" y="385.363"/>
      <point x="120" y="292" type="curve" smooth="yes"/>
      <point x="120" y="287.262"/>
      <point x="119.997" y="282.521"/>
      <point x="119.997" y="277.785" type="curve" smooth="yes"/>
      <point x="119.997" y="160.556"/>
      <point x="121.845" y="46"/>
      <point x="217" y="46" type="curve" smooth="yes"/>
      <point x="286" y="46"/>
      <point x="356" y="94"/>
      <point x="377" y="118" type="curve" smooth="yes"/>
      <point x="390" y="133"/>
      <point x="390" y="161"/>
      <point x="390" y="161" type="curve"/>
      <point x="395" y="475" type="line" smooth="yes"/>
      <point x="395" y="490"/>
      <point x="407" y="500"/>
      <point x="421" y="500" type="curve" smooth="yes"/>
      <point x="435" y="500"/>
      <point x="447" y="490"/>
    </contour>
    <contour>
      <point x="315" y="726" type="curve" smooth="yes"/>
      <point x="425" y="616" type="line" smooth="yes"/>
      <point x="431" y="611"/>
      <point x="434" y="604"/>
      <point x="434" y="596" type="curve" smooth="yes"/>
      <point x="434" y="582"/>
      <point x="422" y="570"/>
      <point x="408" y="570" type="curve" smooth="yes"/>
      <point x="401" y="570"/>
      <point x="394" y="572"/>
      <point x="389" y="577" type="curve" smooth="yes"/>
      <point x="293" y="664" type="line"/>
      <point x="178" y="575" type="line" smooth="yes"/>
      <point x="173" y="571"/>
      <point x="167" y="570"/>
      <point x="161" y="570" type="curve" smooth="yes"/>
      <point x="147" y="570"/>
      <point x="135" y="581"/>
      <point x="135" y="596" type="curve" smooth="yes"/>
      <point x="135" y="604"/>
      <point x="138" y="612"/>
      <point x="145" y="617" type="curve" smooth="yes"/>
      <point x="276" y="727" type="line" smooth="yes"/>
      <point x="282" y="732"/>
      <point x="289" y="734"/>
      <point x="295" y="734" type="curve" smooth="yes"/>
      <point x="302" y="734"/>
      <point x="309" y="731"/>
    </contour>
  </outline>
</glyph>
<glyph name="udieresis" format="1">
  <advance width="512"/>
  <unicode hex="00FC"/>
  <outline>
    <contour>
      <point x="447" y="475" type="curve" smooth="yes"/>
      <point x="447" y="28" type="line" smooth="yes"/>
      <point x="447" y="13"/>
      <point x="433" y="0"/>
      <point x="417" y="0" type="curve" smooth="yes"/>
      <point x="398" y="0"/>
      <point x="386" y="15"/>
      <point x="386" y="33" type="curve" smooth="yes"/>
      <point x="386" y="76" type="line"/>
      <point x="361" y="40"/>
      <point x="294" y="-3"/>
      <point x="217" y="-3" type="curve" smooth="yes"/>
      <point x="65" y="-3"/>
      <point x="67" y="143"/>
      <point x="66" y="291" type="curve" smooth="yes"/>
      <point x="65.9422" y="295.449"/>
      <point x="65.9145" y="299.842"/>
      <point x="65.9145" y="304.176" type="curve" smooth="yes"/>
      <point x="65.9145" y="374.86"/>
      <point x="73.2889" y="430.196"/>
      <point x="78" y="466" type="curve" smooth="yes"/>
      <point x="82" y="495"/>
      <point x="91" y="500"/>
      <point x="105" y="500" type="curve" smooth="yes"/>
      <point x="119.492" y="500"/>
      <point x="133.051" y="489.732"/>
      <point x="133.051" y="475.51" type="curve" smooth="yes"/>
      <point x="133.051" y="449.8"/>
      <point x="120" y="385.363"/>
      <point x="120" y="292" type="curve" smooth="yes"/>
      <point x="120" y="287.262"/>
      <point x="119.997" y="282.521"/>
      <point x="119.997" y="277.785" type="curve" smooth="yes"/>
      <point x="119.997" y="160.556"/>
      <point x="121.845" y="46"/>
      <point x="217" y="46" type="curve" smooth="yes"/>
      <point x="286" y="46"/>
      <point x="356" y="94"/>
      <point x="377" y="118" type="curve" smooth="yes"/>
      <point x="390" y="133"/>
      <point x="390" y="161"/>
      <point x="390" y="161" type="curve"/>
      <point x="395" y="475" type="line" smooth="yes"/>
      <point x="395" y="490"/>
      <point x="407" y="500"/>
      <point x="421" y="500" type="curve" smooth="yes"/>
      <point x="435" y="500"/>
      <point x="447" y="490"/>
    </contour>
    <contour>
      <point x="241" y="620" type="curve" smooth="yes"/>
      <point x="241" y="596"/>
      <point x="219" y="576"/>
      <point x="190" y="576" type="curve" smooth="yes"/>
      <point x="165" y="576"/>
      <point x="145" y="592"/>
      <point x="145" y="615" type="curve" smooth="yes"/>
      <point x="145" y="638"/>
      <point x="168" y="659"/>
      <point x="196" y="659" type="curve" smooth="yes"/>
      <point x="219" y="659"/>
      <point x="241" y="642"/>
    </contour>
    <contour>
      <point x="400" y="620" type="curve" smooth="yes"/>
      <point x="400" y="596"/>
      <point x="378" y="576"/>
      <point x="349" y="576" type="curve" smooth="yes"/>
      <point x="324" y="576"/>
      <point x="304" y="592"/>
      <point x="304" y="615" type="curve" smooth="yes"/>
      <point x="304" y="638"/>
      <point x="327" y="659"/>
      <point x="355" y="659" type="curve" smooth="yes"/>
      <point x="378" y="659"/>
      <point x="400" y="642"/>
    </contour>
  </outline>
</glyph>
<glyph name="thorn" format="1">
  <advance width="520"/>
  <unicode hex="00FE"/>
  <outline>
    <contour>
      <point x="309" y="490" type="curve"/>
      <point x="220" y="490"/>
      <point x="162" y="459"/>
      <point x="121" y="421" type="curve"/>
      <point x="121" y="660" type="line" smooth="yes"/>
      <point x="121" y="676"/>
      <point x="109" y="689"/>
      <point x="93" y="689" type="curve" smooth="yes"/>
      <point x="77" y="689"/>
      <point x="65" y="676"/>
      <point x="65" y="660" type="curve" smooth="yes"/>
      <point x="65" y="-167" type="line" smooth="yes"/>
      <point x="65" y="-182"/>
      <point x="78" y="-195"/>
      <point x="93" y="-195" type="curve" smooth="yes"/>
      <point x="108" y="-195"/>
      <point x="121" y="-182"/>
      <point x="121" y="-167" type="curve" smooth="yes"/>
      <point x="121" y="36" type="line"/>
      <point x="152" y="24"/>
      <point x="199" y="8"/>
      <point x="251" y="8" type="curve" smooth="yes"/>
      <point x="427" y="8"/>
      <point x="470" y="157"/>
      <point x="470" y="271" type="curve" smooth="yes"/>
      <point x="470" y="376"/>
      <point x="420" y="485"/>
    </contour>
    <contour>
      <point x="257" y="65" type="curve" smooth="yes"/>
      <point x="198" y="65"/>
      <point x="140" y="90"/>
      <point x="121" y="99" type="curve"/>
      <point x="121" y="353" type="line"/>
      <point x="138" y="378"/>
      <point x="196" y="441"/>
      <point x="301" y="441" type="curve" smooth="yes"/>
      <point x="395" y="441"/>
      <point x="420" y="333"/>
      <point x="420" y="271" type="curve" smooth="yes"/>
      <point x="420" y="151"/>
      <point x="379" y="65"/>
    </contour>
  </outline>
</glyph>
<glyph name="ydieresis" format="1">
  <advance width="489"/>
  <unicode hex="00FF"/>
  <outline>
    <contour>
      <point x="467" y="461" type="line" smooth="yes"/>
      <point x="469" y="465"/>
      <point x="469" y="469"/>
      <point x="469" y="473" type="curve" smooth="yes"/>
      <point x="469" y="489"/>
      <point x="456" y="501"/>
      <point x="441" y="501" type="curve" smooth="yes"/>
      <point x="428" y="501"/>
      <point x="418" y="493"/>
      <point x="414" y="483" type="curve" smooth="yes"/>
      <point x="251" y="127" type="line"/>
      <point x="75" y="481" type="line" smooth="yes"/>
      <point x="70" y="491"/>
      <point x="60" y="500"/>
      <point x="48" y="500" type="curve" smooth="yes"/>
      <point x="32" y="500"/>
      <point x="20" y="487"/>
      <point x="20" y="471" type="curve" smooth="yes"/>
      <point x="20" y="466"/>
      <point x="22" y="460"/>
      <point x="24" y="456" type="curve" smooth="yes"/>
      <point x="220" y="61" type="line"/>
      <point x="121" y="-156" type="line" smooth="yes"/>
      <point x="119" y="-160"/>
      <point x="118" y="-164"/>
      <point x="118" y="-168" type="curve" smooth="yes"/>
      <point x="118" y="-184"/>
      <point x="131" y="-197"/>
      <point x="146" y="-197" type="curve" smooth="yes"/>
      <point x="159" y="-197"/>
      <point x="169" y="-189"/>
      <point x="173" y="-179" type="curve" smooth="yes"/>
    </contour>
    <contour>
      <point x="219" y="620" type="curve" smooth="yes"/>
      <point x="219" y="642"/>
      <point x="197" y="659"/>
      <point x="174" y="659" type="curve" smooth="yes"/>
      <point x="146" y="659"/>
      <point x="123" y="638"/>
      <point x="123" y="615" type="curve" smooth="yes"/>
      <point x="123" y="592"/>
      <point x="143" y="576"/>
      <point x="168" y="576" type="curve" smooth="yes"/>
      <point x="197" y="576"/>
      <point x="219" y="596"/>
    </contour>
    <contour>
      <point x="378" y="620" type="curve" smooth="yes"/>
      <point x="378" y="642"/>
      <point x="356" y="659"/>
      <point x="333" y="659" type="curve" smooth="yes"/>
      <point x="305" y="659"/>
      <point x="282" y="638"/>
      <point x="282" y="615" type="curve" smooth="yes"/>
      <point x="282" y="592"/>
      <point x="302" y="576"/>
      <point x="327" y="576" type="curve" smooth="yes"/>
      <point x="356" y="576"/>
      <point x="378" y="596"/>
    </contour>
  </outline>
</glyph>
<glyph name="Abreve" format="1">
  <advance width="624"/>
  <unicode hex="0102"/>
  <outline>
    <contour>
      <point x="163" y="852" type="curve" smooth="yes"/>
      <point x="163" y="831"/>
      <point x="203" y="740"/>
      <point x="321" y="740" type="curve" smooth="yes"/>
      <point x="416" y="740"/>
      <point x="469" y="814"/>
      <point x="469" y="859" type="curve" smooth="yes"/>
      <point x="469" y="868"/>
      <point x="461" y="876"/>
      <point x="452" y="876" type="curve" smooth="yes"/>
      <point x="439" y="876"/>
      <point x="434" y="867"/>
      <point x="429" y="855" type="curve" smooth="yes"/>
      <point x="409" y="806"/>
      <point x="374" y="786"/>
      <point x="323" y="786" type="curve" smooth="yes"/>
      <point x="286" y="786"/>
      <point x="228" y="803"/>
      <point x="203" y="853" type="curve" smooth="yes"/>
      <point x="199" y="860"/>
      <point x="191" y="871"/>
      <point x="180" y="871" type="curve" smooth="yes"/>
      <point x="165" y="871"/>
      <point x="163" y="860"/>
    </contour>
    <contour>
      <point x="354" y="670" type="line" smooth="yes"/>
      <point x="350" y="681"/>
      <point x="339" y="689"/>
      <point x="328" y="689" type="curve" smooth="yes"/>
      <point x="316" y="689"/>
      <point x="305" y="682"/>
      <point x="300" y="671" type="curve" smooth="yes"/>
      <point x="137" y="256" type="line"/>
      <point x="85" y="244" type="line" smooth="yes"/>
      <point x="72" y="241"/>
      <point x="63" y="230"/>
      <point x="63" y="217" type="curve" smooth="yes"/>
      <point x="63" y="200"/>
      <point x="76" y="188"/>
      <point x="92" y="188" type="curve" smooth="yes"/>
      <point x="94" y="188"/>
      <point x="96" y="188"/>
      <point x="112" y="192" type="curve"/>
      <point x="52" y="39" type="line" smooth="yes"/>
      <point x="51" y="36"/>
      <point x="50" y="32"/>
      <point x="50" y="29" type="curve" smooth="yes"/>
      <point x="50" y="15"/>
      <point x="62" y="0"/>
      <point x="79" y="0" type="curve" smooth="yes"/>
      <point x="90" y="0"/>
      <point x="101" y="7"/>
      <point x="105" y="18" type="curve" smooth="yes"/>
      <point x="179" y="206" type="line"/>
      <point x="434" y="262" type="line"/>
      <point x="518" y="18" type="line" smooth="yes"/>
      <point x="522" y="6"/>
      <point x="533" y="-1"/>
      <point x="545" y="-1" type="curve" smooth="yes"/>
      <point x="562" y="-1"/>
      <point x="573" y="13"/>
      <point x="573" y="28" type="curve" smooth="yes"/>
      <point x="573" y="31"/>
      <point x="573" y="34"/>
      <point x="572" y="37" type="curve" smooth="yes"/>
    </contour>
    <contour>
      <point x="204" y="270" type="line"/>
      <point x="325" y="578" type="line"/>
      <point x="415" y="316" type="line"/>
    </contour>
  </outline>
</glyph>
